<svg xmlns="http://www.w3.org/2000/svg" version="1.1" viewBox="0 0 390 184"><g fill="none" stroke-linecap="butt" stroke-width="2"><path stroke="#bbbed0" d="M 20.00 19.13 Q 21.78 22.23 21.99 25.00 Q 23.02 38.58 22.70 56.48" vector-effect="non-scaling-stroke"/><path stroke="#e3aea9" d="M 22.70 56.48 L 21.94 121.03" vector-effect="non-scaling-stroke"/><path stroke="#f6dab0" d="M 21.94 121.03 Q 21.54 126.36 20.90 131.70 Q 20.67 133.66 19.83 134.53 C 18.13 136.30 14.59 136.53 12.26 136.82 Q 10.88 136.99 10.33 138.24 A 1.18 1.18 0.0 0 0 11.24 139.88 Q 12.65 140.08 13.85 140.06 Q 21.21 139.96 29.06 139.97 Q 36.63 139.98 44.76 140.47 Q 58.70 141.30 72.51 140.93 C 83.53 140.64 94.81 138.73 104.44 133.11 Q 112.34 128.50 117.78 123.67" vector-effect="non-scaling-stroke"/><path stroke="#e3aea9" d="M 117.78 123.67 Q 126.25 114.58 131.49 101.74" vector-effect="non-scaling-stroke"/><path stroke="#d28687" d="M 131.49 101.74 Q 138.18 84.78 135.99 66.71" vector-effect="non-scaling-stroke"/><path stroke="#c1bdcb" d="M 135.99 66.71 Q 135.44 57.26 131.47 50.01" vector-effect="non-scaling-stroke"/><path stroke="#82c0e6" d="M 131.47 50.01 Q 129.71 44.98 126.43 40.31 Q 115.02 24.10 96.72 18.22 Q 90.10 16.10 86.47 15.54 C 79.82 14.51 73.29 13.74 66.47 13.76 Q 48.11 13.81 29.75 14.00 Q 23.48 14.06 9.28 12.75 Q 8.65 12.69 8.65 13.33 L 8.67 16.44 A 0.67 0.67 0.0 0 0 9.42 17.10 C 12.69 16.69 17.33 16.57 20.00 19.13" vector-effect="non-scaling-stroke"/><path stroke="#447eb2" d="M 131.47 50.01 Q 128.18 44.28 125.23 40.51 Q 117.25 30.29 105.17 24.70 Q 103.02 23.70 100.98 22.51 Q 99.01 21.37 96.68 21.12 Q 94.50 20.89 92.31 20.47 Q 86.88 19.41 82.03 18.62 Q 81.40 18.51 81.20 19.09 Q 81.02 19.63 81.56 19.81 L 82.53 20.13 Q 83.01 20.28 83.20 20.74 Q 83.47 21.41 84.22 21.39 A 1.02 0.99 59.1 0 1 84.78 21.54 Q 94.82 27.46 101.37 32.89 Q 108.44 38.75 113.65 47.49" vector-effect="non-scaling-stroke"/><path stroke="#666f90" d="M 113.65 47.49 Q 113.17 47.94 112.40 47.93" vector-effect="non-scaling-stroke"/><path stroke="#82c0e6" d="M 112.40 47.93 Q 100.43 28.78 78.15 22.73 Q 68.26 20.04 56.50 20.04 Q 44.91 20.03 38.39 20.44" vector-effect="non-scaling-stroke"/><path stroke="#3e7fb7" d="M 38.39 20.44 Q 37.19 18.17 35.99 18.09 Q 32.28 17.86 28.54 17.71 Q 28.05 17.69 27.74 17.32 Q 27.51 17.04 27.25 16.99 Q 22.45 15.98 20.00 19.13" vector-effect="non-scaling-stroke"/><path stroke="#b63531" d="M 134.17 67.95 Q 133.36 77.82 133.58 82.75 C 133.75 86.62 134.05 90.31 132.54 93.53 Q 131.64 95.44 131.62 96.25 Q 131.57 97.75 130.62 100.13 Q 130.19 101.20 131.49 101.74" vector-effect="non-scaling-stroke"/><path stroke="#da895a" d="M 117.78 123.67 L 109.94 120.16 A 1.02 1.00 -56.2 0 0 108.78 120.40 Q 106.10 123.31 102.63 124.33" vector-effect="non-scaling-stroke"/><path stroke="#e3aea9" d="M 112.40 47.93 Q 120.13 60.88 120.77 75.74 Q 121.18 85.18 120.27 91.74 Q 118.64 103.47 111.90 114.65 Q 108.71 119.95 102.63 124.33" vector-effect="non-scaling-stroke"/><path stroke="#f6dab0" d="M 102.63 124.33 Q 91.18 131.82 81.25 133.98 Q 69.59 136.51 52.25 134.00 C 49.21 133.55 45.18 132.31 42.56 130.95 Q 40.42 129.84 39.11 127.34" vector-effect="non-scaling-stroke"/><path stroke="#e3aea9" d="M 39.11 127.34 Q 38.69 125.94 38.67 125.50 Q 38.12 111.01 37.99 96.50 Q 37.84 80.81 37.79 64.04" vector-effect="non-scaling-stroke"/><path stroke="#944453" d="M 135.99 66.71 Q 135.34 64.61 134.17 67.95" vector-effect="non-scaling-stroke"/><path stroke="#a46b75" d="M 134.17 67.95 Q 133.26 71.07 130.27 69.61 Q 128.37 68.68 126.32 68.21 Q 125.19 67.96 124.28 67.51 Q 123.29 67.03 122.22 66.62 Q 121.79 66.45 121.69 66.00 Q 120.89 62.20 119.09 58.56 C 118.04 56.44 117.65 54.32 116.31 52.25 Q 114.83 49.95 113.65 47.49" vector-effect="non-scaling-stroke"/><path stroke="#bbbed0" d="M 38.39 20.44 L 37.79 64.04" vector-effect="non-scaling-stroke"/><path stroke="#9e6d7a" d="M 37.79 64.04 Q 32.77 62.06 26.78 61.62 Q 26.14 61.57 25.52 61.75 Q 24.49 62.03 24.41 61.00 Q 24.29 59.24 24.43 57.50 Q 24.48 56.82 23.83 56.64 Q 23.59 56.57 23.55 56.32 Q 23.44 55.54 22.96 56.14 L 22.70 56.48" vector-effect="non-scaling-stroke"/><path stroke="#da895a" d="M 39.11 127.34 Q 37.60 128.24 36.82 126.20 Q 36.60 125.61 36.68 124.74 Q 36.76 123.99 36.78 123.22 Q 36.79 122.70 36.32 122.47 Q 34.56 121.61 32.68 121.38 Q 30.00 121.06 27.22 120.90 C 25.56 120.81 24.15 121.45 22.43 121.30 Q 22.27 121.28 22.16 121.41 Q 22.06 121.52 22.08 121.65 Q 22.11 121.88 22.11 121.65 Q 22.10 121.40 21.94 121.03" vector-effect="non-scaling-stroke"/><path stroke="#bcbcce" d="M 141.33 27.61 L 141.31 55.96" vector-effect="non-scaling-stroke"/><path stroke="#e2a4a4" d="M 141.31 55.96 L 141.14 98.27" vector-effect="non-scaling-stroke"/><path stroke="#eac5b3" d="M 141.14 98.27 Q 140.93 111.69 140.98 125.10 C 141.00 129.08 140.13 136.30 134.69 136.60 Q 131.94 136.75 129.20 137.58 A 0.93 0.93 0.0 0 0 128.92 139.22 Q 129.96 139.98 131.20 139.95 Q 148.15 139.61 170.32 139.82 A 1.43 1.30 -53.4 0 0 170.83 139.72 Q 173.64 138.56 171.16 137.23 A 1.65 1.63 -29.4 0 0 170.50 137.05 Q 167.13 136.84 163.52 136.45 C 158.56 135.93 157.20 132.51 156.54 128.25 Q 155.88 124.00 155.39 113.97" vector-effect="non-scaling-stroke"/><path stroke="#e2a4a4" d="M 155.39 113.97 L 155.25 87.67 Q 155.25 86.43 156.48 86.40 L 164.47 86.14" vector-effect="non-scaling-stroke"/><path stroke="#d98686" d="M 164.47 86.14 Q 170.03 86.86 175.63 86.84 Q 178.96 86.83 180.38 88.87 Q 190.19 102.95 200.71 116.47" vector-effect="non-scaling-stroke"/><path stroke="#eac5b3" d="M 200.71 116.47 Q 202.53 119.38 204.71 122.05 C 210.39 128.99 215.05 136.28 221.70 142.86" vector-effect="non-scaling-stroke"/><path stroke="#f9dfb5" d="M 221.70 142.86 C 228.33 151.88 236.00 160.27 242.77 168.62 C 247.03 173.86 252.05 178.43 259.03 179.32 C 267.49 180.41 276.72 180.09 284.97 179.82 A 1.45 1.44 32.5 0 0 285.47 179.71 Q 288.17 178.48 285.32 177.09 A 1.43 1.42 -31.1 0 0 284.75 176.95 Q 271.49 176.37 262.71 168.75 C 256.69 163.52 251.58 157.45 246.75 151.06 Q 243.06 146.18 237.65 141.39 A 0.76 0.76 0.0 0 1 238.02 140.08 L 240.22 139.66" vector-effect="non-scaling-stroke"/><path stroke="#eac5b3" d="M 240.22 139.66 L 275.58 139.98" vector-effect="non-scaling-stroke"/><path stroke="#e5b2ab" d="M 275.58 139.98 Q 286.31 139.93 295.10 136.61 Q 307.41 131.96 313.36 120.81" vector-effect="non-scaling-stroke"/><path stroke="#d28687" d="M 313.36 120.81 Q 317.82 112.87 317.61 103.51 Q 317.34 91.48 310.50 83.15 Q 302.16 72.98 290.10 69.49 A 0.95 0.94 32.3 0 1 289.73 67.87 Q 293.68 64.38 297.04 60.05 Q 303.58 51.61 304.87 41.08" vector-effect="non-scaling-stroke"/><path stroke="#b7c0d5" d="M 304.87 41.08 Q 305.58 34.62 302.14 28.65" vector-effect="non-scaling-stroke"/><path stroke="#82c0e6" d="M 302.14 28.65 C 295.59 16.37 281.20 12.84 268.25 13.55 C 255.34 14.25 243.92 13.76 231.84 13.01 A 1.27 1.27 0.0 0 0 230.50 14.37 L 230.53 14.74 Q 230.65 16.32 232.21 16.54 C 235.03 16.95 238.70 16.53 241.09 18.05 C 243.78 19.76 244.66 21.77 244.96 24.95 Q 245.40 29.60 245.72 34.20" vector-effect="non-scaling-stroke"/><path stroke="#b8b9d0" d="M 245.72 34.20 L 245.84 44.81" vector-effect="non-scaling-stroke"/><path stroke="#d28687" d="M 245.84 44.81 L 245.28 118.44" vector-effect="non-scaling-stroke"/><path stroke="#eac5b3" d="M 245.28 118.44 Q 244.84 123.31 244.24 128.11 C 243.67 132.72 241.90 136.22 237.06 137.20 C 234.28 137.76 231.96 133.70 230.44 132.28" vector-effect="non-scaling-stroke"/><path stroke="#d98686" d="M 230.44 132.28 Q 226.79 127.99 223.35 123.50 C 219.33 118.27 214.93 113.03 210.84 107.65 C 206.93 102.52 202.75 97.77 199.07 92.51 C 196.97 89.50 194.40 86.81 191.99 84.13 A 2.32 2.32 0.0 0 1 192.21 80.83 Q 200.60 73.61 206.22 63.31 C 211.35 53.89 213.38 40.23 207.81 30.50" vector-effect="non-scaling-stroke"/><path stroke="#82c0e6" d="M 207.81 30.50 Q 201.24 19.27 188.70 15.89 Q 179.83 13.50 170.26 13.65 Q 160.27 13.80 150.20 13.93 C 142.70 14.03 135.74 13.30 128.43 12.93 A 1.36 1.36 0.0 0 0 127.00 14.32 L 127.01 14.72 Q 127.06 16.46 128.79 16.65 C 131.58 16.95 134.63 16.64 137.16 18.03 C 141.56 20.46 140.74 23.45 141.33 27.61" vector-effect="non-scaling-stroke"/><path stroke="#5c476d" d="M 207.81 30.50 Q 207.23 31.51 206.77 31.35" vector-effect="non-scaling-stroke"/><path stroke="#3e7fb7" d="M 206.77 31.35 Q 201.22 23.54 192.81 19.84 Q 191.00 19.05 189.10 18.87 Q 187.27 18.70 185.45 18.31 A 1.07 1.05 23.2 0 0 184.35 18.74 Q 183.69 19.69 183.82 20.91 Q 183.87 21.38 184.27 21.64 Q 192.20 26.76 193.94 35.58" vector-effect="non-scaling-stroke"/><path stroke="#82c0e6" d="M 193.94 35.58 Q 189.05 25.63 179.93 21.56 Q 176.85 20.19 173.45 20.05 Q 165.33 19.73 156.76 20.25 A 1.66 1.65 -1.8 0 0 155.21 21.90 L 155.17 34.06" vector-effect="non-scaling-stroke"/><path stroke="#5c476d" d="M 155.17 34.06 Q 154.42 34.01 154.04 34.56" vector-effect="non-scaling-stroke"/><path stroke="#3f7db5" d="M 154.04 34.56 Q 153.51 32.11 153.39 29.67 Q 153.27 27.13 152.67 25.29 Q 152.01 23.27 152.11 21.05 Q 152.12 20.72 152.30 20.47 Q 152.55 20.12 152.89 19.93 A 0.04 0.04 0.0 0 0 152.89 19.85 Q 152.72 19.78 152.61 19.63 A 0.66 0.64 70.0 0 0 152.05 19.36 Q 148.29 19.53 144.59 18.60 Q 142.98 18.20 143.23 19.83 Q 143.87 24.00 141.33 27.61" vector-effect="non-scaling-stroke"/><path stroke="#954557" d="M 206.77 31.35 C 207.80 32.76 208.83 34.36 209.16 36.10 Q 209.57 38.27 210.02 40.41 Q 210.46 42.52 210.36 44.70 Q 210.18 48.85 209.05 53.23 Q 208.25 56.30 206.20 59.20 Q 204.09 62.20 202.35 65.18 C 200.84 67.77 198.62 69.49 196.80 71.83 Q 195.58 73.39 195.65 71.41 Q 195.70 69.84 196.51 68.36 Q 197.14 67.19 197.44 65.76 Q 198.51 60.78 198.11 58.50 Q 197.34 54.15 196.32 56.98" vector-effect="non-scaling-stroke"/><path stroke="#bbbed0" d="M 196.32 56.98 Q 196.37 51.06 196.24 45.00 Q 196.19 42.73 193.94 35.58" vector-effect="non-scaling-stroke"/><path stroke="#d98686" d="M 196.32 56.98 C 196.15 65.82 192.23 75.98 183.62 79.60 Q 179.68 81.26 173.20 81.10 Q 164.83 80.89 157.39 79.27 A 1.99 1.97 -3.2 0 1 155.94 77.98 C 155.00 75.23 155.43 72.97 155.39 70.22 Q 155.18 52.12 155.17 34.06" vector-effect="non-scaling-stroke"/><path stroke="#964255" d="M 154.04 34.56 L 154.14 39.97 Q 154.14 40.46 154.38 40.89 Q 154.94 41.90 154.66 43.02 Q 154.01 45.65 154.13 47.75 Q 154.52 54.81 153.54 61.58" vector-effect="non-scaling-stroke"/><path stroke="#9e6172" d="M 153.54 61.58 Q 151.19 64.27 149.41 62.14 Q 147.71 60.09 145.99 59.06 C 145.05 58.50 144.38 58.80 143.55 57.92 Q 142.45 56.77 142.15 55.44 Q 141.99 54.76 141.60 55.33 Q 141.42 55.58 141.31 55.96" vector-effect="non-scaling-stroke"/><path stroke="#c44b3a" d="M 230.44 132.28 Q 230.39 132.41 230.37 132.57 Q 230.33 133.02 229.90 132.91 Q 229.76 132.88 229.63 132.86 Q 229.21 132.80 228.94 132.48 Q 224.47 127.38 220.76 122.02 Q 218.76 119.12 216.07 116.32 Q 213.03 113.16 210.18 108.90 Q 208.10 105.78 204.83 102.43 Q 201.17 98.68 197.79 93.97 Q 196.11 91.61 194.22 89.73 C 192.70 88.22 189.62 85.70 188.91 83.81 Q 188.56 82.86 189.11 81.89 Q 190.02 80.30 188.30 80.93 L 180.68 83.74 A 0.87 0.86 -32.1 0 0 180.35 85.15 Q 182.44 87.31 183.86 90.16 Q 185.71 93.86 186.87 95.39 Q 190.21 99.79 193.17 104.33 C 195.79 108.35 198.58 111.65 201.53 115.21 A 0.78 0.78 0.0 0 1 201.26 116.41 Q 201.22 116.43 200.71 116.47" vector-effect="non-scaling-stroke"/><path stroke="#bc2b2b" d="M 164.47 86.14 L 160.10 85.96 Q 159.94 85.95 159.83 85.83 Q 156.05 81.59 153.84 77.51 Q 152.61 75.23 152.57 72.29 Q 152.52 67.07 153.54 61.58" vector-effect="non-scaling-stroke"/><path stroke="#cc6a58" d="M 155.39 113.97 L 155.08 114.97 Q 154.98 115.30 154.65 115.39 Q 154.50 115.43 154.39 115.33 Q 154.02 115.01 154.00 114.51 Q 153.67 108.36 153.22 102.23 Q 153.18 101.70 152.91 101.24 L 151.63 99.03 Q 151.37 98.57 150.84 98.54 Q 148.01 98.36 143.97 98.99 Q 142.72 99.19 142.33 100.38 A 0.04 0.04 0.0 0 1 142.25 100.37 Q 142.15 100.00 142.07 100.14 Q 141.61 100.94 141.36 100.05 Q 141.11 99.17 141.14 98.27" vector-effect="non-scaling-stroke"/><path stroke="#e3a469" d="M 240.22 139.66 L 237.43 139.47 Q 237.31 139.46 237.24 139.37 Q 237.10 139.21 237.20 139.11 Q 237.74 138.59 237.01 138.72 Q 234.88 139.09 232.45 138.28 Q 231.90 138.09 231.32 138.12 L 223.14 138.44 Q 222.80 138.45 222.49 138.34 Q 221.71 138.05 220.98 138.81 Q 220.62 139.18 220.76 139.67 L 221.70 142.86" vector-effect="non-scaling-stroke"/><path stroke="#cb7461" d="M 257.97 114.97 Q 257.47 113.79 256.71 112.81 Q 255.95 111.83 254.68 111.55 Q 252.87 111.15 250.49 111.08 Q 246.74 110.96 246.50 114.21" vector-effect="non-scaling-stroke"/><path stroke="#b83932" d="M 292.24 55.81 Q 288.66 65.77 280.28 70.01 A 0.89 0.89 0.0 0 0 280.36 71.63 Q 285.05 73.45 288.57 76.36 Q 291.40 78.71 294.26 81.59 Q 294.95 82.29 295.21 83.22 Q 295.35 83.73 295.71 84.12 Q 300.45 89.28 302.05 94.82 C 303.82 100.92 305.56 107.55 304.51 113.88 Q 303.81 118.11 302.54 121.76 Q 302.10 123.04 301.39 124.24 Q 299.48 127.42 299.01 125.74" vector-effect="non-scaling-stroke"/><path stroke="#d28687" d="M 299.01 125.74 Q 303.89 118.36 303.32 109.98 C 302.44 97.14 298.38 87.19 287.75 78.83 C 282.65 74.81 276.07 73.02 269.71 72.96 Q 265.14 72.91 260.70 72.47 A 1.33 1.32 -86.6 0 0 259.24 73.77 Q 258.81 98.12 259.23 122.25 Q 259.27 124.50 260.23 127.47" vector-effect="non-scaling-stroke"/><path stroke="#bd4c3b" d="M 260.23 127.47 Q 260.19 128.25 259.45 127.72 A 0.65 0.64 14.9 0 1 259.18 127.26 L 257.97 114.97" vector-effect="non-scaling-stroke"/><path stroke="#b43534" d="M 257.97 114.97 Q 257.80 106.71 257.52 98.47 Q 257.34 93.09 256.60 87.09 Q 255.86 81.15 256.46 74.84 Q 256.51 74.37 256.79 73.99 C 257.98 72.38 259.98 69.62 258.38 67.74 Q 257.32 66.48 257.40 64.76 Q 257.85 55.94 257.53 47.36" vector-effect="non-scaling-stroke"/><path stroke="#eac5b3" d="M 276.57 134.88 Q 268.02 134.27 262.50 130.45 Q 261.81 129.98 260.23 127.47" vector-effect="non-scaling-stroke"/><path stroke="#b43534" d="M 248.36 45.54 Q 248.28 47.22 248.39 48.65 Q 248.42 49.09 248.10 48.79 Q 247.97 48.67 247.75 48.74 Q 247.37 48.87 247.28 49.27 Q 246.97 50.61 247.02 51.95 Q 247.24 59.31 247.33 66.53 Q 247.38 70.51 247.85 74.41 Q 248.48 79.54 248.24 82.50 Q 246.95 98.32 246.50 114.21" vector-effect="non-scaling-stroke"/><path stroke="#bd4c3b" d="M 246.50 114.21 L 245.95 122.29 Q 245.95 122.38 245.86 122.38 L 245.60 122.40 Q 245.38 122.40 245.37 122.18 L 245.28 118.44" vector-effect="non-scaling-stroke"/><path stroke="#cf775f" d="M 275.58 139.98 L 273.58 135.93 Q 273.34 135.46 273.83 135.24 Q 274.79 134.82 276.57 134.88" vector-effect="non-scaling-stroke"/><path stroke="#e5b2ab" d="M 276.57 134.88 Q 290.14 136.29 299.01 125.74" vector-effect="non-scaling-stroke"/><path stroke="#8b4058" d="M 257.28 32.85 L 257.53 47.36" vector-effect="non-scaling-stroke"/><path stroke="#99687e" d="M 257.53 47.36 Q 256.77 46.85 256.88 45.50 Q 256.92 44.97 256.40 44.98 Q 255.59 44.98 255.40 45.72 Q 255.31 46.04 255.20 45.72 Q 254.89 44.78 254.90 43.88 Q 254.91 42.89 254.40 43.74 Q 254.25 43.98 254.22 44.25 Q 254.19 44.70 254.09 44.26 Q 254.04 44.04 253.85 43.93 Q 253.71 43.86 253.59 43.97 Q 253.54 44.01 253.48 44.04 Q 253.25 44.15 252.97 44.09 Q 251.05 43.66 249.15 44.15 Q 248.61 44.29 248.79 44.82 Q 249.19 46.01 248.36 45.54" vector-effect="non-scaling-stroke"/><path stroke="#8b4058" d="M 248.36 45.54 Q 246.71 43.66 246.77 39.50 Q 246.77 39.31 246.60 39.32 Q 246.39 39.33 246.37 39.54 L 245.84 44.81" vector-effect="non-scaling-stroke"/><path stroke="#8a475c" d="M 304.87 41.08 Q 304.45 39.80 304.63 38.39 Q 304.64 38.37 304.61 38.37 Q 304.52 38.35 304.68 38.39 Q 304.70 38.39 304.70 38.43 Q 303.59 49.45 296.83 56.23" vector-effect="non-scaling-stroke"/><path stroke="#9d7280" d="M 296.83 56.23 L 293.37 58.85 Q 292.92 59.19 292.81 58.64 L 292.24 55.81" vector-effect="non-scaling-stroke"/><path stroke="#8a475c" d="M 292.24 55.81 Q 293.89 52.64 292.71 47.22" vector-effect="non-scaling-stroke"/><path stroke="#3a81bc" d="M 302.14 28.65 Q 301.71 29.18 301.18 29.33 A 0.72 0.72 0.0 0 1 300.39 29.04 Q 297.11 24.10 291.48 20.84 Q 290.37 20.20 289.05 20.02 Q 287.63 19.84 286.25 19.88 A 2.39 2.38 70.4 0 0 284.43 23.72 Q 286.79 26.79 288.59 29.86 Q 290.60 33.27 292.19 39.64 Q 292.62 41.36 292.61 43.40 Q 292.60 45.36 292.71 47.22" vector-effect="non-scaling-stroke"/><path stroke="#55476e" d="M 292.71 47.22 Q 292.98 49.23 291.73 49.54" vector-effect="non-scaling-stroke"/><path stroke="#82c0e6" d="M 291.73 49.54 C 292.29 39.79 288.93 28.23 281.20 22.55 C 275.58 18.42 267.49 18.51 260.61 19.89 A 1.98 1.98 0.0 0 0 259.02 21.78 L 258.69 32.31" vector-effect="non-scaling-stroke"/><path stroke="#55476e" d="M 258.69 32.31 Q 258.52 32.25 258.39 31.99 Q 258.23 31.67 258.00 31.95 L 257.28 32.85" vector-effect="non-scaling-stroke"/><path stroke="#3b7ab7" d="M 257.28 32.85 Q 256.76 27.61 256.59 22.29 C 256.55 21.13 257.05 20.38 257.10 19.31 Q 257.12 18.72 256.53 18.73 L 247.40 18.93 A 0.54 0.53 -3.5 0 0 246.88 19.51 Q 246.96 20.43 247.45 21.26 A 1.61 1.53 -57.5 0 1 247.65 22.29 Q 247.25 25.25 247.61 28.05 C 247.89 30.17 247.44 31.92 247.36 33.96 Q 247.34 34.41 246.94 34.59 Q 246.14 34.96 245.72 34.20" vector-effect="non-scaling-stroke"/><path stroke="#d28687" d="M 291.73 49.54 Q 290.68 56.90 286.02 63.04 Q 284.03 65.67 282.09 66.58 Q 279.57 67.77 276.73 67.89 Q 268.35 68.22 259.58 67.43 A 0.55 0.54 -87.6 0 1 259.10 66.90 L 258.69 32.31" vector-effect="non-scaling-stroke"/><path stroke="#b83932" d="M 313.36 120.81 Q 312.92 118.28 314.31 115.68 Q 315.48 113.47 315.68 112.04 Q 316.81 103.59 315.16 97.34 Q 312.13 85.93 302.45 78.64 Q 297.41 74.85 290.43 72.02 Q 288.96 71.42 288.29 70.07 Q 287.21 67.88 288.52 66.08 Q 288.85 65.64 289.38 65.49 C 290.40 65.21 290.78 64.98 291.36 64.06 Q 293.79 60.20 296.83 56.23" vector-effect="non-scaling-stroke"/><path stroke="#b7c0d5" d="M 331.48 30.16 L 331.75 50.79" vector-effect="non-scaling-stroke"/><path stroke="#d28687" d="M 331.75 50.79 L 331.56 101.20" vector-effect="non-scaling-stroke"/><path stroke="#e1aead" d="M 331.56 101.20 L 330.60 129.27" vector-effect="non-scaling-stroke"/><path stroke="#f5d9b5" d="M 330.60 129.27 Q 329.59 131.74 328.31 134.09 C 326.66 137.13 322.81 136.84 319.88 137.22 Q 318.69 137.37 318.57 138.51 A 1.13 1.12 -82.9 0 0 319.53 139.75 C 323.91 140.37 328.37 139.70 332.80 139.77 Q 346.88 140.01 361.25 139.78 A 1.15 1.09 26.1 0 0 361.83 139.60 Q 362.85 138.96 362.70 138.39 A 1.93 1.85 -6.4 0 0 360.91 137.02 Q 356.67 136.92 352.80 136.11 Q 348.82 135.27 348.02 131.51 Q 347.14 127.41 346.29 120.26" vector-effect="non-scaling-stroke"/><path stroke="#e1aead" d="M 346.29 120.26 C 345.27 106.23 345.86 92.07 346.06 77.99 C 346.27 64.21 345.80 50.15 345.63 36.21" vector-effect="non-scaling-stroke"/><path stroke="#82c0e6" d="M 345.63 36.21 Q 345.73 30.19 346.40 24.23 C 346.76 21.03 348.25 17.13 352.10 17.00 Q 354.49 16.92 356.51 16.96 Q 357.48 16.99 357.58 16.03 L 357.79 14.04 Q 357.91 12.93 356.79 12.95 Q 351.35 13.08 345.96 13.68 Q 339.15 14.44 319.59 12.96 Q 318.64 12.89 318.71 13.83 L 318.82 15.40 Q 318.88 16.30 319.77 16.49 Q 321.97 16.96 324.40 17.05 C 331.27 17.32 331.19 25.42 331.48 30.16" vector-effect="non-scaling-stroke"/><path stroke="#646f94" d="M 345.63 36.21 Q 345.60 36.25 345.57 36.29" vector-effect="non-scaling-stroke"/><path stroke="#3a81bc" d="M 345.57 36.29 Q 345.69 35.38 345.58 34.49 Q 345.47 33.60 345.03 34.38 Q 344.95 34.51 344.83 34.61 Q 344.11 35.19 344.11 34.27 C 344.11 31.87 343.97 29.60 344.59 27.24 Q 345.51 23.72 344.84 20.46 A 1.98 1.96 85.6 0 0 343.02 18.89 Q 338.71 18.67 334.62 19.31 A 1.79 1.79 0.0 0 0 333.12 21.27 Q 333.61 26.08 332.42 31.42 Q 332.26 32.13 331.99 31.45 L 331.48 30.16" vector-effect="non-scaling-stroke"/><path stroke="#996f82" d="M 345.57 36.29 L 345.51 46.91 Q 345.51 47.56 344.88 47.39 Q 344.74 47.35 344.60 47.39 Q 344.25 47.48 344.36 47.14 Q 344.38 47.09 344.36 47.04 Q 344.16 46.47 344.08 47.07 Q 343.89 48.54 343.74 49.85 Q 343.72 50.04 343.57 49.93 Q 343.46 49.84 343.40 49.73 Q 343.26 49.45 343.27 49.46 Q 343.70 51.81 342.72 54.30 A 1.06 1.05 21.8 0 1 341.34 54.89 L 332.91 51.43" vector-effect="non-scaling-stroke"/><path stroke="#8a475c" d="M 332.91 51.43 Q 332.84 48.04 332.90 44.37 Q 332.92 44.37 332.88 44.37 Q 332.82 44.37 332.82 44.43 Q 332.90 47.29 332.79 50.27 Q 332.77 50.83 332.21 50.81 L 331.75 50.79" vector-effect="non-scaling-stroke"/><path stroke="#d68862" d="M 346.29 120.26 L 346.17 120.79 Q 345.88 122.06 345.14 120.98 Q 343.77 118.94 343.82 116.66 Q 343.83 116.54 343.73 116.47 Q 343.60 116.38 343.45 116.38 Q 343.09 116.39 343.14 116.02 Q 343.44 113.97 341.74 113.22 Q 341.25 113.00 340.91 113.43 Q 340.53 113.91 339.88 113.73 Q 339.36 113.58 338.84 113.75 L 332.95 115.72 Q 332.39 115.91 332.39 116.50 Q 332.46 121.38 332.15 126.60 Q 332.10 127.39 331.81 128.12 Q 330.72 130.86 330.60 129.27" vector-effect="non-scaling-stroke"/><path stroke="#b43534" d="M 331.56 101.20 Q 331.77 101.21 331.84 101.36 Q 331.92 101.52 332.08 101.61 Q 332.24 101.70 332.39 101.60 Q 332.71 101.41 332.74 101.04 C 333.16 95.59 334.04 90.14 333.86 84.61 C 333.60 76.62 332.88 68.97 332.87 61.14 Q 332.87 56.34 332.91 51.43" vector-effect="non-scaling-stroke"/></g><path fill="#0581cd" d="M 131.47 50.01 Q 128.18 44.28 125.23 40.51 Q 117.25 30.29 105.17 24.70 Q 103.02 23.70 100.98 22.51 Q 99.01 21.37 96.68 21.12 Q 94.50 20.89 92.31 20.47 Q 86.88 19.41 82.03 18.62 Q 81.40 18.51 81.20 19.09 Q 81.02 19.63 81.56 19.81 L 82.53 20.13 Q 83.01 20.28 83.20 20.74 Q 83.47 21.41 84.22 21.39 A 1.02 0.99 59.1 0 1 84.78 21.54 Q 94.82 27.46 101.37 32.89 Q 108.44 38.75 113.65 47.49 Q 113.17 47.94 112.40 47.93 Q 100.43 28.78 78.15 22.73 Q 68.26 20.04 56.50 20.04 Q 44.91 20.03 38.39 20.44 Q 37.19 18.17 35.99 18.09 Q 32.28 17.86 28.54 17.71 Q 28.05 17.69 27.74 17.32 Q 27.51 17.04 27.25 16.99 Q 22.45 15.98 20.00 19.13 C 17.33 16.57 12.69 16.69 9.42 17.10 A 0.67 0.67 0.0 0 1 8.67 16.44 L 8.65 13.33 Q 8.65 12.69 9.28 12.75 Q 23.48 14.06 29.75 14.00 Q 48.11 13.81 66.47 13.76 C 73.29 13.74 79.82 14.51 86.47 15.54 Q 90.10 16.10 96.72 18.22 Q 115.02 24.10 126.43 40.31 Q 129.71 44.98 131.47 50.01 Z"/><path fill="#0581cd" d="M 207.81 30.50 Q 207.23 31.51 206.77 31.35 Q 201.22 23.54 192.81 19.84 Q 191.00 19.05 189.10 18.87 Q 187.27 18.70 185.45 18.31 A 1.07 1.05 23.2 0 0 184.35 18.74 Q 183.69 19.69 183.82 20.91 Q 183.87 21.38 184.27 21.64 Q 192.20 26.76 193.94 35.58 Q 189.05 25.63 179.93 21.56 Q 176.85 20.19 173.45 20.05 Q 165.33 19.73 156.76 20.25 A 1.66 1.65 -1.8 0 0 155.21 21.90 L 155.17 34.06 Q 154.42 34.01 154.04 34.56 Q 153.51 32.11 153.39 29.67 Q 153.27 27.13 152.67 25.29 Q 152.01 23.27 152.11 21.05 Q 152.12 20.72 152.30 20.47 Q 152.55 20.12 152.89 19.93 A 0.04 0.04 0.0 0 0 152.89 19.85 Q 152.72 19.78 152.61 19.63 A 0.66 0.64 70.0 0 0 152.05 19.36 Q 148.29 19.53 144.59 18.60 Q 142.98 18.20 143.23 19.83 Q 143.87 24.00 141.33 27.61 C 140.74 23.45 141.56 20.46 137.16 18.03 C 134.63 16.64 131.58 16.95 128.79 16.65 Q 127.06 16.46 127.01 14.72 L 127.00 14.32 A 1.36 1.36 0.0 0 1 128.43 12.93 C 135.74 13.30 142.70 14.03 150.20 13.93 Q 160.27 13.80 170.26 13.65 Q 179.83 13.50 188.70 15.89 Q 201.24 19.27 207.81 30.50 Z"/><path fill="#0581cd" d="M 302.14 28.65 Q 301.71 29.18 301.18 29.33 A 0.72 0.72 0.0 0 1 300.39 29.04 Q 297.11 24.10 291.48 20.84 Q 290.37 20.20 289.05 20.02 Q 287.63 19.84 286.25 19.88 A 2.39 2.38 70.4 0 0 284.43 23.72 Q 286.79 26.79 288.59 29.86 Q 290.60 33.27 292.19 39.64 Q 292.62 41.36 292.61 43.40 Q 292.60 45.36 292.71 47.22 Q 292.98 49.23 291.73 49.54 C 292.29 39.79 288.93 28.23 281.20 22.55 C 275.58 18.42 267.49 18.51 260.61 19.89 A 1.98 1.98 0.0 0 0 259.02 21.78 L 258.69 32.31 Q 258.52 32.25 258.39 31.99 Q 258.23 31.67 258.00 31.95 L 257.28 32.85 Q 256.76 27.61 256.59 22.29 C 256.55 21.13 257.05 20.38 257.10 19.31 Q 257.12 18.72 256.53 18.73 L 247.40 18.93 A 0.54 0.53 -3.5 0 0 246.88 19.51 Q 246.96 20.43 247.45 21.26 A 1.61 1.53 -57.5 0 1 247.65 22.29 Q 247.25 25.25 247.61 28.05 C 247.89 30.17 247.44 31.92 247.36 33.96 Q 247.34 34.41 246.94 34.59 Q 246.14 34.96 245.72 34.20 Q 245.40 29.60 244.96 24.95 C 244.66 21.77 243.78 19.76 241.09 18.05 C 238.70 16.53 235.03 16.95 232.21 16.54 Q 230.65 16.32 230.53 14.74 L 230.50 14.37 A 1.27 1.27 0.0 0 1 231.84 13.01 C 243.92 13.76 255.34 14.25 268.25 13.55 C 281.20 12.84 295.59 16.37 302.14 28.65 Z"/><path fill="#0581cd" d="M 345.63 36.21 Q 345.60 36.25 345.57 36.29 Q 345.69 35.38 345.58 34.49 Q 345.47 33.60 345.03 34.38 Q 344.95 34.51 344.83 34.61 Q 344.11 35.19 344.11 34.27 C 344.11 31.87 343.97 29.60 344.59 27.24 Q 345.51 23.72 344.84 20.46 A 1.98 1.96 85.6 0 0 343.02 18.89 Q 338.71 18.67 334.62 19.31 A 1.79 1.79 0.0 0 0 333.12 21.27 Q 333.61 26.08 332.42 31.42 Q 332.26 32.13 331.99 31.45 L 331.48 30.16 C 331.19 25.42 331.27 17.32 324.40 17.05 Q 321.97 16.96 319.77 16.49 Q 318.88 16.30 318.82 15.40 L 318.71 13.83 Q 318.64 12.89 319.59 12.96 Q 339.15 14.44 345.96 13.68 Q 351.35 13.08 356.79 12.95 Q 357.91 12.93 357.79 14.04 L 357.58 16.03 Q 357.48 16.99 356.51 16.96 Q 354.49 16.92 352.10 17.00 C 348.25 17.13 346.76 21.03 346.40 24.23 Q 345.73 30.19 345.63 36.21 Z"/><path fill="#767da0" d="M 38.39 20.44 L 37.79 64.04 Q 32.77 62.06 26.78 61.62 Q 26.14 61.57 25.52 61.75 Q 24.49 62.03 24.41 61.00 Q 24.29 59.24 24.43 57.50 Q 24.48 56.82 23.83 56.64 Q 23.59 56.57 23.55 56.32 Q 23.44 55.54 22.96 56.14 L 22.70 56.48 Q 23.02 38.58 21.99 25.00 Q 21.78 22.23 20.00 19.13 Q 22.45 15.98 27.25 16.99 Q 27.51 17.04 27.74 17.32 Q 28.05 17.69 28.54 17.71 Q 32.28 17.86 35.99 18.09 Q 37.19 18.17 38.39 20.44 Z"/><path fill="#767da0" d="M 206.77 31.35 C 207.80 32.76 208.83 34.36 209.16 36.10 Q 209.57 38.27 210.02 40.41 Q 210.46 42.52 210.36 44.70 Q 210.18 48.85 209.05 53.23 Q 208.25 56.30 206.20 59.20 Q 204.09 62.20 202.35 65.18 C 200.84 67.77 198.62 69.49 196.80 71.83 Q 195.58 73.39 195.65 71.41 Q 195.70 69.84 196.51 68.36 Q 197.14 67.19 197.44 65.76 Q 198.51 60.78 198.11 58.50 Q 197.34 54.15 196.32 56.98 Q 196.37 51.06 196.24 45.00 Q 196.19 42.73 193.94 35.58 Q 192.20 26.76 184.27 21.64 Q 183.87 21.38 183.82 20.91 Q 183.69 19.69 184.35 18.74 A 1.07 1.05 23.2 0 1 185.45 18.31 Q 187.27 18.70 189.10 18.87 Q 191.00 19.05 192.81 19.84 Q 201.22 23.54 206.77 31.35 Z"/><path fill="#827a97" d="M 131.47 50.01 Q 135.44 57.26 135.99 66.71 Q 135.34 64.61 134.17 67.95 Q 133.26 71.07 130.27 69.61 Q 128.37 68.68 126.32 68.21 Q 125.19 67.96 124.28 67.51 Q 123.29 67.03 122.22 66.62 Q 121.79 66.45 121.69 66.00 Q 120.89 62.20 119.09 58.56 C 118.04 56.44 117.65 54.32 116.31 52.25 Q 114.83 49.95 113.65 47.49 Q 108.44 38.75 101.37 32.89 Q 94.82 27.46 84.78 21.54 A 1.02 0.99 59.1 0 0 84.22 21.39 Q 83.47 21.41 83.20 20.74 Q 83.01 20.28 82.53 20.13 L 81.56 19.81 Q 81.02 19.63 81.20 19.09 Q 81.40 18.51 82.03 18.62 Q 86.88 19.41 92.31 20.47 Q 94.50 20.89 96.68 21.12 Q 99.01 21.37 100.98 22.51 Q 103.02 23.70 105.17 24.70 Q 117.25 30.29 125.23 40.51 Q 128.18 44.28 131.47 50.01 Z"/><path fill="#78789c" d="M 154.04 34.56 L 154.14 39.97 Q 154.14 40.46 154.38 40.89 Q 154.94 41.90 154.66 43.02 Q 154.01 45.65 154.13 47.75 Q 154.52 54.81 153.54 61.58 Q 151.19 64.27 149.41 62.14 Q 147.71 60.09 145.99 59.06 C 145.05 58.50 144.38 58.80 143.55 57.92 Q 142.45 56.77 142.15 55.44 Q 141.99 54.76 141.60 55.33 Q 141.42 55.58 141.31 55.96 L 141.33 27.61 Q 143.87 24.00 143.23 19.83 Q 142.98 18.20 144.59 18.60 Q 148.29 19.53 152.05 19.36 A 0.66 0.64 70.0 0 1 152.61 19.63 Q 152.72 19.78 152.89 19.85 A 0.04 0.04 0.0 0 1 152.89 19.93 Q 152.55 20.12 152.30 20.47 Q 152.12 20.72 152.11 21.05 Q 152.01 23.27 152.67 25.29 Q 153.27 27.13 153.39 29.67 Q 153.51 32.11 154.04 34.56 Z"/><path fill="#7073a1" d="M 257.28 32.85 L 257.53 47.36 Q 256.77 46.85 256.88 45.50 Q 256.92 44.97 256.40 44.98 Q 255.59 44.98 255.40 45.72 Q 255.31 46.04 255.20 45.72 Q 254.89 44.78 254.90 43.88 Q 254.91 42.89 254.40 43.74 Q 254.25 43.98 254.22 44.25 Q 254.19 44.70 254.09 44.26 Q 254.04 44.04 253.85 43.93 Q 253.71 43.86 253.59 43.97 Q 253.54 44.01 253.48 44.04 Q 253.25 44.15 252.97 44.09 Q 251.05 43.66 249.15 44.15 Q 248.61 44.29 248.79 44.82 Q 249.19 46.01 248.36 45.54 Q 246.71 43.66 246.77 39.50 Q 246.77 39.31 246.60 39.32 Q 246.39 39.33 246.37 39.54 L 245.84 44.81 L 245.72 34.20 Q 246.14 34.96 246.94 34.59 Q 247.34 34.41 247.36 33.96 C 247.44 31.92 247.89 30.17 247.61 28.05 Q 247.25 25.25 247.65 22.29 A 1.61 1.53 -57.5 0 0 247.45 21.26 Q 246.96 20.43 246.88 19.51 A 0.54 0.53 -3.5 0 1 247.40 18.93 L 256.53 18.73 Q 257.12 18.72 257.10 19.31 C 257.05 20.38 256.55 21.13 256.59 22.29 Q 256.76 27.61 257.28 32.85 Z"/><path fill="#6f80aa" d="M 345.57 36.29 L 345.51 46.91 Q 345.51 47.56 344.88 47.39 Q 344.74 47.35 344.60 47.39 Q 344.25 47.48 344.36 47.14 Q 344.38 47.09 344.36 47.04 Q 344.16 46.47 344.08 47.07 Q 343.89 48.54 343.74 49.85 Q 343.72 50.04 343.57 49.93 Q 343.46 49.84 343.40 49.73 Q 343.26 49.45 343.27 49.46 Q 343.70 51.81 342.72 54.30 A 1.06 1.05 21.8 0 1 341.34 54.89 L 332.91 51.43 Q 332.84 48.04 332.90 44.37 Q 332.92 44.37 332.88 44.37 Q 332.82 44.37 332.82 44.43 Q 332.90 47.29 332.79 50.27 Q 332.77 50.83 332.21 50.81 L 331.75 50.79 L 331.48 30.16 L 331.99 31.45 Q 332.26 32.13 332.42 31.42 Q 333.61 26.08 333.12 21.27 A 1.79 1.79 0.0 0 1 334.62 19.31 Q 338.71 18.67 343.02 18.89 A 1.98 1.96 85.6 0 1 344.84 20.46 Q 345.51 23.72 344.59 27.24 C 343.97 29.60 344.11 31.87 344.11 34.27 Q 344.11 35.19 344.83 34.61 Q 344.95 34.51 345.03 34.38 Q 345.47 33.60 345.58 34.49 Q 345.69 35.38 345.57 36.29 Z"/><path fill="#6f80aa" d="M 302.14 28.65 Q 305.58 34.62 304.87 41.08 Q 304.45 39.80 304.63 38.39 Q 304.64 38.37 304.61 38.37 Q 304.52 38.35 304.68 38.39 Q 304.70 38.39 304.70 38.43 Q 303.59 49.45 296.83 56.23 L 293.37 58.85 Q 292.92 59.19 292.81 58.64 L 292.24 55.81 Q 293.89 52.64 292.71 47.22 Q 292.60 45.36 292.61 43.40 Q 292.62 41.36 292.19 39.64 Q 290.60 33.27 288.59 29.86 Q 286.79 26.79 284.43 23.72 A 2.39 2.38 70.4 0 1 286.25 19.88 Q 287.63 19.84 289.05 20.02 Q 290.37 20.20 291.48 20.84 Q 297.11 24.10 300.39 29.04 A 0.72 0.72 0.0 0 0 301.18 29.33 Q 301.71 29.18 302.14 28.65 Z"/><path fill="#b30c0d" d="M 207.81 30.50 C 213.38 40.23 211.35 53.89 206.22 63.31 Q 200.60 73.61 192.21 80.83 A 2.32 2.32 0.0 0 0 191.99 84.13 C 194.40 86.81 196.97 89.50 199.07 92.51 C 202.75 97.77 206.93 102.52 210.84 107.65 C 214.93 113.03 219.33 118.27 223.35 123.50 Q 226.79 127.99 230.44 132.28 Q 230.39 132.41 230.37 132.57 Q 230.33 133.02 229.90 132.91 Q 229.76 132.88 229.63 132.86 Q 229.21 132.80 228.94 132.48 Q 224.47 127.38 220.76 122.02 Q 218.76 119.12 216.07 116.32 Q 213.03 113.16 210.18 108.90 Q 208.10 105.78 204.83 102.43 Q 201.17 98.68 197.79 93.97 Q 196.11 91.61 194.22 89.73 C 192.70 88.22 189.62 85.70 188.91 83.81 Q 188.56 82.86 189.11 81.89 Q 190.02 80.30 188.30 80.93 L 180.68 83.74 A 0.87 0.86 -32.1 0 0 180.35 85.15 Q 182.44 87.31 183.86 90.16 Q 185.71 93.86 186.87 95.39 Q 190.21 99.79 193.17 104.33 C 195.79 108.35 198.58 111.65 201.53 115.21 A 0.78 0.78 0.0 0 1 201.26 116.41 Q 201.22 116.43 200.71 116.47 Q 190.19 102.95 180.38 88.87 Q 178.96 86.83 175.63 86.84 Q 170.03 86.86 164.47 86.14 L 160.10 85.96 Q 159.94 85.95 159.83 85.83 Q 156.05 81.59 153.84 77.51 Q 152.61 75.23 152.57 72.29 Q 152.52 67.07 153.54 61.58 Q 154.52 54.81 154.13 47.75 Q 154.01 45.65 154.66 43.02 Q 154.94 41.90 154.38 40.89 Q 154.14 40.46 154.14 39.97 L 154.04 34.56 Q 154.42 34.01 155.17 34.06 Q 155.18 52.12 155.39 70.22 C 155.43 72.97 155.00 75.23 155.94 77.98 A 1.99 1.97 -3.2 0 0 157.39 79.27 Q 164.83 80.89 173.20 81.10 Q 179.68 81.26 183.62 79.60 C 192.23 75.98 196.15 65.82 196.32 56.98 Q 197.34 54.15 198.11 58.50 Q 198.51 60.78 197.44 65.76 Q 197.14 67.19 196.51 68.36 Q 195.70 69.84 195.65 71.41 Q 195.58 73.39 196.80 71.83 C 198.62 69.49 200.84 67.77 202.35 65.18 Q 204.09 62.20 206.20 59.20 Q 208.25 56.30 209.05 53.23 Q 210.18 48.85 210.36 44.70 Q 210.46 42.52 210.02 40.41 Q 209.57 38.27 209.16 36.10 C 208.83 34.36 207.80 32.76 206.77 31.35 Q 207.23 31.51 207.81 30.50 Z"/><path fill="#a50d0e" d="M 258.69 32.31 L 259.10 66.90 A 0.55 0.54 -87.6 0 0 259.58 67.43 Q 268.35 68.22 276.73 67.89 Q 279.57 67.77 282.09 66.58 Q 284.03 65.67 286.02 63.04 Q 290.68 56.90 291.73 49.54 Q 292.98 49.23 292.71 47.22 Q 293.89 52.64 292.24 55.81 Q 288.66 65.77 280.28 70.01 A 0.89 0.89 0.0 0 0 280.36 71.63 Q 285.05 73.45 288.57 76.36 Q 291.40 78.71 294.26 81.59 Q 294.95 82.29 295.21 83.22 Q 295.35 83.73 295.71 84.12 Q 300.45 89.28 302.05 94.82 C 303.82 100.92 305.56 107.55 304.51 113.88 Q 303.81 118.11 302.54 121.76 Q 302.10 123.04 301.39 124.24 Q 299.48 127.42 299.01 125.74 Q 303.89 118.36 303.32 109.98 C 302.44 97.14 298.38 87.19 287.75 78.83 C 282.65 74.81 276.07 73.02 269.71 72.96 Q 265.14 72.91 260.70 72.47 A 1.33 1.32 -86.6 0 0 259.24 73.77 Q 258.81 98.12 259.23 122.25 Q 259.27 124.50 260.23 127.47 Q 260.19 128.25 259.45 127.72 A 0.65 0.64 14.9 0 1 259.18 127.26 L 257.97 114.97 Q 257.80 106.71 257.52 98.47 Q 257.34 93.09 256.60 87.09 Q 255.86 81.15 256.46 74.84 Q 256.51 74.37 256.79 73.99 C 257.98 72.38 259.98 69.62 258.38 67.74 Q 257.32 66.48 257.40 64.76 Q 257.85 55.94 257.53 47.36 L 257.28 32.85 L 258.00 31.95 Q 258.23 31.67 258.39 31.99 Q 258.52 32.25 258.69 32.31 Z"/><path fill="#c25d5a" d="M 345.57 36.29 Q 345.60 36.25 345.63 36.21 C 345.80 50.15 346.27 64.21 346.06 77.99 C 345.86 92.07 345.27 106.23 346.29 120.26 L 346.17 120.79 Q 345.88 122.06 345.14 120.98 Q 343.77 118.94 343.82 116.66 Q 343.83 116.54 343.73 116.47 Q 343.60 116.38 343.45 116.38 Q 343.09 116.39 343.14 116.02 Q 343.44 113.97 341.74 113.22 Q 341.25 113.00 340.91 113.43 Q 340.53 113.91 339.88 113.73 Q 339.36 113.58 338.84 113.75 L 332.95 115.72 Q 332.39 115.91 332.39 116.50 Q 332.46 121.38 332.15 126.60 Q 332.10 127.39 331.81 128.12 Q 330.72 130.86 330.60 129.27 L 331.56 101.20 Q 331.77 101.21 331.84 101.36 Q 331.92 101.52 332.08 101.61 Q 332.24 101.70 332.39 101.60 Q 332.71 101.41 332.74 101.04 C 333.16 95.59 334.04 90.14 333.86 84.61 C 333.60 76.62 332.88 68.97 332.87 61.14 Q 332.87 56.34 332.91 51.43 L 341.34 54.89 A 1.06 1.05 21.8 0 0 342.72 54.30 Q 343.70 51.81 343.27 49.46 Q 343.26 49.45 343.40 49.73 Q 343.46 49.84 343.57 49.93 Q 343.72 50.04 343.74 49.85 Q 343.89 48.54 344.08 47.07 Q 344.16 46.47 344.36 47.04 Q 344.38 47.09 344.36 47.14 Q 344.25 47.48 344.60 47.39 Q 344.74 47.35 344.88 47.39 Q 345.51 47.56 345.51 46.91 L 345.57 36.29 Z"/><path fill="#a50d0e" d="M 304.87 41.08 Q 303.58 51.61 297.04 60.05 Q 293.68 64.38 289.73 67.87 A 0.95 0.94 32.3 0 0 290.10 69.49 Q 302.16 72.98 310.50 83.15 Q 317.34 91.48 317.61 103.51 Q 317.82 112.87 313.36 120.81 Q 312.92 118.28 314.31 115.68 Q 315.48 113.47 315.68 112.04 Q 316.81 103.59 315.16 97.34 Q 312.13 85.93 302.45 78.64 Q 297.41 74.85 290.43 72.02 Q 288.96 71.42 288.29 70.07 Q 287.21 67.88 288.52 66.08 Q 288.85 65.64 289.38 65.49 C 290.40 65.21 290.78 64.98 291.36 64.06 Q 293.79 60.20 296.83 56.23 Q 303.59 49.45 304.70 38.43 Q 304.70 38.39 304.68 38.39 Q 304.52 38.35 304.61 38.37 Q 304.64 38.37 304.63 38.39 Q 304.45 39.80 304.87 41.08 Z"/><path fill="#a50d0e" d="M 248.36 45.54 Q 248.28 47.22 248.39 48.65 Q 248.42 49.09 248.10 48.79 Q 247.97 48.67 247.75 48.74 Q 247.37 48.87 247.28 49.27 Q 246.97 50.61 247.02 51.95 Q 247.24 59.31 247.33 66.53 Q 247.38 70.51 247.85 74.41 Q 248.48 79.54 248.24 82.50 Q 246.95 98.32 246.50 114.21 L 245.95 122.29 Q 245.95 122.38 245.86 122.38 L 245.60 122.40 Q 245.38 122.40 245.37 122.18 L 245.28 118.44 L 245.84 44.81 L 246.37 39.54 Q 246.39 39.33 246.60 39.32 Q 246.77 39.31 246.77 39.50 Q 246.71 43.66 248.36 45.54 Z"/><path fill="#c25d5a" d="M 257.53 47.36 Q 257.85 55.94 257.40 64.76 Q 257.32 66.48 258.38 67.74 C 259.98 69.62 257.98 72.38 256.79 73.99 Q 256.51 74.37 256.46 74.84 Q 255.86 81.15 256.60 87.09 Q 257.34 93.09 257.52 98.47 Q 257.80 106.71 257.97 114.97 Q 257.47 113.79 256.71 112.81 Q 255.95 111.83 254.68 111.55 Q 252.87 111.15 250.49 111.08 Q 246.74 110.96 246.50 114.21 Q 246.95 98.32 248.24 82.50 Q 248.48 79.54 247.85 74.41 Q 247.38 70.51 247.33 66.53 Q 247.24 59.31 247.02 51.95 Q 246.97 50.61 247.28 49.27 Q 247.37 48.87 247.75 48.74 Q 247.97 48.67 248.10 48.79 Q 248.42 49.09 248.39 48.65 Q 248.28 47.22 248.36 45.54 Q 249.19 46.01 248.79 44.82 Q 248.61 44.29 249.15 44.15 Q 251.05 43.66 252.97 44.09 Q 253.25 44.15 253.48 44.04 Q 253.54 44.01 253.59 43.97 Q 253.71 43.86 253.85 43.93 Q 254.04 44.04 254.09 44.26 Q 254.19 44.70 254.22 44.25 Q 254.25 43.98 254.40 43.74 Q 254.91 42.89 254.90 43.88 Q 254.89 44.78 255.20 45.72 Q 255.31 46.04 255.40 45.72 Q 255.59 44.98 256.40 44.98 Q 256.92 44.97 256.88 45.50 Q 256.77 46.85 257.53 47.36 Z"/><path fill="#a50d0e" d="M 332.91 51.43 Q 332.87 56.34 332.87 61.14 C 332.88 68.97 333.60 76.62 333.86 84.61 C 334.04 90.14 333.16 95.59 332.74 101.04 Q 332.71 101.41 332.39 101.60 Q 332.24 101.70 332.08 101.61 Q 331.92 101.52 331.84 101.36 Q 331.77 101.21 331.56 101.20 L 331.75 50.79 L 332.21 50.81 Q 332.77 50.83 332.79 50.27 Q 332.90 47.29 332.82 44.43 Q 332.82 44.37 332.88 44.37 Q 332.92 44.37 332.90 44.37 Q 332.84 48.04 332.91 51.43 Z"/><path fill="#c65c53" d="M 113.65 47.49 Q 114.83 49.95 116.31 52.25 C 117.65 54.32 118.04 56.44 119.09 58.56 Q 120.89 62.20 121.69 66.00 Q 121.79 66.45 122.22 66.62 Q 123.29 67.03 124.28 67.51 Q 125.19 67.96 126.32 68.21 Q 128.37 68.68 130.27 69.61 Q 133.26 71.07 134.17 67.95 Q 133.36 77.82 133.58 82.75 C 133.75 86.62 134.05 90.31 132.54 93.53 Q 131.64 95.44 131.62 96.25 Q 131.57 97.75 130.62 100.13 Q 130.19 101.20 131.49 101.74 Q 126.25 114.58 117.78 123.67 L 109.94 120.16 A 1.02 1.00 -56.2 0 0 108.78 120.40 Q 106.10 123.31 102.63 124.33 Q 108.71 119.95 111.90 114.65 Q 118.64 103.47 120.27 91.74 Q 121.18 85.18 120.77 75.74 Q 120.13 60.88 112.40 47.93 Q 113.17 47.94 113.65 47.49 Z"/><path fill="#c44948" d="M 153.54 61.58 Q 152.52 67.07 152.57 72.29 Q 152.61 75.23 153.84 77.51 Q 156.05 81.59 159.83 85.83 Q 159.94 85.95 160.10 85.96 L 164.47 86.14 L 156.48 86.40 Q 155.25 86.43 155.25 87.67 L 155.39 113.97 L 155.08 114.97 Q 154.98 115.30 154.65 115.39 Q 154.50 115.43 154.39 115.33 Q 154.02 115.01 154.00 114.51 Q 153.67 108.36 153.22 102.23 Q 153.18 101.70 152.91 101.24 L 151.63 99.03 Q 151.37 98.57 150.84 98.54 Q 148.01 98.36 143.97 98.99 Q 142.72 99.19 142.33 100.38 A 0.04 0.04 0.0 0 1 142.25 100.37 Q 142.15 100.00 142.07 100.14 Q 141.61 100.94 141.36 100.05 Q 141.11 99.17 141.14 98.27 L 141.31 55.96 Q 141.42 55.58 141.60 55.33 Q 141.99 54.76 142.15 55.44 Q 142.45 56.77 143.55 57.92 C 144.38 58.80 145.05 58.50 145.99 59.06 Q 147.71 60.09 149.41 62.14 Q 151.19 64.27 153.54 61.58 Z"/><path fill="#c65c53" d="M 37.79 64.04 Q 37.84 80.81 37.99 96.50 Q 38.12 111.01 38.67 125.50 Q 38.69 125.94 39.11 127.34 Q 37.60 128.24 36.82 126.20 Q 36.60 125.61 36.68 124.74 Q 36.76 123.99 36.78 123.22 Q 36.79 122.70 36.32 122.47 Q 34.56 121.61 32.68 121.38 Q 30.00 121.06 27.22 120.90 C 25.56 120.81 24.15 121.45 22.43 121.30 Q 22.27 121.28 22.16 121.41 Q 22.06 121.52 22.08 121.65 Q 22.11 121.88 22.11 121.65 Q 22.10 121.40 21.94 121.03 L 22.70 56.48 L 22.96 56.14 Q 23.44 55.54 23.55 56.32 Q 23.59 56.57 23.83 56.64 Q 24.48 56.82 24.43 57.50 Q 24.29 59.24 24.41 61.00 Q 24.49 62.03 25.52 61.75 Q 26.14 61.57 26.78 61.62 Q 32.77 62.06 37.79 64.04 Z"/><path fill="#ca6456" d="M 292.24 55.81 L 292.81 58.64 Q 292.92 59.19 293.37 58.85 L 296.83 56.23 Q 293.79 60.20 291.36 64.06 C 290.78 64.98 290.40 65.21 289.38 65.49 Q 288.85 65.64 288.52 66.08 Q 287.21 67.88 288.29 70.07 Q 288.96 71.42 290.43 72.02 Q 297.41 74.85 302.45 78.64 Q 312.13 85.93 315.16 97.34 Q 316.81 103.59 315.68 112.04 Q 315.48 113.47 314.31 115.68 Q 312.92 118.28 313.36 120.81 Q 307.41 131.96 295.10 136.61 Q 286.31 139.93 275.58 139.98 L 273.58 135.93 Q 273.34 135.46 273.83 135.24 Q 274.79 134.82 276.57 134.88 Q 290.14 136.29 299.01 125.74 Q 299.48 127.42 301.39 124.24 Q 302.10 123.04 302.54 121.76 Q 303.81 118.11 304.51 113.88 C 305.56 107.55 303.82 100.92 302.05 94.82 Q 300.45 89.28 295.71 84.12 Q 295.35 83.73 295.21 83.22 Q 294.95 82.29 294.26 81.59 Q 291.40 78.71 288.57 76.36 Q 285.05 73.45 280.36 71.63 A 0.89 0.89 0.0 0 1 280.28 70.01 Q 288.66 65.77 292.24 55.81 Z"/><path fill="#a50d0e" d="M 135.99 66.71 Q 138.18 84.78 131.49 101.74 Q 130.19 101.20 130.62 100.13 Q 131.57 97.75 131.62 96.25 Q 131.64 95.44 132.54 93.53 C 134.05 90.31 133.75 86.62 133.58 82.75 Q 133.36 77.82 134.17 67.95 Q 135.34 64.61 135.99 66.71 Z"/><path fill="#d48a67" d="M 230.44 132.28 C 231.96 133.70 234.28 137.76 237.06 137.20 C 241.90 136.22 243.67 132.72 244.24 128.11 Q 244.84 123.31 245.28 118.44 L 245.37 122.18 Q 245.38 122.40 245.60 122.40 L 245.86 122.38 Q 245.95 122.38 245.95 122.29 L 246.50 114.21 Q 246.74 110.96 250.49 111.08 Q 252.87 111.15 254.68 111.55 Q 255.95 111.83 256.71 112.81 Q 257.47 113.79 257.97 114.97 L 259.18 127.26 A 0.65 0.64 14.9 0 0 259.45 127.72 Q 260.19 128.25 260.23 127.47 Q 261.81 129.98 262.50 130.45 Q 268.02 134.27 276.57 134.88 Q 274.79 134.82 273.83 135.24 Q 273.34 135.46 273.58 135.93 L 275.58 139.98 L 240.22 139.66 L 237.43 139.47 Q 237.31 139.46 237.24 139.37 Q 237.10 139.21 237.20 139.11 Q 237.74 138.59 237.01 138.72 Q 234.88 139.09 232.45 138.28 Q 231.90 138.09 231.32 138.12 L 223.14 138.44 Q 222.80 138.45 222.49 138.34 Q 221.71 138.05 220.98 138.81 Q 220.62 139.18 220.76 139.67 L 221.70 142.86 C 215.05 136.28 210.39 128.99 204.71 122.05 Q 202.53 119.38 200.71 116.47 Q 201.22 116.43 201.26 116.41 A 0.78 0.78 0.0 0 0 201.53 115.21 C 198.58 111.65 195.79 108.35 193.17 104.33 Q 190.21 99.79 186.87 95.39 Q 185.71 93.86 183.86 90.16 Q 182.44 87.31 180.35 85.15 A 0.87 0.86 -32.1 0 1 180.68 83.74 L 188.30 80.93 Q 190.02 80.30 189.11 81.89 Q 188.56 82.86 188.91 83.81 C 189.62 85.70 192.70 88.22 194.22 89.73 Q 196.11 91.61 197.79 93.97 Q 201.17 98.68 204.83 102.43 Q 208.10 105.78 210.18 108.90 Q 213.03 113.16 216.07 116.32 Q 218.76 119.12 220.76 122.02 Q 224.47 127.38 228.94 132.48 Q 229.21 132.80 229.63 132.86 Q 229.76 132.88 229.90 132.91 Q 230.33 133.02 230.37 132.57 Q 230.39 132.41 230.44 132.28 Z"/><path fill="#d48a67" d="M 141.14 98.27 Q 141.11 99.17 141.36 100.05 Q 141.61 100.94 142.07 100.14 Q 142.15 100.00 142.25 100.37 A 0.04 0.04 0.0 0 0 142.33 100.38 Q 142.72 99.19 143.97 98.99 Q 148.01 98.36 150.84 98.54 Q 151.37 98.57 151.63 99.03 L 152.91 101.24 Q 153.18 101.70 153.22 102.23 Q 153.67 108.36 154.00 114.51 Q 154.02 115.01 154.39 115.33 Q 154.50 115.43 154.65 115.39 Q 154.98 115.30 155.08 114.97 L 155.39 113.97 Q 155.88 124.00 156.54 128.25 C 157.20 132.51 158.56 135.93 163.52 136.45 Q 167.13 136.84 170.50 137.05 A 1.65 1.63 -29.4 0 1 171.16 137.23 Q 173.64 138.56 170.83 139.72 A 1.43 1.30 -53.4 0 1 170.32 139.82 Q 148.15 139.61 131.20 139.95 Q 129.96 139.98 128.92 139.22 A 0.93 0.93 0.0 0 1 129.20 137.58 Q 131.94 136.75 134.69 136.60 C 140.13 136.30 141.00 129.08 140.98 125.10 Q 140.93 111.69 141.14 98.27 Z"/><path fill="#eab36a" d="M 346.29 120.26 Q 347.14 127.41 348.02 131.51 Q 348.82 135.27 352.80 136.11 Q 356.67 136.92 360.91 137.02 A 1.93 1.85 -6.4 0 1 362.70 138.39 Q 362.85 138.96 361.83 139.60 A 1.15 1.09 26.1 0 1 361.25 139.78 Q 346.88 140.01 332.80 139.77 C 328.37 139.70 323.91 140.37 319.53 139.75 A 1.13 1.12 -82.9 0 1 318.57 138.51 Q 318.69 137.37 319.88 137.22 C 322.81 136.84 326.66 137.13 328.31 134.09 Q 329.59 131.74 330.60 129.27 Q 330.72 130.86 331.81 128.12 Q 332.10 127.39 332.15 126.60 Q 332.46 121.38 332.39 116.50 Q 332.39 115.91 332.95 115.72 L 338.84 113.75 Q 339.36 113.58 339.88 113.73 Q 340.53 113.91 340.91 113.43 Q 341.25 113.00 341.74 113.22 Q 343.44 113.97 343.14 116.02 Q 343.09 116.39 343.45 116.38 Q 343.60 116.38 343.73 116.47 Q 343.83 116.54 343.82 116.66 Q 343.77 118.94 345.14 120.98 Q 345.88 122.06 346.17 120.79 L 346.29 120.26 Z"/><path fill="#edb561" d="M 117.78 123.67 Q 112.34 128.50 104.44 133.11 C 94.81 138.73 83.53 140.64 72.51 140.93 Q 58.70 141.30 44.76 140.47 Q 36.63 139.98 29.06 139.97 Q 21.21 139.96 13.85 140.06 Q 12.65 140.08 11.24 139.88 A 1.18 1.18 0.0 0 1 10.33 138.24 Q 10.88 136.99 12.26 136.82 C 14.59 136.53 18.13 136.30 19.83 134.53 Q 20.67 133.66 20.90 131.70 Q 21.54 126.36 21.94 121.03 Q 22.10 121.40 22.11 121.65 Q 22.11 121.88 22.08 121.65 Q 22.06 121.52 22.16 121.41 Q 22.27 121.28 22.43 121.30 C 24.15 121.45 25.56 120.81 27.22 120.90 Q 30.00 121.06 32.68 121.38 Q 34.56 121.61 36.32 122.47 Q 36.79 122.70 36.78 123.22 Q 36.76 123.99 36.68 124.74 Q 36.60 125.61 36.82 126.20 Q 37.60 128.24 39.11 127.34 Q 40.42 129.84 42.56 130.95 C 45.18 132.31 49.21 133.55 52.25 134.00 Q 69.59 136.51 81.25 133.98 Q 91.18 131.82 102.63 124.33 Q 106.10 123.31 108.78 120.40 A 1.02 1.00 -56.2 0 1 109.94 120.16 L 117.78 123.67 Z"/><path fill="#f2be6b" d="M 240.22 139.66 L 238.02 140.08 A 0.76 0.76 0.0 0 0 237.65 141.39 Q 243.06 146.18 246.75 151.06 C 251.58 157.45 256.69 163.52 262.71 168.75 Q 271.49 176.37 284.75 176.95 A 1.43 1.42 -31.1 0 1 285.32 177.09 Q 288.17 178.48 285.47 179.71 A 1.45 1.44 32.5 0 1 284.97 179.82 C 276.72 180.09 267.49 180.41 259.03 179.32 C 252.05 178.43 247.03 173.86 242.77 168.62 C 236.00 160.27 228.33 151.88 221.70 142.86 L 220.76 139.67 Q 220.62 139.18 220.98 138.81 Q 221.71 138.05 222.49 138.34 Q 222.80 138.45 223.14 138.44 L 231.32 138.12 Q 231.90 138.09 232.45 138.28 Q 234.88 139.09 237.01 138.72 Q 237.74 138.59 237.20 139.11 Q 237.10 139.21 237.24 139.37 Q 237.31 139.46 237.43 139.47 L 240.22 139.66 Z"/></svg>