<svg xmlns="http://www.w3.org/2000/svg" version="1.1" viewBox="3.42 119.679 347.35 76.946"><rect width="360.933" height="102.919" x="3.461" y="144.959" style="fill:#fff" transform="matrix(1, 0, 0.000817, 1, -7.128761, -38.600407)"/><g transform="matrix(1, 0, 0, 1, 2.005672, 118.224548)"><g fill="none" stroke-linecap="butt" stroke-width="2"><path stroke="#91c9e3" d="M 3.78 3.57 Q 3.37 3.56 3.19 3.96 A 0.69 0.69 0.0 0 0 3.91 4.93 Q 6.54 4.60 7.29 7.31" vector-effect="non-scaling-stroke"/><path stroke="#b2c3d7" d="M 7.29 7.31 L 7.62 28.22" vector-effect="non-scaling-stroke"/><path stroke="#e1aba4" d="M 7.62 28.22 L 7.97 38.01" vector-effect="non-scaling-stroke"/><path stroke="#efd1ad" d="M 7.97 38.01 C 8.05 41.07 7.94 44.38 4.44 44.02 Q 3.86 43.96 3.97 44.66 A 0.51 0.50 77.7 0 0 4.60 45.07 Q 7.28 44.35 9.85 44.48 Q 16.05 44.78 21.95 45.10 Q 30.83 45.59 37.95 40.27 Q 41.58 37.56 43.78 31.54" vector-effect="non-scaling-stroke"/><path stroke="#dca9a9" d="M 43.78 31.54 Q 46.34 23.79 43.70 16.27" vector-effect="non-scaling-stroke"/><path stroke="#c4bbc7" d="M 43.70 16.27 Q 42.12 11.98 38.73 8.96" vector-effect="non-scaling-stroke"/><path stroke="#91c9e3" d="M 38.73 8.96 Q 33.40 4.44 26.03 3.74" vector-effect="non-scaling-stroke"/><path stroke="#e0faff" d="M 26.03 3.74 C 21.50 1.38 17.20 1.56 12.42 2.56 C 9.74 3.12 6.84 2.46 3.87 3.11 Q 3.69 3.15 3.78 3.57" vector-effect="non-scaling-stroke"/><path stroke="#72c4e3" d="M 26.03 3.74 L 3.78 3.57" vector-effect="non-scaling-stroke"/><path stroke="#5685ab" d="M 38.73 8.96 Q 38.90 9.37 38.89 9.63 A 0.39 0.38 15.0 0 1 38.33 9.95 L 37.53 9.53" vector-effect="non-scaling-stroke"/><path stroke="#448dbb" d="M 37.53 9.53 Q 36.28 8.34 34.77 7.80 A 1.44 1.42 -43.5 0 0 33.84 7.78 L 30.70 8.82" vector-effect="non-scaling-stroke"/><path stroke="#91c9e3" d="M 30.70 8.82 C 25.51 5.91 18.50 5.73 12.76 6.35" vector-effect="non-scaling-stroke"/><path stroke="#448dbb" d="M 12.76 6.35 L 11.42 7.33 Q 11.02 7.63 10.56 7.43 Q 9.97 7.18 9.45 7.56 Q 9.05 7.86 8.58 7.71 L 7.29 7.31" vector-effect="non-scaling-stroke"/><path stroke="#b2c3d7" d="M 12.76 6.35 L 12.67 14.31" vector-effect="non-scaling-stroke"/><path stroke="#946f7c" d="M 12.67 14.31 Q 11.86 14.95 11.85 15.93 Q 11.85 16.42 11.39 16.60 Q 11.20 16.67 10.98 16.67 Q 10.48 16.68 10.17 16.29 Q 8.23 13.85 8.11 10.92 Q 8.11 10.87 8.15 10.84 Q 8.21 10.79 8.23 10.86 Q 8.24 10.90 8.24 10.95 Q 7.50 19.57 7.62 28.22" vector-effect="non-scaling-stroke"/><path stroke="#777f9f" d="M 37.53 9.53 L 39.43 11.45 Q 39.82 11.85 39.37 12.17 Q 38.95 12.47 38.42 12.35 Q 37.29 12.09 36.24 12.08 Q 35.75 12.08 35.47 11.68 Q 34.74 10.66 33.79 11.09" vector-effect="non-scaling-stroke"/><path stroke="#b2c3d7" d="M 30.70 8.82 L 33.79 11.09" vector-effect="non-scaling-stroke"/><path stroke="#c4bbc7" d="M 33.79 11.09 L 37.92 16.73" vector-effect="non-scaling-stroke"/><path stroke="#dca9a9" d="M 37.92 16.73 Q 41.00 25.33 38.14 33.79" vector-effect="non-scaling-stroke"/><path stroke="#efd1ad" d="M 38.14 33.79 C 34.39 43.28 22.57 45.20 13.87 42.32 Q 12.77 41.96 12.50 39.67" vector-effect="non-scaling-stroke"/><path stroke="#e1aba4" d="M 12.50 39.67 L 12.67 14.31" vector-effect="non-scaling-stroke"/><path stroke="#a16571" d="M 43.70 16.27 Q 42.74 16.31 42.49 17.15 Q 42.36 17.59 41.91 17.50 L 37.92 16.73" vector-effect="non-scaling-stroke"/><path stroke="#d07d52" d="M 12.50 39.67 Q 12.49 39.89 12.46 40.10 Q 12.41 40.45 12.07 40.34 L 11.75 40.25" vector-effect="non-scaling-stroke"/><path stroke="#dc9867" d="M 11.75 40.25 Q 11.57 40.08 11.47 39.72" vector-effect="non-scaling-stroke"/><path stroke="#d07d52" d="M 11.47 39.72 Q 11.27 36.97 11.09 34.25 Q 11.05 33.67 10.29 33.67 A 0.09 0.09 0.0 0 0 10.22 33.81 Q 10.29 33.92 10.30 34.04 Q 10.32 34.22 10.20 34.36 Q 8.94 35.81 9.48 37.80 Q 9.60 38.26 9.47 38.72 Q 9.31 39.26 9.11 39.75 Q 8.52 41.17 8.26 39.65 L 7.97 38.01" vector-effect="non-scaling-stroke"/><path stroke="#cb7b57" d="M 43.78 31.54 L 42.87 32.35 Q 42.48 32.69 42.27 32.21 Q 41.99 31.59 41.25 31.56 A 0.71 0.71 0.0 0 0 40.61 31.90 L 38.83 34.78 Q 38.41 35.46 38.16 34.70 Q 38.05 34.35 38.14 33.79" vector-effect="non-scaling-stroke"/><path stroke="#eabe70" d="M 11.47 39.72 Q 11.27 39.71 11.04 39.53 Q 10.55 39.13 10.22 39.67 Q 9.68 40.54 9.47 41.76 Q 9.44 41.93 9.27 41.96 Q 9.13 41.99 9.01 42.05 Q 8.49 42.33 8.96 42.69 Q 10.38 43.79 12.05 42.78 Q 12.48 42.52 12.24 42.09 Q 11.74 41.20 11.75 40.25" vector-effect="non-scaling-stroke"/><path stroke="#bcbfd0" d="M 46.12 6.75 L 46.32 15.96" vector-effect="non-scaling-stroke"/><path stroke="#d4b1b5" d="M 46.32 15.96 L 46.27 22.18" vector-effect="non-scaling-stroke"/><path stroke="#dea7a5" d="M 46.27 22.18 L 46.10 26.54" vector-effect="non-scaling-stroke"/><path stroke="#e8c7b5" d="M 46.10 26.54 Q 46.20 33.47 46.18 40.37 Q 46.16 44.19 42.95 43.75 Q 42.43 43.68 42.38 44.20 L 42.36 44.50 A 0.41 0.41 0.0 0 0 42.78 44.95 L 55.90 44.84 A 0.35 0.35 0.0 0 0 56.23 44.39 L 56.13 44.07 Q 56.05 43.82 55.78 43.84 C 52.30 44.16 51.05 42.39 51.13 39.13 Q 51.25 33.51 51.12 27.71" vector-effect="non-scaling-stroke"/><path stroke="#dea7a5" d="M 51.12 27.71 L 58.00 28.03 Q 58.52 28.06 58.83 28.47 L 62.16 32.85" vector-effect="non-scaling-stroke"/><path stroke="#e8c7b5" d="M 62.16 32.85 L 71.99 45.52" vector-effect="non-scaling-stroke"/><path stroke="#f7ddb3" d="M 71.99 45.52 Q 76.83 52.11 81.83 56.67 Q 83.16 57.88 85.13 57.81 C 87.31 57.74 89.41 58.04 91.56 57.83 Q 94.36 57.56 91.57 57.15 C 89.06 56.78 87.01 56.25 85.12 54.13 Q 82.38 51.06 79.85 47.67" vector-effect="non-scaling-stroke"/><path stroke="#e8c7b5" d="M 79.85 47.67 L 78.38 45.86 Q 77.61 44.91 78.83 44.90 Q 83.95 44.82 89.30 45.11 C 97.64 45.56 105.16 40.37 103.93 31.12" vector-effect="non-scaling-stroke"/><path stroke="#dea7a5" d="M 103.93 31.12 Q 102.36 24.68 95.77 21.70 Q 95.33 21.51 95.60 21.10 L 98.95 16.10" vector-effect="non-scaling-stroke"/><path stroke="#c4bbc7" d="M 98.95 16.10 Q 100.12 13.44 99.60 10.26" vector-effect="non-scaling-stroke"/><path stroke="#9ec6df" d="M 99.60 10.26 C 97.96 5.15 93.73 3.40 88.57 3.58 Q 82.53 3.79 76.19 3.38 A 0.72 0.72 0.0 0 0 75.42 4.18 L 75.45 4.50 A 0.45 0.45 0.0 0 0 75.94 4.90 Q 79.02 4.67 79.93 6.67" vector-effect="non-scaling-stroke"/><path stroke="#b2c3d7" d="M 79.93 6.67 L 80.05 9.32" vector-effect="non-scaling-stroke"/><path stroke="#cab8bf" d="M 80.05 9.32 L 80.01 20.18" vector-effect="non-scaling-stroke"/><path stroke="#dea7a5" d="M 80.01 20.18 L 80.03 28.52" vector-effect="non-scaling-stroke"/><path stroke="#e8c7b5" d="M 80.03 28.52 Q 80.06 34.49 79.84 40.36 Q 79.71 43.64 77.19 43.70 Q 76.69 43.71 76.38 43.32 L 69.94 35.20" vector-effect="non-scaling-stroke"/><path stroke="#dea7a5" d="M 69.94 35.20 L 63.40 26.77 A 1.07 1.06 50.0 0 1 63.52 25.33 Q 66.44 22.66 68.14 19.11" vector-effect="non-scaling-stroke"/><path stroke="#cab8bf" d="M 68.14 19.11 Q 69.90 15.23 68.87 10.53" vector-effect="non-scaling-stroke"/><path stroke="#b2c3d7" d="M 68.87 10.53 Q 67.41 7.01 64.37 5.15" vector-effect="non-scaling-stroke"/><path stroke="#88c6e1" d="M 64.37 5.15 Q 60.83 3.56 56.99 3.62 Q 49.44 3.73 42.25 3.45 Q 41.62 3.42 41.70 4.04 L 41.76 4.46 Q 41.85 5.13 42.51 5.01 Q 45.21 4.52 46.12 6.75" vector-effect="non-scaling-stroke"/><path stroke="#3b89b9" d="M 64.37 5.15 Q 62.91 5.90 61.12 5.91 Q 60.06 5.92 61.05 6.31 Q 61.31 6.41 61.32 6.69 A 0.43 0.42 -13.7 0 1 61.07 7.09 Q 60.68 7.27 60.01 6.98" vector-effect="non-scaling-stroke"/><path stroke="#88c6e1" d="M 60.01 6.98 Q 56.15 5.30 51.82 6.02 Q 51.31 6.10 51.17 6.60 Q 50.89 7.60 51.01 9.15" vector-effect="non-scaling-stroke"/><path stroke="#4585b2" d="M 51.01 9.15 Q 49.93 8.72 49.57 6.56 Q 49.42 5.65 48.76 6.28 Q 48.23 6.79 47.56 6.59 Q 47.09 6.46 47.13 6.93 Q 47.16 7.16 46.88 7.28 A 0.35 0.35 0.0 0 1 46.53 7.26 Q 46.23 7.08 46.12 6.75" vector-effect="non-scaling-stroke"/><path stroke="#917086" d="M 50.98 15.36 Q 48.53 16.35 47.83 14.80 Q 46.88 12.69 46.36 14.94 Q 46.35 14.97 46.32 15.96" vector-effect="non-scaling-stroke"/><path stroke="#7d7b97" d="M 68.87 10.53 Q 69.10 12.25 67.59 12.71 Q 66.65 12.99 65.50 12.39 Q 64.50 11.86 63.48 11.16" vector-effect="non-scaling-stroke"/><path stroke="#b2c3d7" d="M 63.48 11.16 Q 62.27 8.69 60.01 6.98" vector-effect="non-scaling-stroke"/><path stroke="#cab8bf" d="M 63.48 11.16 Q 64.50 14.95 63.94 19.20" vector-effect="non-scaling-stroke"/><path stroke="#dea7a5" d="M 63.94 19.20 Q 62.99 25.10 57.30 25.53 Q 55.50 25.67 51.98 24.85 Q 51.49 24.74 51.35 24.26 Q 50.94 22.88 51.06 21.77" vector-effect="non-scaling-stroke"/><path stroke="#d4b1b5" d="M 51.06 21.77 L 50.98 15.36" vector-effect="non-scaling-stroke"/><path stroke="#bcbfd0" d="M 50.98 15.36 L 51.01 9.15" vector-effect="non-scaling-stroke"/><path stroke="#b3595b" d="M 51.06 21.77 Q 49.60 20.31 48.56 19.98 Q 48.07 19.83 47.70 20.19 Q 46.77 21.12 46.27 22.18" vector-effect="non-scaling-stroke"/><path stroke="#a96065" d="M 68.14 19.11 Q 67.91 17.79 63.94 19.20" vector-effect="non-scaling-stroke"/><path stroke="#c76f5a" d="M 69.94 35.20 Q 69.61 35.51 69.59 36.16 Q 69.57 37.01 69.00 36.38 Q 68.81 36.18 68.68 35.92 Q 68.40 35.39 67.80 35.31 Q 65.08 34.95 62.16 32.85" vector-effect="non-scaling-stroke"/><path stroke="#c76f5a" d="M 51.12 27.71 Q 51.09 30.34 50.83 33.01 Q 50.70 34.41 49.59 33.55 Q 49.42 33.42 49.09 32.79 Q 48.80 32.22 48.18 32.37 Q 47.98 32.42 47.79 32.36 Q 47.28 32.19 47.17 31.67 L 46.10 26.54" vector-effect="non-scaling-stroke"/><path stroke="#e0a568" d="M 79.85 47.67 Q 79.43 48.91 80.50 49.62 Q 80.68 49.74 80.53 49.89 L 80.34 50.08 Q 80.30 50.11 80.27 50.07 Q 78.41 47.87 76.95 45.63 Q 76.61 45.10 75.99 45.20 L 74.24 45.48 A 0.49 0.49 0.0 0 0 73.83 45.91 Q 73.81 46.10 73.88 46.28 Q 74.25 47.24 73.67 46.33 Q 73.03 45.32 71.99 45.52" vector-effect="non-scaling-stroke"/><path stroke="#c76f5a" d="M 103.93 31.12 Q 103.87 31.93 103.54 32.36 Q 103.08 32.97 102.79 32.26 L 102.58 31.73 A 1.12 1.11 67.9 0 0 101.13 31.11 Q 100.74 31.27 100.58 31.55 Q 99.64 33.11 98.96 31.32 Q 98.70 30.65 97.95 30.30" vector-effect="non-scaling-stroke"/><path stroke="#dea7a5" d="M 97.95 30.30 Q 94.37 22.45 85.62 23.32 Q 85.11 23.37 85.08 23.87 L 84.93 26.29" vector-effect="non-scaling-stroke"/><path stroke="#c76f5a" d="M 84.93 26.29 Q 84.82 28.52 84.86 30.11 Q 84.91 32.11 83.41 30.79 Q 82.92 30.35 82.45 30.83 Q 82.05 31.25 81.50 31.06 Q 80.01 30.55 80.03 28.52" vector-effect="non-scaling-stroke"/><path stroke="#e8c7b5" d="M 97.95 30.30 C 99.70 36.21 99.12 42.76 91.39 42.93 Q 88.79 42.99 86.36 42.03 A 2.16 2.16 0.0 0 1 85.01 40.04 L 84.93 26.29" vector-effect="non-scaling-stroke"/><path stroke="#a96065" d="M 84.97 20.69 Q 84.03 18.76 80.01 20.18" vector-effect="non-scaling-stroke"/><path stroke="#a3636c" d="M 98.95 16.10 Q 97.48 15.35 95.03 16.03" vector-effect="non-scaling-stroke"/><path stroke="#c4bbc7" d="M 94.71 10.80 L 95.03 16.03" vector-effect="non-scaling-stroke"/><path stroke="#dea7a5" d="M 95.03 16.03 C 94.23 21.33 89.52 22.12 84.97 20.69" vector-effect="non-scaling-stroke"/><path stroke="#cab8bf" d="M 84.97 20.69 L 84.93 12.71" vector-effect="non-scaling-stroke"/><path stroke="#b2c3d7" d="M 84.93 12.71 L 84.97 6.20" vector-effect="non-scaling-stroke"/><path stroke="#7d7b97" d="M 84.93 12.71 L 84.08 12.65 Q 83.63 12.61 83.53 13.06 Q 83.46 13.39 83.22 13.66 A 0.91 0.91 0.0 0 1 81.70 13.40 L 80.05 9.32" vector-effect="non-scaling-stroke"/><path stroke="#6382a6" d="M 99.60 10.26 Q 98.45 14.70 94.71 10.80" vector-effect="non-scaling-stroke"/><path stroke="#9ec6df" d="M 94.71 10.80 Q 91.96 4.01 84.97 6.20" vector-effect="non-scaling-stroke"/><path stroke="#518ab7" d="M 84.97 6.20 L 79.93 6.67" vector-effect="non-scaling-stroke"/><path stroke="#bcbfd0" d="M 108.07 6.83 L 108.06 19.97" vector-effect="non-scaling-stroke"/><path stroke="#ddb0af" d="M 108.06 19.97 L 108.11 25.78" vector-effect="non-scaling-stroke"/><path stroke="#e2a3a0" d="M 108.11 25.78 L 108.05 29.78" vector-effect="non-scaling-stroke"/><path stroke="#f7ddb3" d="M 108.05 29.78 Q 108.47 37.67 107.66 42.27 Q 107.31 44.27 104.80 43.85 A 0.53 0.52 14.8 0 0 104.22 44.18 L 104.09 44.54 Q 103.93 44.99 104.41 44.97 Q 110.21 44.74 116.00 45.11 Q 116.78 45.15 118.17 44.83 Q 118.55 44.74 118.38 44.38 L 118.20 44.03 A 0.45 0.44 73.3 0 0 117.76 43.79 Q 113.80 44.25 113.49 41.08 C 112.77 33.83 113.25 26.33 113.13 19.03" vector-effect="non-scaling-stroke"/><path stroke="#ddb0af" d="M 113.13 19.03 L 113.09 18.25" vector-effect="non-scaling-stroke"/><path stroke="#bcbfd0" d="M 113.09 18.25 L 113.34 6.66" vector-effect="non-scaling-stroke"/><path stroke="#91c9e3" d="M 113.34 6.66 Q 114.14 4.75 116.32 4.96 A 0.56 0.56 0.0 0 0 116.93 4.46 L 116.97 4.12 Q 117.04 3.56 116.48 3.57 L 104.50 3.64 A 0.44 0.44 0.0 0 0 104.07 4.18 L 104.14 4.47 A 0.69 0.68 78.8 0 0 104.90 4.99 Q 107.17 4.64 108.07 6.83" vector-effect="non-scaling-stroke"/><path stroke="#4e89b4" d="M 113.34 6.66 Q 112.44 6.60 111.46 6.67 Q 111.20 6.68 109.85 7.12 Q 108.87 7.43 108.07 6.83" vector-effect="non-scaling-stroke"/><path stroke="#9a6f80" d="M 113.09 18.25 Q 112.68 17.14 111.87 17.63 Q 111.65 17.77 111.66 18.03 Q 111.68 18.33 111.38 18.36 Q 109.99 18.51 108.77 18.08 Q 108.23 17.89 108.18 18.47 L 108.06 19.97" vector-effect="non-scaling-stroke"/><path stroke="#d58e63" d="M 113.13 19.03 L 113.03 33.01" vector-effect="non-scaling-stroke"/><path stroke="#c67765" d="M 113.03 33.01 L 112.76 34.21 Q 112.63 34.75 112.15 34.47 Q 111.84 34.29 111.77 34.05 A 0.79 0.79 0.0 0 0 110.60 33.59 Q 108.98 34.58 108.25 34.19" vector-effect="non-scaling-stroke"/><path stroke="#d58e63" d="M 108.25 34.19 L 108.20 29.65" vector-effect="non-scaling-stroke"/><path stroke="#c05350" d="M 108.20 29.65 Q 108.31 28.61 108.76 30.22 Q 108.93 30.81 109.37 30.38 Q 110.65 29.13 112.06 29.70 Q 112.73 29.97 112.74 29.26 L 112.91 22.80 Q 112.92 22.20 112.33 22.12 Q 108.72 21.58 108.11 25.78" vector-effect="non-scaling-stroke"/><path stroke="#da8153" d="M 108.05 29.78 Q 108.12 29.71 108.20 29.65" vector-effect="non-scaling-stroke"/><path stroke="#e0a568" d="M 108.25 34.19 Q 107.86 36.68 108.33 39.07 Q 108.45 39.69 108.98 39.34 Q 110.58 38.29 111.95 39.10 Q 112.50 39.43 112.67 38.82 Q 113.45 36.06 113.03 33.01" vector-effect="non-scaling-stroke"/><path stroke="#8382a1" d="M 131.63 23.10 Q 131.34 23.02 131.24 23.27 Q 131.03 23.81 131.61 23.82 Q 135.25 23.87 139.00 23.99 C 145.20 24.19 149.89 20.05 149.72 13.91 C 149.41 2.57 138.48 5.02 131.08 4.40 Q 129.97 4.31 130.98 4.78 Q 131.51 5.03 131.87 5.46 A 1.44 1.42 23.6 0 1 132.22 6.34 Q 132.63 14.47 132.11 22.77 A 0.37 0.37 0.0 0 1 131.63 23.10" vector-effect="non-scaling-stroke"/><path stroke="#8382a1" d="M 239.63 15.67 C 241.12 15.66 242.74 15.43 243.69 16.86 Q 245.67 19.87 247.84 22.27 C 249.24 23.83 251.50 24.16 253.42 23.72 Q 254.64 23.44 253.40 23.31 C 250.14 22.98 247.03 18.05 244.98 15.52 A 0.65 0.65 0.0 0 1 245.04 14.64 C 249.81 10.20 248.19 4.34 241.46 4.53 Q 238.73 4.60 236.03 4.44 Q 235.04 4.37 235.90 4.87 L 236.57 5.25 Q 237.07 5.54 237.07 6.13 L 237.07 22.06 Q 237.07 22.66 236.56 22.98 Q 236.24 23.18 235.90 23.35 Q 235.15 23.73 235.99 23.75 Q 238.51 23.80 240.95 23.75 Q 241.15 23.75 241.16 23.55 L 241.16 23.54 Q 241.17 23.36 240.99 23.36 C 240.10 23.32 239.19 22.75 239.20 21.75 Q 239.24 18.99 239.01 16.36 Q 238.95 15.68 239.63 15.67" vector-effect="non-scaling-stroke"/><path stroke="#83819a" d="M 173.30 17.82 C 175.28 19.43 174.93 22.44 172.18 22.98 Q 168.36 23.74 167.56 20.73 Q 167.31 19.80 167.10 20.74 Q 166.93 21.54 166.92 22.48 Q 166.92 23.16 167.49 23.53 C 169.33 24.74 173.88 24.18 175.31 22.39 C 179.16 17.57 172.50 14.80 169.97 12.24 Q 167.74 10.00 170.32 8.49 Q 173.28 6.76 175.38 9.72 Q 175.83 10.36 175.96 9.58 Q 176.09 8.74 175.81 7.85 Q 175.66 7.37 175.17 7.27 Q 172.97 6.79 170.95 7.13 C 167.94 7.63 166.31 10.93 168.18 13.46 C 169.49 15.23 171.60 16.43 173.30 17.82" vector-effect="non-scaling-stroke"/><path stroke="#83819a" d="M 271.6025 13.6505 A 9.04 8.61 -12.0 0 0 260.9699 7.1081 A 9.04 8.61 -12.0 0 0 253.9175 17.4095 A 9.04 8.61 -12.0 0 0 264.5501 23.9519 A 9.04 8.61 -12.0 0 0 271.6025 13.6505" vector-effect="non-scaling-stroke"/><path stroke="#83819a" d="M 276.95 10.87 Q 276.75 8.99 278.50 8.30 Q 281.53 7.10 283.34 9.66 Q 283.79 10.29 283.92 9.53 Q 284.05 8.74 283.75 7.97 Q 283.54 7.43 282.98 7.29 Q 279.76 6.50 277.63 7.54 C 274.48 9.09 274.70 12.70 277.23 14.70 Q 279.23 16.28 281.26 17.92 C 283.65 19.86 282.38 22.82 279.38 23.09 Q 276.16 23.38 275.53 20.78 Q 275.32 19.92 275.05 20.77 Q 274.66 21.99 275.08 23.22 A 0.94 0.94 0.0 0 0 275.82 23.85 C 279.60 24.46 283.84 24.31 284.24 19.65 C 284.51 16.49 280.04 13.96 277.79 12.32 A 2.05 2.02 15.3 0 1 276.95 10.87" vector-effect="non-scaling-stroke"/><path stroke="#8382a1" d="M 157.82 8.32 L 161.52 8.53 A 0.59 0.59 0.0 0 1 162.07 9.05 Q 162.10 9.35 162.32 9.56 Q 162.95 10.13 162.97 9.28 L 163.00 8.08 Q 163.02 7.39 162.33 7.39 L 153.96 7.38 Q 153.28 7.38 153.86 7.73 Q 154.15 7.91 154.48 8.03 A 0.82 0.81 -79.5 0 1 155.00 8.79 L 155.01 22.04 A 1.12 1.11 -16.4 0 1 154.49 22.98 Q 154.32 23.09 154.15 23.21 Q 153.43 23.71 154.31 23.74 L 162.09 23.96 Q 162.73 23.98 163.06 23.42 Q 163.50 22.67 163.65 21.76 Q 163.77 20.97 163.25 21.57 Q 161.20 23.91 157.73 22.55 A 1.06 1.04 10.5 0 1 157.06 21.59 L 157.02 16.25 Q 157.02 15.72 157.54 15.65 Q 160.30 15.28 162.11 16.50 Q 162.76 16.94 162.56 16.19 Q 162.39 15.54 162.62 14.92 Q 162.94 14.03 162.04 14.30 Q 159.87 14.95 157.59 14.54 A 0.70 0.70 0.0 0 1 157.02 13.85 L 157.04 9.06 A 0.74 0.73 -88.2 0 1 157.82 8.32" vector-effect="non-scaling-stroke"/><path stroke="#838292" d="M 184.82 15.57 Q 187.53 15.32 189.18 16.41 Q 189.98 16.94 189.68 16.03 Q 189.50 15.51 189.71 14.96 Q 190.06 14.01 189.10 14.33 Q 187.11 14.99 184.63 14.50 A 0.51 0.51 0.0 0 1 184.22 14.00 L 184.21 8.91 Q 184.21 8.29 184.84 8.32 L 188.22 8.48 Q 188.81 8.51 189.07 9.05 Q 189.13 9.19 189.20 9.32 Q 189.68 10.24 189.90 9.23 Q 190.05 8.52 190.04 7.77 Q 190.03 7.19 189.45 7.24 Q 185.21 7.66 180.89 7.28 Q 180.53 7.25 180.67 7.58 Q 180.75 7.76 180.91 7.76 A 1.32 1.30 90.0 0 1 182.20 9.07 Q 182.26 14.59 182.21 20.97 Q 182.20 22.33 181.38 23.28 Q 180.90 23.84 181.63 23.81 Q 185.54 23.66 189.17 24.02 A 1.00 0.98 19.9 0 0 190.09 23.60 Q 190.67 22.78 190.75 21.66 Q 190.81 20.92 190.36 21.51 Q 188.55 23.93 184.94 22.54 Q 184.25 22.27 184.24 21.53 L 184.22 16.24 Q 184.22 15.63 184.82 15.57" vector-effect="non-scaling-stroke"/><path stroke="#8382a1" d="M 198.77 16.98 L 201.06 16.98 A 1.24 1.21 71.7 0 1 202.05 17.49 C 204.15 20.42 206.50 24.57 210.78 23.80 Q 211.51 23.67 210.82 23.39 Q 210.22 23.14 209.58 23.02 Q 209.06 22.93 208.71 22.54 L 203.81 16.95 Q 203.34 16.41 203.86 15.91 C 206.22 13.64 207.38 10.13 204.09 8.02 Q 203.60 7.71 203.02 7.64 C 202.00 7.52 201.09 7.19 200.06 7.30 Q 197.65 7.57 195.13 7.27 Q 194.58 7.20 194.99 7.57 Q 195.22 7.78 195.55 7.88 A 1.18 1.17 8.8 0 1 196.38 9.00 Q 196.38 14.89 196.39 20.86 Q 196.40 22.49 195.45 23.41 Q 195.03 23.81 195.61 23.82 Q 197.81 23.89 199.68 23.73 Q 200.68 23.64 199.72 23.33 L 199.07 23.12 A 0.99 0.98 8.8 0 1 198.39 22.20 L 198.28 17.48 Q 198.27 16.98 198.77 16.98" vector-effect="non-scaling-stroke"/><path stroke="#8382a1" d="M 215.28 9.23 L 215.27 22.24 A 0.97 0.96 74.7 0 1 214.80 23.07 L 214.55 23.22 Q 213.63 23.76 214.70 23.77 L 218.83 23.83 Q 219.62 23.84 218.94 23.44 Q 218.64 23.27 218.33 23.22 A 1.03 1.02 -85.7 0 1 217.48 22.22 L 217.38 9.19 Q 217.38 8.65 217.91 8.55 Q 221.12 7.95 223.27 9.57 Q 223.85 10.00 223.65 9.30 Q 223.44 8.55 223.51 7.83 A 0.54 0.54 0.0 0 0 222.93 7.25 Q 216.48 7.72 210.20 7.22 Q 209.59 7.17 209.42 7.77 L 209.01 9.25 Q 208.76 10.13 209.50 9.59 Q 209.86 9.33 210.14 8.97 Q 210.48 8.52 211.04 8.51 L 214.48 8.45 Q 215.28 8.44 215.28 9.23" vector-effect="non-scaling-stroke"/><path stroke="#8382a1" d="M 292.66 8.44 Q 295.70 7.87 297.36 9.46 Q 297.79 9.87 297.92 9.30 Q 298.11 8.50 297.94 7.72 Q 297.85 7.30 297.42 7.31 L 290.75 7.44 Q 290.24 7.45 289.76 7.30 Q 289.25 7.14 288.78 7.30 Q 288.21 7.49 288.78 7.68 Q 289.28 7.85 289.66 8.14 Q 290.08 8.46 290.08 8.99 L 290.05 21.88 Q 290.05 22.45 289.66 22.85 L 289.37 23.14 Q 288.73 23.80 289.65 23.80 Q 292.96 23.80 296.57 24.01 C 297.89 24.09 298.68 23.09 298.74 21.84 Q 298.78 21.24 298.33 21.65 Q 296.03 23.80 292.76 22.53 Q 292.18 22.30 292.16 21.68 L 292.04 16.30 Q 292.02 15.73 292.59 15.67 Q 295.14 15.39 297.08 16.33 Q 297.61 16.59 297.66 16.00 L 297.76 14.75 Q 297.81 14.10 297.18 14.28 Q 295.12 14.88 292.66 14.56 A 0.72 0.71 -85.8 0 1 292.05 13.85 L 292.05 9.17 Q 292.05 8.55 292.66 8.44" vector-effect="non-scaling-stroke"/><path stroke="#808084" d="M 177.55 29.67 Q 178.15 28.86 177.17 29.08 Q 175.50 29.45 175.06 31.22 Q 174.86 32.03 175.55 31.56 Q 176.75 30.74 177.55 29.67" vector-effect="non-scaling-stroke"/><path stroke="#808084" d="M 191.7848 31.6049 A 1.70 0.61 128.8 0 0 193.3254 30.6622 A 1.70 0.61 128.8 0 0 193.9152 28.9551 A 1.70 0.61 128.8 0 0 192.3746 29.8978 A 1.70 0.61 128.8 0 0 191.7848 31.6049" vector-effect="non-scaling-stroke"/><path stroke="#808084" d="M 206.99 33.10 A 0.56 0.56 0.0 0 0 206.43 32.54 L 206.37 32.54 A 0.56 0.56 0.0 0 0 205.81 33.10 L 205.81 44.22 A 0.56 0.56 0.0 0 0 206.37 44.78 L 206.43 44.78 A 0.56 0.56 0.0 0 0 206.99 44.22 L 206.99 33.10" vector-effect="non-scaling-stroke"/><path stroke="#808084" d="M 252.0099 33.0210 A 0.42 0.42 0.0 0 0 251.5906 32.6002 L 251.3306 32.5998 A 0.42 0.42 0.0 0 0 250.9099 33.0190 L 250.8901 44.3390 A 0.42 0.42 0.0 0 0 251.3094 44.7598 L 251.5694 44.7602 A 0.42 0.42 0.0 0 0 251.9901 44.3410 L 252.0099 33.0210" vector-effect="non-scaling-stroke"/><path stroke="#808084" d="M 137.28 37.43 C 138.72 35.67 137.59 32.99 135.28 32.90 Q 133.99 32.85 132.70 32.86 Q 132.01 32.86 132.01 33.55 L 132.01 43.55 Q 132.01 44.26 132.72 44.27 C 134.75 44.29 137.14 44.70 138.44 42.69 C 139.79 40.60 138.63 39.69 137.31 38.31 Q 136.91 37.88 137.28 37.43" vector-effect="non-scaling-stroke"/><path stroke="#808084" d="M 145.52 40.62 A 0.25 0.25 0.0 0 1 145.76 40.46 L 149.93 40.58 A 0.25 0.25 0.0 0 1 150.15 40.73 L 151.60 44.10 A 0.25 0.25 0.0 0 0 151.82 44.25 L 152.40 44.28 A 0.25 0.25 0.0 0 0 152.64 43.93 L 148.08 32.82 A 0.25 0.25 0.0 0 0 147.62 32.82 L 143.01 43.93 A 0.25 0.25 0.0 0 0 143.20 44.27 L 143.72 44.37 A 0.25 0.25 0.0 0 0 144.00 44.22 L 145.52 40.62" vector-effect="non-scaling-stroke"/><path stroke="#808084" d="M 184.76 34.60 Q 184.37 35.22 184.27 35.91 Q 184.14 36.84 184.78 36.15 Q 186.00 34.85 186.05 33.23 Q 186.07 32.46 185.42 32.87 Q 184.87 33.21 184.94 33.81 Q 185.00 34.23 184.76 34.60" vector-effect="non-scaling-stroke"/><path stroke="#808084" d="M 213.80 44.21 A 0.25 0.25 0.0 0 0 214.02 43.95 L 213.90 35.43 A 0.25 0.25 0.0 0 1 214.33 35.25 L 223.10 44.45 A 0.25 0.25 0.0 0 0 223.53 44.27 L 223.48 33.17 A 0.25 0.25 0.0 0 0 223.24 32.93 L 222.73 32.92 A 0.25 0.25 0.0 0 0 222.47 33.17 L 222.52 41.75 A 0.25 0.25 0.0 0 1 222.09 41.92 L 213.35 32.90 A 0.25 0.25 0.0 0 0 212.92 33.07 L 212.98 44.02 A 0.25 0.25 0.0 0 0 213.26 44.27 L 213.80 44.21" vector-effect="non-scaling-stroke"/><path stroke="#808084" d="M 234.66 34.75 Q 235.40 35.37 235.16 34.43 C 234.39 31.50 229.21 32.12 229.54 36.13 A 1.76 1.73 -73.5 0 0 230.20 37.37 Q 231.69 38.55 233.68 39.33 A 1.92 1.91 27.2 0 1 234.59 42.15 Q 233.26 44.21 230.95 43.09 C 230.27 42.76 229.99 42.08 229.50 41.58 Q 229.04 41.12 228.92 41.75 Q 228.82 42.28 229.15 42.71 C 231.77 46.15 237.36 43.60 235.79 40.13 C 235.02 38.41 232.78 37.84 231.24 36.88 A 1.58 1.57 31.8 0 1 230.73 34.73 Q 232.02 32.59 234.66 34.75" vector-effect="non-scaling-stroke"/><path stroke="#83819a" d="M 242.02 33.85 A 0.24 0.24 0.0 0 1 242.26 34.09 L 242.19 43.95 A 0.24 0.24 0.0 0 0 242.41 44.19 L 242.99 44.25 A 0.24 0.24 0.0 0 0 243.25 44.01 L 243.25 34.03 A 0.24 0.24 0.0 0 1 243.50 33.79 L 245.84 33.87 A 0.24 0.24 0.0 0 0 246.08 33.69 L 246.21 33.18 A 0.24 0.24 0.0 0 0 245.98 32.88 L 239.55 32.94 A 0.24 0.24 0.0 0 0 239.31 33.19 L 239.32 33.62 A 0.24 0.24 0.0 0 0 239.56 33.85 L 242.02 33.85" vector-effect="non-scaling-stroke"/><path stroke="#808084" d="M 260.64 34.01 A 0.23 0.23 0.0 0 1 260.87 33.78 L 263.27 33.82 A 0.23 0.23 0.0 0 0 263.48 33.68 L 263.67 33.25 A 0.23 0.23 0.0 0 0 263.46 32.93 L 257.00 32.90 A 0.23 0.23 0.0 0 0 256.77 33.13 L 256.76 33.61 A 0.23 0.23 0.0 0 0 257.00 33.85 L 259.43 33.81 A 0.23 0.23 0.0 0 1 259.66 34.04 L 259.62 44.03 A 0.23 0.23 0.0 0 0 259.87 44.26 L 260.49 44.20 A 0.23 0.23 0.0 0 0 260.70 43.97 L 260.64 34.01" vector-effect="non-scaling-stroke"/><path stroke="#838292" d="M 283.79 34.50 L 283.77 43.79 Q 283.77 44.24 284.22 44.22 L 284.47 44.21 Q 284.91 44.20 284.91 43.75 L 284.82 34.48 Q 284.82 33.78 285.52 33.79 L 287.43 33.83 Q 287.69 33.84 287.70 33.58 L 287.70 33.23 Q 287.71 32.98 287.46 32.97 Q 284.37 32.83 281.80 32.99 Q 279.82 33.11 281.66 33.85 Q 282.18 34.06 282.82 33.82 Q 283.79 33.47 283.79 34.50" vector-effect="non-scaling-stroke"/><path stroke="#808084" d="M 164.77 38.50 A 0.24 0.24 0.0 0 1 165.01 38.74 L 165.00 43.98 A 0.24 0.24 0.0 0 0 165.25 44.22 L 165.76 44.19 A 0.24 0.24 0.0 0 0 165.99 43.95 L 165.99 33.25 A 0.24 0.24 0.0 0 0 165.76 33.01 L 165.28 33.00 A 0.24 0.24 0.0 0 0 165.04 33.23 L 164.97 37.36 A 0.24 0.24 0.0 0 1 164.74 37.59 L 158.61 37.63 A 0.24 0.24 0.0 0 1 158.37 37.39 L 158.40 33.19 A 0.24 0.24 0.0 0 0 158.15 32.95 L 157.56 32.97 A 0.24 0.24 0.0 0 0 157.33 33.21 L 157.30 43.96 A 0.24 0.24 0.0 0 0 157.55 44.20 L 158.19 44.17 A 0.24 0.24 0.0 0 0 158.42 43.93 L 158.31 38.75 A 0.24 0.24 0.0 0 1 158.55 38.51 L 164.77 38.50" vector-effect="non-scaling-stroke"/><path stroke="#808084" d="M 177.52 40.48 A 0.22 0.22 0.0 0 1 177.72 40.61 L 179.39 44.19 A 0.22 0.22 0.0 0 0 179.65 44.31 L 180.17 44.16 A 0.22 0.22 0.0 0 0 180.32 43.86 L 175.73 32.79 A 0.22 0.22 0.0 0 0 175.33 32.79 L 170.68 44.02 A 0.22 0.22 0.0 0 0 170.82 44.31 L 171.23 44.45 A 0.22 0.22 0.0 0 0 171.49 44.34 L 173.33 40.64 A 0.22 0.22 0.0 0 1 173.52 40.52 L 177.52 40.48" vector-effect="non-scaling-stroke"/><path stroke="#808084" d="M 192.89 33.39 A 0.37 0.37 0.0 0 0 192.52 33.02 L 192.22 33.02 A 0.37 0.37 0.0 0 0 191.85 33.39 L 191.85 43.89 A 0.37 0.37 0.0 0 0 192.22 44.26 L 192.52 44.26 A 0.37 0.37 0.0 0 0 192.89 43.89 L 192.89 33.39" vector-effect="non-scaling-stroke"/><path stroke="#808084" d="M 272.41 43.48 A 3.01 3.01 0.0 0 1 269.14 40.51 L 269.09 33.28 Q 269.09 32.97 268.77 32.97 L 268.35 32.97 Q 268.03 32.97 268.03 33.29 L 268.04 40.19 Q 268.04 44.28 272.13 44.46 Q 272.72 44.48 273.31 44.30 Q 276.10 43.45 276.08 40.55 L 276.05 33.31 Q 276.05 32.95 275.70 32.96 L 275.34 32.96 Q 275.02 32.97 275.02 33.29 L 275.00 40.76 Q 274.99 43.04 272.76 43.43 Q 272.58 43.46 272.41 43.48" vector-effect="non-scaling-stroke"/><path stroke="#83819a" d="M 293.37 34.14 A 0.24 0.24 0.0 0 1 293.61 33.89 L 297.68 33.86 A 0.24 0.24 0.0 0 0 297.91 33.66 L 297.99 33.17 A 0.24 0.24 0.0 0 0 297.75 32.89 L 292.55 32.94 A 0.24 0.24 0.0 0 0 292.31 33.18 L 292.32 44.00 A 0.24 0.24 0.0 0 0 292.56 44.24 L 297.71 44.23 A 0.24 0.24 0.0 0 0 297.95 44.00 L 297.96 43.34 A 0.24 0.24 0.0 0 0 297.72 43.10 L 293.70 43.20 A 0.24 0.24 0.0 0 1 293.45 42.96 L 293.46 38.73 A 0.24 0.24 0.0 0 1 293.71 38.49 L 297.67 38.66 A 0.24 0.24 0.0 0 0 297.92 38.40 L 297.88 37.81 A 0.24 0.24 0.0 0 0 297.64 37.59 L 293.73 37.63 A 0.24 0.24 0.0 0 1 293.49 37.40 L 293.37 34.14" vector-effect="non-scaling-stroke"/><path stroke="#e1aba4" d="M 64.35 65.27 Q 65.47 65.98 66.68 65.41 Q 66.91 65.30 66.80 65.08 L 66.66 64.81 Q 66.49 64.47 66.12 64.60 Q 65.17 64.94 64.63 64.34" vector-effect="non-scaling-stroke"/><path stroke="#e08e87" d="M 64.63 64.34 L 66.29 61.16 A 0.64 0.64 0.0 0 0 66.08 60.33 L 65.71 60.10 A 0.48 0.47 -58.8 0 0 65.03 60.27 L 62.91 64.32 Q 62.63 64.84 62.06 64.73 L 61.14 64.55 Q 60.71 64.46 60.44 64.80 Q 60.30 64.98 60.31 65.20 Q 60.36 65.80 60.92 65.58 L 61.48 65.37 A 0.50 0.50 0.0 0 1 62.09 66.08 Q 59.80 70.09 57.17 72.36 Q 54.14 74.97 55.53 71.22 Q 56.35 69.00 57.73 66.65 A 1.17 1.17 0.0 0 0 57.00 64.92 Q 55.75 64.62 54.82 65.38 Q 52.33 67.41 50.31 70.33 Q 50.27 70.38 50.22 70.35 L 49.97 70.19 Q 49.72 70.03 49.87 69.76 L 51.89 66.21 Q 52.31 65.48 51.54 65.14 L 51.18 64.98 A 0.52 0.52 0.0 0 0 50.47 65.32 C 49.72 68.01 45.95 72.83 42.99 73.47 Q 41.56 73.78 41.37 72.33 L 41.30 71.72 Q 41.14 70.46 42.36 70.10 Q 44.92 69.37 46.93 67.52 Q 48.45 66.12 46.79 64.89 Q 46.04 64.34 45.03 64.24 A 2.51 2.50 -69.5 0 0 42.70 65.31 C 40.17 69.01 36.60 73.63 32.65 75.54 A 2.38 2.38 0.0 0 1 29.27 73.85 C 28.22 68.37 33.18 62.04 37.26 59.11 A 1.82 1.81 30.9 0 1 38.60 58.78 Q 40.37 59.04 39.94 59.83 Q 39.19 61.17 38.36 62.40 Q 36.69 64.85 39.23 63.31 Q 39.76 62.99 41.25 60.55 Q 41.92 59.45 40.92 58.66 C 37.58 56.00 34.58 59.00 32.40 61.38 C 29.57 64.47 23.92 73.21 29.73 76.16 C 33.57 78.11 36.94 73.92 39.09 71.45 Q 39.61 70.86 39.87 71.60 Q 39.92 71.74 39.90 71.90 Q 39.82 72.62 40.29 73.17 C 42.23 75.46 45.01 74.39 46.68 72.44 Q 47.04 72.02 47.20 72.54 Q 47.25 72.70 47.16 72.83 Q 46.88 73.27 47.22 73.66 Q 47.70 74.21 48.36 74.02 Q 48.86 73.88 49.16 73.44 Q 51.92 69.34 55.27 66.20 Q 55.44 66.04 55.66 66.10 Q 55.79 66.13 55.89 66.22 Q 56.03 66.33 55.96 66.50 L 53.52 71.60 A 1.67 1.67 0.0 0 0 53.91 73.55 C 56.09 75.51 58.03 73.06 59.36 71.50 Q 60.16 70.56 59.94 71.78 Q 59.56 73.98 61.43 74.28 C 63.20 74.56 64.49 72.95 65.34 71.65 Q 66.12 70.47 66.25 71.88 C 66.54 75.31 70.77 74.85 72.70 72.88 Q 75.94 69.57 78.15 66.10 Q 78.52 65.52 79.15 65.80 L 79.39 65.91 A 0.30 0.29 26.1 0 1 79.53 66.30 L 77.26 71.24 A 2.36 2.36 0.0 0 0 77.74 73.90 Q 79.63 75.79 81.34 74.17 Q 82.84 72.76 83.17 71.42 Q 83.56 69.88 82.59 71.13 Q 81.55 72.47 80.10 73.52 Q 78.66 74.56 78.91 72.80 Q 79.40 69.42 81.63 66.65 Q 81.97 66.22 81.58 65.84 Q 80.80 65.09 79.71 65.29 Q 79.13 65.39 78.92 64.84 Q 78.68 64.18 79.31 63.77 Q 79.96 63.34 79.68 62.61 Q 79.47 62.06 78.80 62.00 A 0.75 0.73 -72.2 0 0 78.08 62.38 Q 77.10 64.12 76.88 65.97 Q 76.82 66.46 76.52 66.86 Q 73.80 70.50 70.49 73.29 A 1.49 1.49 0.0 0 1 68.63 73.34 Q 67.29 72.33 68.03 70.74 Q 68.26 70.26 68.76 70.11 Q 71.48 69.29 73.35 67.56 A 1.86 1.86 0.0 0 0 72.46 64.37 Q 70.03 63.87 68.38 66.27 C 66.95 68.34 64.28 72.33 61.96 73.26 A 0.46 0.46 0.0 0 1 61.34 72.75 Q 62.15 68.55 64.35 65.27" vector-effect="non-scaling-stroke"/><path stroke="#c13a2c" d="M 64.63 64.34 Q 64.58 64.81 64.35 65.27" vector-effect="non-scaling-stroke"/><path stroke="#e08e87" d="M 215.70 72.69 Q 215.54 73.00 215.49 73.33 A 0.58 0.58 0.0 0 0 215.94 74.00 L 216.35 74.08 Q 216.99 74.21 217.36 73.67 Q 220.16 69.54 223.71 66.17 A 0.53 0.51 44.1 0 1 224.41 66.17 L 224.60 66.34 Q 224.73 66.46 224.62 66.60 Q 222.45 69.26 221.90 72.38 A 1.47 1.46 -74.2 0 0 222.80 74.00 C 224.71 74.77 226.08 73.43 227.17 72.08 A 0.40 0.40 0.0 0 1 227.80 72.10 Q 227.93 72.28 227.86 72.50 Q 227.71 72.98 227.95 73.42 Q 228.64 74.70 229.98 74.03 Q 231.65 73.20 232.39 71.45 Q 232.50 71.18 232.80 71.15 Q 233.29 71.12 233.19 71.60 Q 232.75 73.83 235.01 74.59 Q 236.03 74.93 236.82 74.20 Q 238.33 72.80 238.90 70.95 Q 238.97 70.73 238.82 70.55 Q 238.74 70.44 238.57 70.44 Q 238.35 70.44 238.27 70.65 Q 237.59 72.34 236.18 73.31 Q 234.21 74.67 234.77 72.34 Q 236.20 66.40 240.90 58.88 A 0.50 0.49 -64.7 0 0 240.64 58.15 Q 240.22 58.00 239.82 58.18 Q 239.09 58.50 238.72 59.22 L 235.88 64.77 Q 235.59 65.33 235.02 65.06 Q 232.04 63.65 230.12 66.77 Q 228.15 69.96 225.97 71.94 Q 222.19 75.37 224.15 70.66 Q 224.95 68.73 225.95 66.90 A 1.54 1.53 52.2 0 0 226.09 65.76 Q 225.87 64.90 224.96 64.82 Q 224.03 64.74 223.35 65.33 Q 220.96 67.41 218.73 70.13 Q 218.70 70.17 218.64 70.14 L 218.39 69.99 Q 218.22 69.90 218.31 69.73 L 220.23 66.31 A 0.88 0.87 -48.7 0 0 220.17 65.37 Q 219.70 64.72 219.21 65.10 Q 219.00 65.27 218.89 65.53 Q 216.80 70.14 212.91 73.18 A 0.74 0.74 0.0 0 1 211.72 72.45 Q 212.44 68.82 214.65 66.25 Q 215.10 65.73 214.63 65.23 C 210.75 61.00 205.35 68.99 204.44 71.99 A 1.73 1.73 0.0 0 0 205.29 74.03 Q 207.27 75.07 209.18 72.13 Q 209.80 71.17 210.08 72.28 L 210.29 73.15 A 1.05 1.02 15.9 0 0 210.56 73.62 Q 211.66 74.68 213.13 74.14 C 214.03 73.81 214.50 72.83 215.36 72.36 Q 216.06 71.97 215.70 72.69" vector-effect="non-scaling-stroke"/><path stroke="#de8c85" d="M 246.15 69.49 Q 247.15 69.11 246.57 70.01 L 242.82 75.76 A 0.49 0.49 0.0 0 0 242.86 76.35 L 243.20 76.78 A 0.30 0.30 0.0 0 0 243.69 76.73 Q 245.88 72.72 248.77 69.27 Q 249.05 68.93 249.48 68.88 L 254.96 68.26 A 0.39 0.39 0.0 0 1 255.39 68.70 L 254.74 73.63 A 1.53 1.52 24.2 0 0 255.26 74.99 Q 257.00 76.47 257.28 75.73 Q 257.38 75.46 257.15 75.29 L 256.68 74.95 Q 256.29 74.67 256.33 74.20 Q 256.56 70.83 257.72 68.29 Q 257.86 67.98 257.82 67.64 Q 257.80 67.48 257.77 67.33 Q 257.69 66.99 257.78 66.65 Q 258.64 63.16 259.43 59.70 A 1.26 1.26 0.0 0 0 258.00 58.17 Q 257.09 58.32 256.43 58.98 Q 252.00 63.40 248.38 67.87 A 1.16 1.16 0.0 0 1 247.51 68.29 Q 245.72 68.30 244.20 69.27 Q 244.07 69.36 244.02 69.52 Q 243.98 69.66 244.01 69.80 Q 244.12 70.43 244.69 70.14 Q 245.42 69.76 246.15 69.49" vector-effect="non-scaling-stroke"/><path stroke="#de8c85" d="M 7.90 69.85 Q 6.12 72.39 4.46 74.85 A 2.23 2.21 -34.1 0 0 4.12 76.57 Q 4.17 76.79 4.36 76.79 A 0.31 0.29 -69.2 0 0 4.62 76.66 L 9.70 69.25 Q 10.06 68.71 10.71 68.72 Q 13.44 68.78 16.04 68.15 A 0.42 0.42 0.0 0 1 16.55 68.66 C 16.08 70.58 14.89 74.91 17.37 75.94 Q 17.74 76.09 18.11 75.90 Q 18.56 75.67 18.19 75.32 L 17.88 75.03 Q 17.58 74.74 17.57 74.33 C 17.50 71.66 18.44 69.53 18.93 67.00 Q 19.61 63.47 20.43 59.79 A 1.27 1.27 0.0 0 0 19.27 58.25 Q 18.30 58.18 17.52 59.00 C 14.65 61.98 11.97 64.72 9.66 67.76 Q 9.33 68.19 8.79 68.23 Q 6.94 68.38 5.22 69.34 Q 4.99 69.46 5.03 69.72 L 5.09 70.08 Q 5.14 70.41 5.45 70.26 Q 6.45 69.76 7.52 69.35 Q 8.52 68.96 7.90 69.85" vector-effect="non-scaling-stroke"/><path stroke="#de8c85" d="M 160.17 69.71 L 156.04 75.85 Q 155.83 76.16 156.05 76.45 L 156.25 76.71 A 0.28 0.28 0.0 0 0 156.70 76.70 L 161.89 69.22 Q 162.19 68.79 162.72 68.75 L 168.20 68.38 A 0.44 0.44 0.0 0 1 168.66 68.94 Q 167.95 71.51 168.02 74.19 Q 168.04 74.99 168.71 75.41 L 169.68 76.02 Q 170.76 76.70 170.25 75.54 Q 168.78 72.18 171.23 68.27 Q 171.43 67.95 171.22 67.61 Q 170.96 67.19 171.07 66.71 L 172.76 59.56 A 1.08 1.08 0.0 0 0 171.94 58.26 Q 170.72 58.00 169.83 58.86 Q 165.32 63.20 161.73 67.88 A 1.07 1.05 17.7 0 1 160.94 68.28 Q 158.87 68.34 157.17 69.54 Q 157.09 69.60 157.11 69.70 L 157.20 70.10 Q 157.30 70.51 157.65 70.29 Q 158.68 69.68 159.85 69.28 Q 160.64 69.02 160.17 69.71" vector-effect="non-scaling-stroke"/><path stroke="#de8c85" d="M 134.08 69.59 Q 136.99 64.87 139.25 59.70 A 0.80 0.79 -60.9 0 0 138.98 58.73 L 138.77 58.57 Q 138.29 58.24 138.03 58.76 Q 136.26 62.25 134.64 65.72 C 133.41 68.37 131.10 70.48 129.09 72.70 Q 128.53 73.32 127.69 73.29 A 0.48 0.48 0.0 0 1 127.24 72.71 Q 127.98 69.24 129.87 65.71 Q 130.12 65.24 130.65 65.33 C 131.17 65.42 131.44 65.71 132.02 65.65 Q 132.36 65.62 132.54 65.30 Q 132.85 64.74 132.23 64.63 Q 131.76 64.54 131.34 64.77 Q 130.93 64.99 130.73 64.57 Q 130.44 63.93 130.92 63.44 Q 132.41 61.91 131.92 60.64 Q 131.47 59.46 130.86 60.57 L 128.68 64.55 Q 128.39 65.07 127.85 64.82 Q 127.39 64.61 126.89 64.59 Q 126.64 64.58 126.47 64.75 Q 126.33 64.89 126.34 65.09 Q 126.35 65.80 127.01 65.55 Q 127.30 65.43 127.61 65.46 Q 128.48 65.52 127.99 66.24 C 127.08 67.58 124.36 72.81 126.67 74.01 A 2.60 2.60 0.0 0 0 130.02 73.17 Q 130.60 72.33 131.39 71.68 Q 131.99 71.19 131.78 71.94 Q 131.61 72.56 131.28 73.29 Q 131.09 73.71 131.49 73.94 L 131.79 74.11 Q 132.65 74.61 133.16 73.76 Q 135.42 70.00 138.45 66.97 Q 141.42 64.01 139.56 67.77 C 138.76 69.39 137.77 71.16 138.13 73.04 Q 138.23 73.56 138.68 73.83 C 140.97 75.22 142.53 72.85 143.78 71.31 Q 144.39 70.55 144.40 71.53 Q 144.42 73.90 146.95 74.37 C 149.10 74.78 150.71 72.90 151.72 71.33 Q 151.76 71.26 151.77 71.18 Q 151.91 69.99 151.10 70.88 Q 149.71 72.40 148.06 73.25 Q 146.59 74.02 146.04 72.45 Q 145.97 72.25 145.92 72.11 Q 145.36 70.50 146.99 69.99 Q 148.79 69.43 151.65 66.95 Q 152.83 65.93 151.57 65.02 L 151.03 64.63 A 2.31 2.31 0.0 0 0 148.62 64.45 Q 147.08 65.24 146.16 66.66 Q 144.02 69.99 141.07 72.85 Q 140.57 73.33 139.91 73.23 A 0.50 0.49 14.4 0 1 139.52 72.58 Q 140.49 69.73 141.71 67.08 C 142.25 65.90 141.89 64.73 140.43 64.50 A 1.60 1.59 -63.0 0 0 139.04 64.96 Q 136.64 67.44 134.47 70.17 Q 134.44 70.21 134.39 70.18 L 134.18 70.04 Q 133.91 69.86 134.08 69.59" vector-effect="non-scaling-stroke"/><path stroke="#de8c85" d="M 287.98 73.74 C 285.99 71.69 289.44 67.06 291.03 65.59 A 0.95 0.95 0.0 0 1 292.51 65.82 Q 292.98 66.69 292.18 67.50 Q 291.58 68.10 291.38 68.85 Q 291.17 69.62 291.88 69.24 Q 293.36 68.43 294.11 66.78 Q 294.58 65.72 293.57 65.16 Q 290.55 63.50 288.39 66.07 Q 285.98 68.94 283.48 71.95 Q 282.61 73.00 281.43 73.32 A 0.56 0.56 0.0 0 1 280.74 72.63 Q 281.64 69.29 283.64 66.43 Q 283.94 66.01 283.55 65.66 L 283.15 65.30 Q 282.68 64.87 282.36 65.42 Q 279.93 69.57 276.27 72.80 Q 274.54 74.33 275.01 72.07 Q 275.60 69.21 277.58 66.70 A 0.81 0.81 0.0 0 0 277.03 65.39 L 275.20 65.22 A 0.58 0.57 -60.8 0 1 274.91 64.19 Q 276.46 63.01 275.10 62.10 A 0.71 0.71 0.0 0 0 274.10 62.32 C 273.08 64.00 273.46 65.60 272.34 67.10 Q 269.56 70.86 266.52 73.18 Q 265.31 74.10 265.87 72.68 Q 267.27 69.09 269.21 66.21 Q 269.56 65.69 269.10 65.26 C 264.71 61.16 260.08 68.36 259.33 71.99 A 1.71 1.71 0.0 0 0 261.65 73.91 Q 262.72 73.48 263.66 72.37 Q 264.90 70.91 264.39 72.76 C 264.10 73.80 263.43 74.79 262.32 75.08 Q 259.12 75.92 256.52 77.68 A 1.31 1.31 0.0 0 0 256.62 79.91 C 259.89 81.71 263.04 78.08 264.49 75.48 Q 264.79 74.95 265.33 74.69 Q 270.53 72.21 274.13 65.95 A 0.69 0.69 0.0 0 1 275.08 65.69 L 275.37 65.87 A 0.52 0.51 31.2 0 1 275.55 66.60 C 274.31 68.45 273.22 70.43 273.27 72.67 Q 273.28 73.13 273.59 73.48 C 275.80 76.05 278.12 72.05 279.47 70.92 Q 279.95 70.53 279.87 71.14 Q 279.83 71.46 279.65 71.72 A 1.66 1.60 18.1 0 0 280.99 74.24 C 283.40 74.36 283.57 72.70 285.19 71.43 Q 285.80 70.94 285.78 71.72 Q 285.72 73.96 287.72 74.41" vector-effect="non-scaling-stroke"/><path stroke="#de928a" d="M 287.72 74.41 C 289.97 75.50 291.82 73.48 293.35 72.08 Q 293.99 71.49 293.99 72.36 Q 293.99 72.49 293.96 72.63 C 293.74 73.54 294.27 74.26 295.21 74.32 C 296.84 74.43 298.44 72.28 299.40 71.09 Q 299.47 71.01 299.57 70.97 Q 299.71 70.92 299.85 70.95 Q 300.24 71.03 300.10 71.41 Q 299.47 73.12 301.08 74.14 A 1.79 1.77 43.2 0 0 303.05 74.09 Q 304.47 73.08 305.58 71.54 Q 306.23 70.63 306.13 71.75 L 305.99 73.22 Q 305.95 73.75 306.38 74.06 C 308.90 75.89 310.36 73.02 311.80 71.47 Q 312.61 70.59 312.35 71.75 Q 311.85 73.99 314.02 74.26 Q 315.28 74.43 316.16 73.50 L 317.54 72.04 Q 318.08 71.47 318.04 72.25 L 318.01 72.79 A 1.48 1.48 0.0 0 0 320.21 74.16 Q 322.04 73.13 323.15 71.47 Q 323.97 70.22 324.02 71.72 C 324.04 72.28 323.90 72.80 324.27 73.32 C 325.37 74.88 327.26 74.36 328.39 73.09 C 330.56 70.66 332.32 68.11 334.39 65.77 A 1.51 1.44 71.0 0 0 334.76 64.96 Q 334.87 64.03 335.36 63.22 Q 335.60 62.82 335.40 62.35 A 0.76 0.76 0.0 0 0 334.24 62.04 C 332.49 63.39 333.32 65.60 331.88 67.38 Q 329.57 70.23 327.40 72.30 Q 324.86 74.74 325.89 71.37 Q 326.62 69.00 328.17 66.80 A 1.00 0.99 -55.0 0 0 327.93 65.41 L 327.70 65.25 A 0.56 0.56 0.0 0 0 326.91 65.40 Q 324.24 69.26 321.45 72.06 Q 318.33 75.20 320.15 71.16 Q 321.08 69.10 323.35 65.48 A 0.42 0.42 0.0 0 0 323.10 64.85 L 322.79 64.78 Q 321.98 64.59 321.54 65.30 Q 319.15 69.10 316.11 72.06 Q 312.94 75.14 314.27 70.92 Q 315.73 66.27 318.87 61.19 A 0.69 0.69 0.0 0 0 318.53 60.18 L 318.21 60.06 A 0.71 0.71 0.0 0 0 317.32 60.40 L 314.94 64.91 Q 314.58 65.59 314.07 65.02 Q 313.77 64.69 313.32 64.76 Q 313.17 64.78 313.19 64.94 L 313.22 65.19 Q 313.25 65.49 313.55 65.46 Q 313.94 65.42 314.23 65.81 A 0.60 0.58 -48.3 0 1 314.26 66.46 Q 312.00 70.33 308.57 73.40 Q 307.53 74.34 307.55 72.94 Q 307.57 71.70 308.06 70.54 Q 310.15 65.66 313.08 60.40 Q 313.46 59.71 312.89 59.18 L 312.65 58.96 A 0.36 0.35 37.7 0 0 312.10 59.03 C 309.42 63.63 307.35 69.23 303.03 72.65 Q 300.82 74.40 301.66 71.71 Q 302.49 69.04 304.12 66.58 A 0.84 0.84 0.0 0 0 303.69 65.33 L 303.43 65.24 A 0.51 0.51 0.0 0 0 302.85 65.43 Q 299.92 69.50 297.22 72.22 Q 294.37 75.10 295.94 71.37 Q 296.95 68.99 299.13 65.77 A 0.58 0.57 20.9 0 0 298.73 64.88 L 298.44 64.84 Q 297.61 64.72 297.20 65.46 Q 294.09 71.10 289.29 73.75 Q 288.71 74.08 287.98 73.74" vector-effect="non-scaling-stroke"/><path stroke="#bc1f10" d="M 287.72 74.41 Q 288.28 74.11 287.98 73.74" vector-effect="non-scaling-stroke"/><path stroke="#de8c85" d="M 178.75 65.25 Q 178.85 64.38 180.27 63.01 A 0.44 0.43 -45.4 0 0 180.27 62.38 L 180.08 62.20 A 0.91 0.91 0.0 0 0 178.91 62.14 Q 177.11 63.48 176.68 65.46 Q 176.57 66.01 176.23 66.45 L 172.24 71.67 Q 172.12 71.83 172.24 71.99 L 172.39 72.22 A 0.46 0.46 0.0 0 0 173.12 72.24 L 178.05 65.94" vector-effect="non-scaling-stroke"/><path stroke="#e08e87" d="M 178.05 65.94 Q 178.58 65.68 178.96 66.26 A 0.61 0.61 0.0 0 1 178.97 66.91 C 177.90 68.69 175.25 72.72 177.17 74.73 A 1.65 1.64 -40.5 0 0 179.37 74.90 Q 181.09 73.58 182.58 71.45 Q 183.61 69.97 183.31 71.75 L 183.21 72.34 A 1.74 1.74 0.0 0 0 185.37 74.31 L 187.10 73.86 Q 187.53 73.75 187.95 73.90 C 190.28 74.74 193.52 74.09 194.53 71.55 C 195.18 69.91 197.19 70.44 198.52 69.67 Q 199.22 69.26 198.41 69.20 Q 196.73 69.07 194.99 69.91 Q 194.53 70.13 194.28 69.68 Q 192.09 65.86 195.36 64.41 Q 195.84 64.19 195.62 63.71 L 195.50 63.44 Q 195.40 63.22 195.16 63.28 Q 193.02 63.84 192.22 65.59 C 191.12 67.95 188.49 70.42 186.83 72.27 Q 184.31 75.10 184.89 71.36 Q 185.30 68.72 187.68 65.12" vector-effect="non-scaling-stroke"/><path stroke="#e1aba4" d="M 187.68 65.12 Q 188.65 65.90 189.58 65.66 A 0.34 0.33 -11.0 0 0 189.84 65.28 L 189.72 64.60 A 0.33 0.32 67.0 0 0 189.21 64.39 Q 188.60 64.86 187.93 64.81" vector-effect="non-scaling-stroke"/><path stroke="#e08e87" d="M 187.93 64.81 Q 188.10 63.41 189.64 61.31 A 0.69 0.69 0.0 0 0 189.45 60.31 L 189.22 60.17 A 0.73 0.73 0.0 0 0 188.18 60.46 L 186.11 64.54 Q 185.82 65.11 185.26 64.79 Q 184.71 64.48 184.11 64.72 Q 183.64 64.91 183.98 65.28 Q 184.18 65.51 184.45 65.46 Q 185.18 65.32 185.10 66.06 C 184.86 68.18 181.01 71.91 179.48 73.54 Q 178.03 75.07 178.19 72.97 Q 178.36 70.73 181.12 67.15 A 0.73 0.72 17.0 0 0 180.50 65.99 Q 179.58 66.05 178.75 65.25" vector-effect="non-scaling-stroke"/><path stroke="#c13a2c" d="M 187.93 64.81 Q 187.76 65.47 187.68 65.12" vector-effect="non-scaling-stroke"/><path stroke="#be1b0c" d="M 178.05 65.94 Q 178.82 65.67 178.75 65.25" vector-effect="non-scaling-stroke"/><path stroke="#de8c85" d="M 95.08 71.97 Q 95.49 70.33 94.63 68.88 Q 94.37 68.45 94.59 68.01 L 97.80 61.55 A 0.87 0.87 0.0 0 0 97.49 60.43 L 97.19 60.24 A 0.53 0.53 0.0 0 0 96.41 60.49 C 94.75 64.64 92.28 68.24 90.56 72.31 Q 89.43 75.00 88.35 77.67 Q 87.66 79.39 89.14 80.51 A 0.95 0.95 0.0 0 0 89.96 80.67 C 92.33 79.99 93.95 76.42 94.67 74.31 Q 94.83 73.83 95.29 73.58 Q 96.78 72.77 97.94 71.38 Q 98.24 71.02 98.57 71.36 Q 98.77 71.55 98.54 71.83 A 0.56 0.54 -33.7 0 0 98.44 72.29 C 99.12 75.09 102.14 75.37 103.98 73.36 A 1.52 1.49 -74.1 0 1 104.75 72.92 Q 109.19 71.96 112.25 66.16 Q 112.65 65.39 113.43 65.75 L 113.79 65.92 A 0.36 0.36 0.0 0 1 113.93 66.46 C 112.52 68.40 110.07 72.73 112.96 74.66 A 1.65 1.64 45.2 0 0 114.78 74.67 Q 116.68 73.42 117.83 70.94 Q 117.89 70.81 117.77 70.72 L 117.53 70.55 Q 117.40 70.45 117.30 70.59 Q 115.85 72.65 113.91 73.81 A 0.55 0.54 77.8 0 1 113.09 73.28 Q 113.46 69.77 115.84 66.81 Q 116.17 66.40 115.88 65.96 Q 115.20 64.95 113.72 65.21 Q 113.06 65.32 113.14 64.66 Q 113.19 64.20 113.58 63.88 A 1.15 1.13 -20.6 0 0 114.01 62.95 Q 113.98 62.29 113.35 62.03 A 0.85 0.85 0.0 0 0 112.29 62.41 Q 111.57 63.73 111.46 65.24 A 2.28 2.27 64.5 0 1 111.08 66.32 C 110.09 67.80 107.67 71.51 105.80 71.66 Q 105.11 71.72 105.53 71.17 Q 106.80 69.54 107.22 67.49 A 1.69 1.68 21.0 0 0 106.42 65.70 L 104.19 64.39 Q 103.62 64.05 103.02 64.33 Q 100.56 65.49 99.38 67.91 Q 98.01 70.72 95.57 72.32 Q 94.88 72.78 95.08 71.97" vector-effect="non-scaling-stroke"/><path stroke="#de928a" d="M 283.68 63.10 Q 285.27 63.61 285.73 62.34 A 0.84 0.84 0.0 0 0 284.66 61.27 Q 283.87 61.55 283.39 62.20 A 0.58 0.58 0.0 0 0 283.68 63.10" vector-effect="non-scaling-stroke"/><path stroke="#de928a" d="M 339.55 71.54 Q 339.75 73.77 341.82 74.32 C 344.12 74.93 345.83 72.88 346.90 71.23 Q 347.01 71.05 346.98 70.84 Q 346.96 70.71 346.81 70.63 Q 346.59 70.52 346.43 70.70 Q 345.10 72.18 343.32 73.23 Q 341.93 74.05 341.09 72.67 Q 340.76 72.11 340.89 71.28 A 1.45 1.44 -6.8 0 1 341.78 70.15 Q 344.53 69.03 346.69 67.06 Q 347.91 65.96 346.64 64.93 Q 346.09 64.48 345.45 64.35 A 3.39 3.37 -66.7 0 0 341.98 65.74 Q 339.31 69.64 336.45 72.42 Q 334.19 74.62 334.84 71.53 Q 335.31 69.32 337.33 66.83 A 0.81 0.80 -53.5 0 0 337.16 65.65 L 336.71 65.35 Q 335.90 64.80 335.44 65.67 Q 333.69 69.02 332.99 71.75 Q 332.64 73.08 333.75 73.84 C 335.79 75.23 337.72 72.86 338.74 71.33 Q 339.44 70.29 339.55 71.54" vector-effect="non-scaling-stroke"/><path stroke="#e2a3a0" d="M 317.65 64.96 A 0.39 0.38 -50.0 0 0 317.70 65.54 Q 318.28 65.96 318.82 65.48 A 0.48 0.47 -57.6 0 0 318.64 64.67 Q 318.08 64.52 317.65 64.96" vector-effect="non-scaling-stroke"/><path stroke="#8382a1" d="M 134.50 7.14 L 134.56 21.64 A 1.49 1.49 0.0 0 0 136.05 23.13 L 139.10 23.12 A 8.26 8.12 -0.2 0 0 147.33 14.97 L 147.33 13.73 A 8.26 8.12 -0.2 0 0 139.04 5.64 L 135.99 5.65 A 1.49 1.49 0.0 0 0 134.50 7.14" vector-effect="non-scaling-stroke"/><path stroke="#8382a1" d="M 239.02 6.80 L 239.06 13.46 A 1.45 1.45 0.0 0 0 240.52 14.90 L 241.58 14.89 A 4.15 3.99 89.7 0 0 245.54 10.72 L 245.54 9.46 A 4.15 3.99 89.7 0 0 241.52 5.33 L 240.46 5.34 A 1.45 1.45 0.0 0 0 239.02 6.80" vector-effect="non-scaling-stroke"/><path stroke="#83819a" d="M 264.1338 23.1004 A 7.72 6.71 79.9 0 0 269.3860 14.3233 A 7.72 6.71 79.9 0 0 261.4262 7.8996 A 7.72 6.71 79.9 0 0 256.1740 16.6767 A 7.72 6.71 79.9 0 0 264.1338 23.1004" vector-effect="non-scaling-stroke"/><path stroke="#8382a1" d="M 198.19 9.32 L 198.37 15.20 A 1.02 1.02 0.0 0 0 199.43 16.19 L 200.83 16.14 A 3.33 3.29 88.2 0 0 204.02 12.71 L 203.98 11.45 A 3.33 3.29 88.2 0 0 200.59 8.23 L 199.18 8.27 A 1.02 1.02 0.0 0 0 198.19 9.32" vector-effect="non-scaling-stroke"/><path stroke="#808084" d="M 132.99 34.31 L 132.99 37.43 A 0.54 0.54 0.0 0 0 133.53 37.97 L 134.40 37.97 A 2.53 1.97 -0.1 0 0 136.93 36.00 L 136.93 35.74 A 2.53 1.97 -0.1 0 0 134.40 33.77 L 133.53 33.77 A 0.54 0.54 0.0 0 0 132.99 34.31" vector-effect="non-scaling-stroke"/><path stroke="#808084" d="M 132.99 39.26 L 132.99 42.82 A 0.46 0.46 0.0 0 0 133.45 43.28 L 135.17 43.28 A 2.78 2.09 -0.1 0 0 137.95 41.19 L 137.95 40.89 A 2.78 2.09 -0.1 0 0 135.17 38.80 L 133.45 38.80 A 0.46 0.46 0.0 0 0 132.99 39.26" vector-effect="non-scaling-stroke"/><path stroke="#808084" d="M 146.12 39.26 A 0.33 0.33 0.0 0 0 146.43 39.70 L 149.29 39.68 A 0.33 0.33 0.0 0 0 149.60 39.23 L 148.14 35.48 A 0.33 0.33 0.0 0 0 147.52 35.49 L 146.12 39.26" vector-effect="non-scaling-stroke"/><path stroke="#808084" d="M 175.88 35.61 A 0.33 0.33 0.0 0 0 175.27 35.60 L 173.76 39.20 A 0.33 0.33 0.0 0 0 174.06 39.66 L 176.94 39.72 A 0.33 0.33 0.0 0 0 177.26 39.27 L 175.88 35.61" vector-effect="non-scaling-stroke"/><path stroke="#e08e87" d="M 46.36 65.95 L 45.74 65.27 A 0.22 0.22 0.0 0 0 45.43 65.26 L 44.59 66.03 A 3.68 0.52 -42.4 0 0 42.22 68.89 L 42.44 69.13 A 3.68 0.52 -42.4 0 0 45.51 67.03 L 46.35 66.26 A 0.22 0.22 0.0 0 0 46.36 65.95" vector-effect="non-scaling-stroke"/><path stroke="#e08e87" d="M 72.92 65.89 L 72.30 65.19 A 0.21 0.21 0.0 0 0 72.00 65.18 L 71.88 65.28 A 4.75 0.51 -41.8 0 0 68.68 68.83 L 68.90 69.08 A 4.75 0.51 -41.8 0 0 72.79 66.30 L 72.91 66.19 A 0.21 0.21 0.0 0 0 72.92 65.89" vector-effect="non-scaling-stroke"/><path stroke="#e08e87" d="M 206.85 73.61 L 213.70 65.70 A 0.15 0.15 0.0 0 0 213.68 65.49 L 213.63 65.45 A 5.13 2.12 -49.1 0 0 208.67 67.93 L 208.34 68.31 A 5.13 2.12 -49.1 0 0 206.59 73.58 L 206.64 73.62 A 0.15 0.15 0.0 0 0 206.85 73.61" vector-effect="non-scaling-stroke"/><path stroke="#e08e87" d="M 229.36 72.13 Q 228.76 73.91 230.19 72.69 Q 233.19 70.13 235.02 66.51 Q 235.30 65.97 234.72 65.77 Q 233.30 65.28 232.39 66.50 Q 230.32 69.27 229.36 72.13" vector-effect="non-scaling-stroke"/><path stroke="#de8c85" d="M 250.19 67.29 A 0.33 0.33 0.0 0 0 250.46 67.84 L 255.54 67.40 A 0.33 0.33 0.0 0 0 255.83 67.15 L 257.70 59.77 A 0.33 0.33 0.0 0 0 257.13 59.47 L 250.19 67.29" vector-effect="non-scaling-stroke"/><path stroke="#de8c85" d="M 18.68 60.07 A 0.38 0.38 0.0 0 0 18.03 59.73 L 11.27 67.30 A 0.38 0.38 0.0 0 0 11.60 67.93 L 16.68 67.41 A 0.38 0.38 0.0 0 0 17.01 67.12 L 18.68 60.07" vector-effect="non-scaling-stroke"/><path stroke="#de8c85" d="M 170.93 59.86 A 0.33 0.33 0.0 0 0 170.36 59.56 L 163.34 67.36 A 0.33 0.33 0.0 0 0 163.62 67.91 L 168.77 67.38 A 0.33 0.33 0.0 0 0 169.06 67.14 L 170.93 59.86" vector-effect="non-scaling-stroke"/><path stroke="#de8c85" d="M 151.05 65.84 L 150.44 65.14 A 0.22 0.22 0.0 0 0 150.13 65.12 L 150.06 65.18 A 5.12 0.52 -40.9 0 0 146.53 68.93 L 146.74 69.17 A 5.12 0.52 -40.9 0 0 150.95 66.21 L 151.02 66.15 A 0.22 0.22 0.0 0 0 151.05 65.84" vector-effect="non-scaling-stroke"/><path stroke="#e08e87" d="M 192.07 70.07 Q 192.26 70.00 192.47 70.02 Q 193.23 70.10 192.93 69.39 Q 192.69 68.81 192.28 68.29 Q 191.86 67.74 191.47 68.31 L 190.07 70.36 Q 189.58 71.06 190.40 70.81 C 190.99 70.62 191.48 70.26 192.07 70.07" vector-effect="non-scaling-stroke"/><path stroke="#e08e87" d="M 192.91 70.75 L 188.46 72.48 A 0.15 0.15 0.0 0 0 188.37 72.68 L 188.39 72.72 A 1.79 1.10 -21.3 0 0 190.46 73.10 L 191.85 72.55 A 1.79 1.10 -21.3 0 0 193.12 70.88 L 193.10 70.83 A 0.15 0.15 0.0 0 0 192.91 70.75" vector-effect="non-scaling-stroke"/><path stroke="#de8c85" d="M 102.85 71.43 Q 101.21 68.94 104.11 65.87 Q 104.28 65.69 104.09 65.53 L 103.88 65.34 A 0.43 0.43 0.0 0 0 103.29 65.35 Q 99.70 68.80 99.98 73.17 Q 100.06 74.38 101.09 73.74 L 102.55 72.82 Q 103.42 72.28 102.85 71.43" vector-effect="non-scaling-stroke"/><path stroke="#de8c85" d="M 104.46 66.81 Q 102.98 68.40 103.18 70.17 Q 103.36 71.85 104.39 70.51 Q 105.56 69.01 105.90 67.00 Q 106.10 65.79 104.61 65.88 Q 104.57 65.88 104.58 65.92 Q 104.64 66.10 104.65 66.30 A 0.66 0.65 65.9 0 1 104.46 66.81" vector-effect="non-scaling-stroke"/><path stroke="#de8c85" d="M 92.54 72.06 L 92.32 72.31 Q 91.92 72.81 92.49 73.08 Q 93.00 73.32 93.50 73.20 A 0.59 0.58 -87.3 0 0 93.94 72.79 Q 94.40 71.21 94.01 69.82 Q 93.75 68.92 93.36 69.76 Q 92.91 70.71 92.71 71.69 Q 92.67 71.89 92.54 72.06" vector-effect="non-scaling-stroke"/><path stroke="#de8c85" d="M 92.16 73.88 Q 91.57 73.92 91.31 74.45 Q 90.09 76.85 89.64 78.87 Q 89.22 80.76 90.54 79.35 Q 92.36 77.40 93.28 74.55 Q 93.53 73.79 92.73 73.84 L 92.16 73.88" vector-effect="non-scaling-stroke"/><path stroke="#de8c85" d="M 260.75 72.43 Q 260.47 73.30 261.32 72.97 C 263.50 72.13 266.48 68.14 267.91 66.32 A 0.83 0.83 0.0 0 0 267.28 64.97 C 264.27 64.89 261.55 69.95 260.75 72.43" vector-effect="non-scaling-stroke"/><path stroke="#de8c85" d="M 261.68 75.99 Q 259.42 77.02 257.31 78.17 Q 256.87 78.41 256.94 78.90 Q 256.97 79.15 257.23 79.32 Q 257.70 79.62 258.23 79.46 Q 260.65 78.75 262.20 76.62 Q 263.14 75.31 261.68 75.99" vector-effect="non-scaling-stroke"/><path stroke="#de928a" d="M 346.18 65.86 L 345.56 65.14 A 0.18 0.18 0.0 0 0 345.30 65.12 L 345.01 65.37 A 4.79 0.52 -40.8 0 0 341.72 68.90 L 341.90 69.11 A 4.79 0.52 -40.8 0 0 345.87 66.37 L 346.16 66.12 A 0.18 0.18 0.0 0 0 346.18 65.86" vector-effect="non-scaling-stroke"/></g><path fill="#c0f4ff" d="M 26.03 3.74 L 3.78 3.57 Q 3.69 3.15 3.87 3.11 C 6.84 2.46 9.74 3.12 12.42 2.56 C 17.20 1.56 21.50 1.38 26.03 3.74 Z"/><path fill="#2393c7" d="M 3.78 3.57 L 26.03 3.74 Q 33.40 4.44 38.73 8.96 Q 38.90 9.37 38.89 9.63 A 0.39 0.38 15.0 0 1 38.33 9.95 L 37.53 9.53 Q 36.28 8.34 34.77 7.80 A 1.44 1.42 -43.5 0 0 33.84 7.78 L 30.70 8.82 C 25.51 5.91 18.50 5.73 12.76 6.35 L 11.42 7.33 Q 11.02 7.63 10.56 7.43 Q 9.97 7.18 9.45 7.56 Q 9.05 7.86 8.58 7.71 L 7.29 7.31 Q 6.54 4.60 3.91 4.93 A 0.69 0.69 0.0 0 1 3.19 3.96 Q 3.37 3.56 3.78 3.57 Z"/><path fill="#118cc3" d="M 64.37 5.15 Q 62.91 5.90 61.12 5.91 Q 60.06 5.92 61.05 6.31 Q 61.31 6.41 61.32 6.69 A 0.43 0.42 -13.7 0 1 61.07 7.09 Q 60.68 7.27 60.01 6.98 Q 56.15 5.30 51.82 6.02 Q 51.31 6.10 51.17 6.60 Q 50.89 7.60 51.01 9.15 Q 49.93 8.72 49.57 6.56 Q 49.42 5.65 48.76 6.28 Q 48.23 6.79 47.56 6.59 Q 47.09 6.46 47.13 6.93 Q 47.16 7.16 46.88 7.28 A 0.35 0.35 0.0 0 1 46.53 7.26 Q 46.23 7.08 46.12 6.75 Q 45.21 4.52 42.51 5.01 Q 41.85 5.13 41.76 4.46 L 41.70 4.04 Q 41.62 3.42 42.25 3.45 Q 49.44 3.73 56.99 3.62 Q 60.83 3.56 64.37 5.15 Z"/><path fill="#3d8dbe" d="M 99.60 10.26 Q 98.45 14.70 94.71 10.80 Q 91.96 4.01 84.97 6.20 L 79.93 6.67 Q 79.02 4.67 75.94 4.90 A 0.45 0.45 0.0 0 1 75.45 4.50 L 75.42 4.18 A 0.72 0.72 0.0 0 1 76.19 3.38 Q 82.53 3.79 88.57 3.58 C 93.73 3.40 97.96 5.15 99.60 10.26 Z"/><path fill="#2393c7" d="M 113.34 6.66 Q 112.44 6.60 111.46 6.67 Q 111.20 6.68 109.85 7.12 Q 108.87 7.43 108.07 6.83 Q 107.17 4.64 104.90 4.99 A 0.69 0.68 78.8 0 1 104.14 4.47 L 104.07 4.18 A 0.44 0.44 0.0 0 1 104.50 3.64 L 116.48 3.57 Q 117.04 3.56 116.97 4.12 L 116.93 4.46 A 0.56 0.56 0.0 0 1 116.32 4.96 Q 114.14 4.75 113.34 6.66 Z"/><path fill="#060543" d="M 131.63 23.10 A 0.37 0.37 0.0 0 0 132.11 22.77 Q 132.63 14.47 132.22 6.34 A 1.44 1.42 23.6 0 0 131.87 5.46 Q 131.51 5.03 130.98 4.78 Q 129.97 4.31 131.08 4.40 C 138.48 5.02 149.41 2.57 149.72 13.91 C 149.89 20.05 145.20 24.19 139.00 23.99 Q 135.25 23.87 131.61 23.82 Q 131.03 23.81 131.24 23.27 Q 131.34 23.02 131.63 23.10 Z M 134.50 7.14 L 134.56 21.64 A 1.49 1.49 0.0 0 0 136.05 23.13 L 139.10 23.12 A 8.26 8.12 -0.2 0 0 147.33 14.97 L 147.33 13.73 A 8.26 8.12 -0.2 0 0 139.04 5.64 L 135.99 5.65 A 1.49 1.49 0.0 0 0 134.50 7.14 Z"/><path fill="#060543" d="M 239.01 16.36 Q 239.24 18.99 239.20 21.75 C 239.19 22.75 240.10 23.32 240.99 23.36 Q 241.17 23.36 241.16 23.54 L 241.16 23.55 Q 241.15 23.75 240.95 23.75 Q 238.51 23.80 235.99 23.75 Q 235.15 23.73 235.90 23.35 Q 236.24 23.18 236.56 22.98 Q 237.07 22.66 237.07 22.06 L 237.07 6.13 Q 237.07 5.54 236.57 5.25 L 235.90 4.87 Q 235.04 4.37 236.03 4.44 Q 238.73 4.60 241.46 4.53 C 248.19 4.34 249.81 10.20 245.04 14.64 A 0.65 0.65 0.0 0 0 244.98 15.52 C 247.03 18.05 250.14 22.98 253.40 23.31 Q 254.64 23.44 253.42 23.72 C 251.50 24.16 249.24 23.83 247.84 22.27 Q 245.67 19.87 243.69 16.86 C 242.74 15.43 241.12 15.66 239.63 15.67 Q 238.95 15.68 239.01 16.36 Z M 239.02 6.80 L 239.06 13.46 A 1.45 1.45 0.0 0 0 240.52 14.90 L 241.58 14.89 A 4.15 3.99 89.7 0 0 245.54 10.72 L 245.54 9.46 A 4.15 3.99 89.7 0 0 241.52 5.33 L 240.46 5.34 A 1.45 1.45 0.0 0 0 239.02 6.80 Z"/><path fill="#6586af" d="M 64.37 5.15 Q 67.41 7.01 68.87 10.53 Q 69.10 12.25 67.59 12.71 Q 66.65 12.99 65.50 12.39 Q 64.50 11.86 63.48 11.16 Q 62.27 8.69 60.01 6.98 Q 60.68 7.27 61.07 7.09 A 0.43 0.42 -13.7 0 0 61.32 6.69 Q 61.31 6.41 61.05 6.31 Q 60.06 5.92 61.12 5.91 Q 62.91 5.90 64.37 5.15 Z"/><path fill="#787ea1" d="M 51.01 9.15 L 50.98 15.36 Q 48.53 16.35 47.83 14.80 Q 46.88 12.69 46.36 14.94 Q 46.35 14.97 46.32 15.96 L 46.12 6.75 Q 46.23 7.08 46.53 7.26 A 0.35 0.35 0.0 0 0 46.88 7.28 Q 47.16 7.16 47.13 6.93 Q 47.09 6.46 47.56 6.59 Q 48.23 6.79 48.76 6.28 Q 49.42 5.65 49.57 6.56 Q 49.93 8.72 51.01 9.15 Z"/><path fill="#6586af" d="M 12.76 6.35 L 12.67 14.31 Q 11.86 14.95 11.85 15.93 Q 11.85 16.42 11.39 16.60 Q 11.20 16.67 10.98 16.67 Q 10.48 16.68 10.17 16.29 Q 8.23 13.85 8.11 10.92 Q 8.11 10.87 8.15 10.84 Q 8.21 10.79 8.23 10.86 Q 8.24 10.90 8.24 10.95 Q 7.50 19.57 7.62 28.22 L 7.29 7.31 L 8.58 7.71 Q 9.05 7.86 9.45 7.56 Q 9.97 7.18 10.56 7.43 Q 11.02 7.63 11.42 7.33 L 12.76 6.35 Z"/><path fill="#6586af" d="M 84.97 6.20 L 84.93 12.71 L 84.08 12.65 Q 83.63 12.61 83.53 13.06 Q 83.46 13.39 83.22 13.66 A 0.91 0.91 0.0 0 1 81.70 13.40 L 80.05 9.32 L 79.93 6.67 L 84.97 6.20 Z"/><path fill="#787ea1" d="M 113.34 6.66 L 113.09 18.25 Q 112.68 17.14 111.87 17.63 Q 111.65 17.77 111.66 18.03 Q 111.68 18.33 111.38 18.36 Q 109.99 18.51 108.77 18.08 Q 108.23 17.89 108.18 18.47 L 108.06 19.97 L 108.07 6.83 Q 108.87 7.43 109.85 7.12 Q 111.20 6.68 111.46 6.67 Q 112.44 6.60 113.34 6.66 Z"/><path fill="#060334" d="M 173.30 17.82 C 171.60 16.43 169.49 15.23 168.18 13.46 C 166.31 10.93 167.94 7.63 170.95 7.13 Q 172.97 6.79 175.17 7.27 Q 175.66 7.37 175.81 7.85 Q 176.09 8.74 175.96 9.58 Q 175.83 10.36 175.38 9.72 Q 173.28 6.76 170.32 8.49 Q 167.74 10.00 169.97 12.24 C 172.50 14.80 179.16 17.57 175.31 22.39 C 173.88 24.18 169.33 24.74 167.49 23.53 Q 166.92 23.16 166.92 22.48 Q 166.93 21.54 167.10 20.74 Q 167.31 19.80 167.56 20.73 Q 168.36 23.74 172.18 22.98 C 174.93 22.44 175.28 19.43 173.30 17.82 Z"/><path fill="#060334" d="M 271.6025 13.6505 A 9.04 8.61 -12.0 0 1 264.5501 23.9519 A 9.04 8.61 -12.0 0 1 253.9175 17.4095 A 9.04 8.61 -12.0 0 1 260.9699 7.1081 A 9.04 8.61 -12.0 0 1 271.6025 13.6505 Z M 264.1338 23.1004 A 7.72 6.71 79.9 0 0 269.3860 14.3233 A 7.72 6.71 79.9 0 0 261.4262 7.8996 A 7.72 6.71 79.9 0 0 256.1740 16.6767 A 7.72 6.71 79.9 0 0 264.1338 23.1004 Z"/><path fill="#060334" d="M 276.95 10.87 A 2.05 2.02 15.3 0 0 277.79 12.32 C 280.04 13.96 284.51 16.49 284.24 19.65 C 283.84 24.31 279.60 24.46 275.82 23.85 A 0.94 0.94 0.0 0 1 275.08 23.22 Q 274.66 21.99 275.05 20.77 Q 275.32 19.92 275.53 20.78 Q 276.16 23.38 279.38 23.09 C 282.38 22.82 283.65 19.86 281.26 17.92 Q 279.23 16.28 277.23 14.70 C 274.70 12.70 274.48 9.09 277.63 7.54 Q 279.76 6.50 282.98 7.29 Q 283.54 7.43 283.75 7.97 Q 284.05 8.74 283.92 9.53 Q 283.79 10.29 283.34 9.66 Q 281.53 7.10 278.50 8.30 Q 276.75 8.99 276.95 10.87 Z"/><path fill="#060543" d="M 157.04 9.06 L 157.02 13.85 A 0.70 0.70 0.0 0 0 157.59 14.54 Q 159.87 14.95 162.04 14.30 Q 162.94 14.03 162.62 14.92 Q 162.39 15.54 162.56 16.19 Q 162.76 16.94 162.11 16.50 Q 160.30 15.28 157.54 15.65 Q 157.02 15.72 157.02 16.25 L 157.06 21.59 A 1.06 1.04 10.5 0 0 157.73 22.55 Q 161.20 23.91 163.25 21.57 Q 163.77 20.97 163.65 21.76 Q 163.50 22.67 163.06 23.42 Q 162.73 23.98 162.09 23.96 L 154.31 23.74 Q 153.43 23.71 154.15 23.21 Q 154.32 23.09 154.49 22.98 A 1.12 1.11 -16.4 0 0 155.01 22.04 L 155.00 8.79 A 0.82 0.81 -79.5 0 0 154.48 8.03 Q 154.15 7.91 153.86 7.73 Q 153.28 7.38 153.96 7.38 L 162.33 7.39 Q 163.02 7.39 163.00 8.08 L 162.97 9.28 Q 162.95 10.13 162.32 9.56 Q 162.10 9.35 162.07 9.05 A 0.59 0.59 0.0 0 0 161.52 8.53 L 157.82 8.32 A 0.74 0.73 -88.2 0 0 157.04 9.06 Z"/><path fill="#060524" d="M 184.22 16.24 L 184.24 21.53 Q 184.25 22.27 184.94 22.54 Q 188.55 23.93 190.36 21.51 Q 190.81 20.92 190.75 21.66 Q 190.67 22.78 190.09 23.60 A 1.00 0.98 19.9 0 1 189.17 24.02 Q 185.54 23.66 181.63 23.81 Q 180.90 23.84 181.38 23.28 Q 182.20 22.33 182.21 20.97 Q 182.26 14.59 182.20 9.07 A 1.32 1.30 90.0 0 0 180.91 7.76 Q 180.75 7.76 180.67 7.58 Q 180.53 7.25 180.89 7.28 Q 185.21 7.66 189.45 7.24 Q 190.03 7.19 190.04 7.77 Q 190.05 8.52 189.90 9.23 Q 189.68 10.24 189.20 9.32 Q 189.13 9.19 189.07 9.05 Q 188.81 8.51 188.22 8.48 L 184.84 8.32 Q 184.21 8.29 184.21 8.91 L 184.22 14.00 A 0.51 0.51 0.0 0 0 184.63 14.50 Q 187.11 14.99 189.10 14.33 Q 190.06 14.01 189.71 14.96 Q 189.50 15.51 189.68 16.03 Q 189.98 16.94 189.18 16.41 Q 187.53 15.32 184.82 15.57 Q 184.22 15.63 184.22 16.24 Z"/><path fill="#060543" d="M 198.28 17.48 L 198.39 22.20 A 0.99 0.98 8.8 0 0 199.07 23.12 L 199.72 23.33 Q 200.68 23.64 199.68 23.73 Q 197.81 23.89 195.61 23.82 Q 195.03 23.81 195.45 23.41 Q 196.40 22.49 196.39 20.86 Q 196.38 14.89 196.38 9.00 A 1.18 1.17 8.8 0 0 195.55 7.88 Q 195.22 7.78 194.99 7.57 Q 194.58 7.20 195.13 7.27 Q 197.65 7.57 200.06 7.30 C 201.09 7.19 202.00 7.52 203.02 7.64 Q 203.60 7.71 204.09 8.02 C 207.38 10.13 206.22 13.64 203.86 15.91 Q 203.34 16.41 203.81 16.95 L 208.71 22.54 Q 209.06 22.93 209.58 23.02 Q 210.22 23.14 210.82 23.39 Q 211.51 23.67 210.78 23.80 C 206.50 24.57 204.15 20.42 202.05 17.49 A 1.24 1.21 71.7 0 0 201.06 16.98 L 198.77 16.98 Q 198.27 16.98 198.28 17.48 Z M 198.19 9.32 L 198.37 15.20 A 1.02 1.02 0.0 0 0 199.43 16.19 L 200.83 16.14 A 3.33 3.29 88.2 0 0 204.02 12.71 L 203.98 11.45 A 3.33 3.29 88.2 0 0 200.59 8.23 L 199.18 8.27 A 1.02 1.02 0.0 0 0 198.19 9.32 Z"/><path fill="#060543" d="M 214.48 8.45 L 211.04 8.51 Q 210.48 8.52 210.14 8.97 Q 209.86 9.33 209.50 9.59 Q 208.76 10.13 209.01 9.25 L 209.42 7.77 Q 209.59 7.17 210.20 7.22 Q 216.48 7.72 222.93 7.25 A 0.54 0.54 0.0 0 1 223.51 7.83 Q 223.44 8.55 223.65 9.30 Q 223.85 10.00 223.27 9.57 Q 221.12 7.95 217.91 8.55 Q 217.38 8.65 217.38 9.19 L 217.48 22.22 A 1.03 1.02 -85.7 0 0 218.33 23.22 Q 218.64 23.27 218.94 23.44 Q 219.62 23.84 218.83 23.83 L 214.70 23.77 Q 213.63 23.76 214.55 23.22 L 214.80 23.07 A 0.97 0.96 74.7 0 0 215.27 22.24 L 215.28 9.23 Q 215.28 8.44 214.48 8.45 Z"/><path fill="#060543" d="M 292.05 9.17 L 292.05 13.85 A 0.72 0.71 -85.8 0 0 292.66 14.56 Q 295.12 14.88 297.18 14.28 Q 297.81 14.10 297.76 14.75 L 297.66 16.00 Q 297.61 16.59 297.08 16.33 Q 295.14 15.39 292.59 15.67 Q 292.02 15.73 292.04 16.30 L 292.16 21.68 Q 292.18 22.30 292.76 22.53 Q 296.03 23.80 298.33 21.65 Q 298.78 21.24 298.74 21.84 C 298.68 23.09 297.89 24.09 296.57 24.01 Q 292.96 23.80 289.65 23.80 Q 288.73 23.80 289.37 23.14 L 289.66 22.85 Q 290.05 22.45 290.05 21.88 L 290.08 8.99 Q 290.08 8.46 289.66 8.14 Q 289.28 7.85 288.78 7.68 Q 288.21 7.49 288.78 7.30 Q 289.25 7.14 289.76 7.30 Q 290.24 7.45 290.75 7.44 L 297.42 7.31 Q 297.85 7.30 297.94 7.72 Q 298.11 8.50 297.92 9.30 Q 297.79 9.87 297.36 9.46 Q 295.70 7.87 292.66 8.44 Q 292.05 8.55 292.05 9.17 Z"/><path fill="#6586af" d="M 37.53 9.53 L 39.43 11.45 Q 39.82 11.85 39.37 12.17 Q 38.95 12.47 38.42 12.35 Q 37.29 12.09 36.24 12.08 Q 35.75 12.08 35.47 11.68 Q 34.74 10.66 33.79 11.09 L 30.70 8.82 L 33.84 7.78 A 1.44 1.42 -43.5 0 1 34.77 7.80 Q 36.28 8.34 37.53 9.53 Z"/><path fill="#89778e" d="M 38.73 8.96 Q 42.12 11.98 43.70 16.27 Q 42.74 16.31 42.49 17.15 Q 42.36 17.59 41.91 17.50 L 37.92 16.73 L 33.79 11.09 Q 34.74 10.66 35.47 11.68 Q 35.75 12.08 36.24 12.08 Q 37.29 12.09 38.42 12.35 Q 38.95 12.47 39.37 12.17 Q 39.82 11.85 39.43 11.45 L 37.53 9.53 L 38.33 9.95 A 0.39 0.38 15.0 0 0 38.89 9.63 Q 38.90 9.37 38.73 8.96 Z"/><path fill="#94707f" d="M 80.05 9.32 L 81.70 13.40 A 0.91 0.91 0.0 0 0 83.22 13.66 Q 83.46 13.39 83.53 13.06 Q 83.63 12.61 84.08 12.65 L 84.93 12.71 L 84.97 20.69 Q 84.03 18.76 80.01 20.18 L 80.05 9.32 Z"/><path fill="#89778e" d="M 99.60 10.26 Q 100.12 13.44 98.95 16.10 Q 97.48 15.35 95.03 16.03 L 94.71 10.80 Q 98.45 14.70 99.60 10.26 Z"/><path fill="#94707f" d="M 68.87 10.53 Q 69.90 15.23 68.14 19.11 Q 67.91 17.79 63.94 19.20 Q 64.50 14.95 63.48 11.16 Q 64.50 11.86 65.50 12.39 Q 66.65 12.99 67.59 12.71 Q 69.10 12.25 68.87 10.53 Z"/><path fill="#c25749" d="M 12.67 14.31 L 12.50 39.67 Q 12.49 39.89 12.46 40.10 Q 12.41 40.45 12.07 40.34 L 11.75 40.25 Q 11.57 40.08 11.47 39.72 Q 11.27 36.97 11.09 34.25 Q 11.05 33.67 10.29 33.67 A 0.09 0.09 0.0 0 0 10.22 33.81 Q 10.29 33.92 10.30 34.04 Q 10.32 34.22 10.20 34.36 Q 8.94 35.81 9.48 37.80 Q 9.60 38.26 9.47 38.72 Q 9.31 39.26 9.11 39.75 Q 8.52 41.17 8.26 39.65 L 7.97 38.01 L 7.62 28.22 Q 7.50 19.57 8.24 10.95 Q 8.24 10.90 8.23 10.86 Q 8.21 10.79 8.15 10.84 Q 8.11 10.87 8.11 10.92 Q 8.23 13.85 10.17 16.29 Q 10.48 16.68 10.98 16.67 Q 11.20 16.67 11.39 16.60 Q 11.85 16.42 11.85 15.93 Q 11.86 14.95 12.67 14.31 Z"/><path fill="#a9626b" d="M 50.98 15.36 L 51.06 21.77 Q 49.60 20.31 48.56 19.98 Q 48.07 19.83 47.70 20.19 Q 46.77 21.12 46.27 22.18 L 46.32 15.96 Q 46.35 14.97 46.36 14.94 Q 46.88 12.69 47.83 14.80 Q 48.53 16.35 50.98 15.36 Z"/><path fill="#bd4f4a" d="M 98.95 16.10 L 95.60 21.10 Q 95.33 21.51 95.77 21.70 Q 102.36 24.68 103.93 31.12 Q 103.87 31.93 103.54 32.36 Q 103.08 32.97 102.79 32.26 L 102.58 31.73 A 1.12 1.11 67.9 0 0 101.13 31.11 Q 100.74 31.27 100.58 31.55 Q 99.64 33.11 98.96 31.32 Q 98.70 30.65 97.95 30.30 Q 94.37 22.45 85.62 23.32 Q 85.11 23.37 85.08 23.87 L 84.93 26.29 Q 84.82 28.52 84.86 30.11 Q 84.91 32.11 83.41 30.79 Q 82.92 30.35 82.45 30.83 Q 82.05 31.25 81.50 31.06 Q 80.01 30.55 80.03 28.52 L 80.01 20.18 Q 84.03 18.76 84.97 20.69 C 89.52 22.12 94.23 21.33 95.03 16.03 Q 97.48 15.35 98.95 16.10 Z"/><path fill="#b85253" d="M 43.70 16.27 Q 46.34 23.79 43.78 31.54 L 42.87 32.35 Q 42.48 32.69 42.27 32.21 Q 41.99 31.59 41.25 31.56 A 0.71 0.71 0.0 0 0 40.61 31.90 L 38.83 34.78 Q 38.41 35.46 38.16 34.70 Q 38.05 34.35 38.14 33.79 Q 41.00 25.33 37.92 16.73 L 41.91 17.50 Q 42.36 17.59 42.49 17.15 Q 42.74 16.31 43.70 16.27 Z"/><path fill="#bb605f" d="M 113.09 18.25 L 113.13 19.03 L 113.03 33.01 L 112.76 34.21 Q 112.63 34.75 112.15 34.47 Q 111.84 34.29 111.77 34.05 A 0.79 0.79 0.0 0 0 110.60 33.59 Q 108.98 34.58 108.25 34.19 L 108.20 29.65 Q 108.31 28.61 108.76 30.22 Q 108.93 30.81 109.37 30.38 Q 110.65 29.13 112.06 29.70 Q 112.73 29.97 112.74 29.26 L 112.91 22.80 Q 112.92 22.20 112.33 22.12 Q 108.72 21.58 108.11 25.78 L 108.06 19.97 L 108.18 18.47 Q 108.23 17.89 108.77 18.08 Q 109.99 18.51 111.38 18.36 Q 111.68 18.33 111.66 18.03 Q 111.65 17.77 111.87 17.63 Q 112.68 17.14 113.09 18.25 Z"/><path fill="#bd4f4a" d="M 68.14 19.11 Q 66.44 22.66 63.52 25.33 A 1.07 1.06 50.0 0 0 63.40 26.77 L 69.94 35.20 Q 69.61 35.51 69.59 36.16 Q 69.57 37.01 69.00 36.38 Q 68.81 36.18 68.68 35.92 Q 68.40 35.39 67.80 35.31 Q 65.08 34.95 62.16 32.85 L 58.83 28.47 Q 58.52 28.06 58.00 28.03 L 51.12 27.71 Q 51.09 30.34 50.83 33.01 Q 50.70 34.41 49.59 33.55 Q 49.42 33.42 49.09 32.79 Q 48.80 32.22 48.18 32.37 Q 47.98 32.42 47.79 32.36 Q 47.28 32.19 47.17 31.67 L 46.10 26.54 L 46.27 22.18 Q 46.77 21.12 47.70 20.19 Q 48.07 19.83 48.56 19.98 Q 49.60 20.31 51.06 21.77 Q 50.94 22.88 51.35 24.26 Q 51.49 24.74 51.98 24.85 Q 55.50 25.67 57.30 25.53 Q 62.99 25.10 63.94 19.20 Q 67.91 17.79 68.14 19.11 Z"/><path fill="#efbb66" d="M 113.13 19.03 C 113.25 26.33 112.77 33.83 113.49 41.08 Q 113.80 44.25 117.76 43.79 A 0.45 0.44 73.3 0 1 118.20 44.03 L 118.38 44.38 Q 118.55 44.74 118.17 44.83 Q 116.78 45.15 116.00 45.11 Q 110.21 44.74 104.41 44.97 Q 103.93 44.99 104.09 44.54 L 104.22 44.18 A 0.53 0.52 14.8 0 1 104.80 43.85 Q 107.31 44.27 107.66 42.27 Q 108.47 37.67 108.05 29.78 Q 108.12 29.71 108.20 29.65 L 108.25 34.19 Q 107.86 36.68 108.33 39.07 Q 108.45 39.69 108.98 39.34 Q 110.58 38.29 111.95 39.10 Q 112.50 39.43 112.67 38.82 Q 113.45 36.06 113.03 33.01 L 113.13 19.03 Z"/><path fill="#c54640" d="M 108.20 29.65 Q 108.12 29.71 108.05 29.78 L 108.11 25.78 Q 108.72 21.58 112.33 22.12 Q 112.92 22.20 112.91 22.80 L 112.74 29.26 Q 112.73 29.97 112.06 29.70 Q 110.65 29.13 109.37 30.38 Q 108.93 30.81 108.76 30.22 Q 108.31 28.61 108.20 29.65 Z"/><path fill="#d18e6a" d="M 84.93 26.29 L 85.01 40.04 A 2.16 2.16 0.0 0 0 86.36 42.03 Q 88.79 42.99 91.39 42.93 C 99.12 42.76 99.70 36.21 97.95 30.30 Q 98.70 30.65 98.96 31.32 Q 99.64 33.11 100.58 31.55 Q 100.74 31.27 101.13 31.11 A 1.12 1.11 67.9 0 1 102.58 31.73 L 102.79 32.26 Q 103.08 32.97 103.54 32.36 Q 103.87 31.93 103.93 31.12 C 105.16 40.37 97.64 45.56 89.30 45.11 Q 83.95 44.82 78.83 44.90 Q 77.61 44.91 78.38 45.86 L 79.85 47.67 Q 79.43 48.91 80.50 49.62 Q 80.68 49.74 80.53 49.89 L 80.34 50.08 Q 80.30 50.11 80.27 50.07 Q 78.41 47.87 76.95 45.63 Q 76.61 45.10 75.99 45.20 L 74.24 45.48 A 0.49 0.49 0.0 0 0 73.83 45.91 Q 73.81 46.10 73.88 46.28 Q 74.25 47.24 73.67 46.33 Q 73.03 45.32 71.99 45.52 L 62.16 32.85 Q 65.08 34.95 67.80 35.31 Q 68.40 35.39 68.68 35.92 Q 68.81 36.18 69.00 36.38 Q 69.57 37.01 69.59 36.16 Q 69.61 35.51 69.94 35.20 L 76.38 43.32 Q 76.69 43.71 77.19 43.70 Q 79.71 43.64 79.84 40.36 Q 80.06 34.49 80.03 28.52 Q 80.01 30.55 81.50 31.06 Q 82.05 31.25 82.45 30.83 Q 82.92 30.35 83.41 30.79 Q 84.91 32.11 84.86 30.11 Q 84.82 28.52 84.93 26.29 Z"/><path fill="#d18e6a" d="M 46.10 26.54 L 47.17 31.67 Q 47.28 32.19 47.79 32.36 Q 47.98 32.42 48.18 32.37 Q 48.80 32.22 49.09 32.79 Q 49.42 33.42 49.59 33.55 Q 50.70 34.41 50.83 33.01 Q 51.09 30.34 51.12 27.71 Q 51.25 33.51 51.13 39.13 C 51.05 42.39 52.30 44.16 55.78 43.84 Q 56.05 43.82 56.13 44.07 L 56.23 44.39 A 0.35 0.35 0.0 0 1 55.90 44.84 L 42.78 44.95 A 0.41 0.41 0.0 0 1 42.36 44.50 L 42.38 44.20 Q 42.43 43.68 42.95 43.75 Q 46.16 44.19 46.18 40.37 Q 46.20 33.47 46.10 26.54 Z"/><path fill="#000008" d="M 177.55 29.67 Q 176.75 30.74 175.55 31.56 Q 174.86 32.03 175.06 31.22 Q 175.50 29.45 177.17 29.08 Q 178.15 28.86 177.55 29.67 Z"/><ellipse fill="#000008" rx="1.7" ry=".61" transform="matrix(-0.626604, 0.779338, -0.779338, -0.626604, 192.850006, 30.280001)"/><path fill="#dea35b" d="M 43.78 31.54 Q 41.58 37.56 37.95 40.27 Q 30.83 45.59 21.95 45.10 Q 16.05 44.78 9.85 44.48 Q 7.28 44.35 4.60 45.07 A 0.51 0.50 77.7 0 1 3.97 44.66 Q 3.86 43.96 4.44 44.02 C 7.94 44.38 8.05 41.07 7.97 38.01 L 8.26 39.65 Q 8.52 41.17 9.11 39.75 Q 9.31 39.26 9.47 38.72 Q 9.60 38.26 9.48 37.80 Q 8.94 35.81 10.20 34.36 Q 10.32 34.22 10.30 34.04 Q 10.29 33.92 10.22 33.81 A 0.09 0.09 0.0 0 1 10.29 33.67 Q 11.05 33.67 11.09 34.25 Q 11.27 36.97 11.47 39.72 Q 11.27 39.71 11.04 39.53 Q 10.55 39.13 10.22 39.67 Q 9.68 40.54 9.47 41.76 Q 9.44 41.93 9.27 41.96 Q 9.13 41.99 9.01 42.05 Q 8.49 42.33 8.96 42.69 Q 10.38 43.79 12.05 42.78 Q 12.48 42.52 12.24 42.09 Q 11.74 41.20 11.75 40.25 L 12.07 40.34 Q 12.41 40.45 12.46 40.10 Q 12.49 39.89 12.50 39.67 Q 12.77 41.96 13.87 42.32 C 22.57 45.20 34.39 43.28 38.14 33.79 Q 38.05 34.35 38.16 34.70 Q 38.41 35.46 38.83 34.78 L 40.61 31.90 A 0.71 0.71 0.0 0 1 41.25 31.56 Q 41.99 31.59 42.27 32.21 Q 42.48 32.69 42.87 32.35 L 43.78 31.54 Z"/><rect width="1.18" height="12.24" x="205.81" y="32.54" fill="#000008" rx=".56"/><rect width="1.1" height="12.16" x="-.55" y="-6.08" fill="#000008" rx=".42" transform="matrix(0.999998, 0.001745, -0.001745, 0.999998, 251.449997, 38.68)"/><path fill="#000008" d="M 137.31 38.31 C 138.63 39.69 139.79 40.60 138.44 42.69 C 137.14 44.70 134.75 44.29 132.72 44.27 Q 132.01 44.26 132.01 43.55 L 132.01 33.55 Q 132.01 32.86 132.70 32.86 Q 133.99 32.85 135.28 32.90 C 137.59 32.99 138.72 35.67 137.28 37.43 Q 136.91 37.88 137.31 38.31 Z M 132.99 34.31 L 132.99 37.43 A 0.54 0.54 0.0 0 0 133.53 37.97 L 134.40 37.97 A 2.53 1.97 -0.1 0 0 136.93 36.00 L 136.93 35.74 A 2.53 1.97 -0.1 0 0 134.40 33.77 L 133.53 33.77 A 0.54 0.54 0.0 0 0 132.99 34.31 Z M 132.99 39.26 L 132.99 42.82 A 0.46 0.46 0.0 0 0 133.45 43.28 L 135.17 43.28 A 2.78 2.09 -0.1 0 0 137.95 41.19 L 137.95 40.89 A 2.78 2.09 -0.1 0 0 135.17 38.80 L 133.45 38.80 A 0.46 0.46 0.0 0 0 132.99 39.26 Z"/><path fill="#000008" d="M 145.52 40.62 L 144.00 44.22 A 0.25 0.25 0.0 0 1 143.72 44.37 L 143.20 44.27 A 0.25 0.25 0.0 0 1 143.01 43.93 L 147.62 32.82 A 0.25 0.25 0.0 0 1 148.08 32.82 L 152.64 43.93 A 0.25 0.25 0.0 0 1 152.40 44.28 L 151.82 44.25 A 0.25 0.25 0.0 0 1 151.60 44.10 L 150.15 40.73 A 0.25 0.25 0.0 0 0 149.93 40.58 L 145.76 40.46 A 0.25 0.25 0.0 0 0 145.52 40.62 Z M 146.12 39.26 A 0.33 0.33 0.0 0 0 146.43 39.70 L 149.29 39.68 A 0.33 0.33 0.0 0 0 149.60 39.23 L 148.14 35.48 A 0.33 0.33 0.0 0 0 147.52 35.49 L 146.12 39.26 Z"/><path fill="#000008" d="M 184.94 33.81 Q 184.87 33.21 185.42 32.87 Q 186.07 32.46 186.05 33.23 Q 186.00 34.85 184.78 36.15 Q 184.14 36.84 184.27 35.91 Q 184.37 35.22 184.76 34.60 Q 185.00 34.23 184.94 33.81 Z"/><path fill="#000008" d="M 213.80 44.21 L 213.26 44.27 A 0.25 0.25 0.0 0 1 212.98 44.02 L 212.92 33.07 A 0.25 0.25 0.0 0 1 213.35 32.90 L 222.09 41.92 A 0.25 0.25 0.0 0 0 222.52 41.75 L 222.47 33.17 A 0.25 0.25 0.0 0 1 222.73 32.92 L 223.24 32.93 A 0.25 0.25 0.0 0 1 223.48 33.17 L 223.53 44.27 A 0.25 0.25 0.0 0 1 223.10 44.45 L 214.33 35.25 A 0.25 0.25 0.0 0 0 213.90 35.43 L 214.02 43.95 A 0.25 0.25 0.0 0 1 213.80 44.21 Z"/><path fill="#000008" d="M 234.66 34.75 Q 232.02 32.59 230.73 34.73 A 1.58 1.57 31.8 0 0 231.24 36.88 C 232.78 37.84 235.02 38.41 235.79 40.13 C 237.36 43.60 231.77 46.15 229.15 42.71 Q 228.82 42.28 228.92 41.75 Q 229.04 41.12 229.50 41.58 C 229.99 42.08 230.27 42.76 230.95 43.09 Q 233.26 44.21 234.59 42.15 A 1.92 1.91 27.2 0 0 233.68 39.33 Q 231.69 38.55 230.20 37.37 A 1.76 1.73 -73.5 0 1 229.54 36.13 C 229.21 32.12 234.39 31.50 235.16 34.43 Q 235.40 35.37 234.66 34.75 Z"/><path fill="#060334" d="M 242.02 33.85 L 239.56 33.85 A 0.24 0.24 0.0 0 1 239.32 33.62 L 239.31 33.19 A 0.24 0.24 0.0 0 1 239.55 32.94 L 245.98 32.88 A 0.24 0.24 0.0 0 1 246.21 33.18 L 246.08 33.69 A 0.24 0.24 0.0 0 1 245.84 33.87 L 243.50 33.79 A 0.24 0.24 0.0 0 0 243.25 34.03 L 243.25 44.01 A 0.24 0.24 0.0 0 1 242.99 44.25 L 242.41 44.19 A 0.24 0.24 0.0 0 1 242.19 43.95 L 242.26 34.09 A 0.24 0.24 0.0 0 0 242.02 33.85 Z"/><path fill="#000008" d="M 260.64 34.01 L 260.70 43.97 A 0.23 0.23 0.0 0 1 260.49 44.20 L 259.87 44.26 A 0.23 0.23 0.0 0 1 259.62 44.03 L 259.66 34.04 A 0.23 0.23 0.0 0 0 259.43 33.81 L 257.00 33.85 A 0.23 0.23 0.0 0 1 256.76 33.61 L 256.77 33.13 A 0.23 0.23 0.0 0 1 257.00 32.90 L 263.46 32.93 A 0.23 0.23 0.0 0 1 263.67 33.25 L 263.48 33.68 A 0.23 0.23 0.0 0 1 263.27 33.82 L 260.87 33.78 A 0.23 0.23 0.0 0 0 260.64 34.01 Z"/><path fill="#060524" d="M 282.82 33.82 Q 282.18 34.06 281.66 33.85 Q 279.82 33.11 281.80 32.99 Q 284.37 32.83 287.46 32.97 Q 287.71 32.98 287.70 33.23 L 287.70 33.58 Q 287.69 33.84 287.43 33.83 L 285.52 33.79 Q 284.82 33.78 284.82 34.48 L 284.91 43.75 Q 284.91 44.20 284.47 44.21 L 284.22 44.22 Q 283.77 44.24 283.77 43.79 L 283.79 34.50 Q 283.79 33.47 282.82 33.82 Z"/><path fill="#d18e6a" d="M 113.03 33.01 Q 113.45 36.06 112.67 38.82 Q 112.50 39.43 111.95 39.10 Q 110.58 38.29 108.98 39.34 Q 108.45 39.69 108.33 39.07 Q 107.86 36.68 108.25 34.19 Q 108.98 34.58 110.60 33.59 A 0.79 0.79 0.0 0 1 111.77 34.05 Q 111.84 34.29 112.15 34.47 Q 112.63 34.75 112.76 34.21 L 113.03 33.01 Z"/><path fill="#000008" d="M 164.77 38.50 L 158.55 38.51 A 0.24 0.24 0.0 0 0 158.31 38.75 L 158.42 43.93 A 0.24 0.24 0.0 0 1 158.19 44.17 L 157.55 44.20 A 0.24 0.24 0.0 0 1 157.30 43.96 L 157.33 33.21 A 0.24 0.24 0.0 0 1 157.56 32.97 L 158.15 32.95 A 0.24 0.24 0.0 0 1 158.40 33.19 L 158.37 37.39 A 0.24 0.24 0.0 0 0 158.61 37.63 L 164.74 37.59 A 0.24 0.24 0.0 0 0 164.97 37.36 L 165.04 33.23 A 0.24 0.24 0.0 0 1 165.28 33.00 L 165.76 33.01 A 0.24 0.24 0.0 0 1 165.99 33.25 L 165.99 43.95 A 0.24 0.24 0.0 0 1 165.76 44.19 L 165.25 44.22 A 0.24 0.24 0.0 0 1 165.00 43.98 L 165.01 38.74 A 0.24 0.24 0.0 0 0 164.77 38.50 Z"/><path fill="#000008" d="M 177.52 40.48 L 173.52 40.52 A 0.22 0.22 0.0 0 0 173.33 40.64 L 171.49 44.34 A 0.22 0.22 0.0 0 1 171.23 44.45 L 170.82 44.31 A 0.22 0.22 0.0 0 1 170.68 44.02 L 175.33 32.79 A 0.22 0.22 0.0 0 1 175.73 32.79 L 180.32 43.86 A 0.22 0.22 0.0 0 1 180.17 44.16 L 179.65 44.31 A 0.22 0.22 0.0 0 1 179.39 44.19 L 177.72 40.61 A 0.22 0.22 0.0 0 0 177.52 40.48 Z M 175.88 35.61 A 0.33 0.33 0.0 0 0 175.27 35.60 L 173.76 39.20 A 0.33 0.33 0.0 0 0 174.06 39.66 L 176.94 39.72 A 0.33 0.33 0.0 0 0 177.26 39.27 L 175.88 35.61 Z"/><rect width="1.04" height="11.24" x="191.85" y="33.02" fill="#000008" rx=".37"/><path fill="#000008" d="M 272.41 43.48 Q 272.58 43.46 272.76 43.43 Q 274.99 43.04 275.00 40.76 L 275.02 33.29 Q 275.02 32.97 275.34 32.96 L 275.70 32.96 Q 276.05 32.95 276.05 33.31 L 276.08 40.55 Q 276.10 43.45 273.31 44.30 Q 272.72 44.48 272.13 44.46 Q 268.04 44.28 268.04 40.19 L 268.03 33.29 Q 268.03 32.97 268.35 32.97 L 268.77 32.97 Q 269.09 32.97 269.09 33.28 L 269.14 40.51 A 3.01 3.01 0.0 0 0 272.41 43.48 Z"/><path fill="#060334" d="M 293.37 34.14 L 293.49 37.40 A 0.24 0.24 0.0 0 0 293.73 37.63 L 297.64 37.59 A 0.24 0.24 0.0 0 1 297.88 37.81 L 297.92 38.40 A 0.24 0.24 0.0 0 1 297.67 38.66 L 293.71 38.49 A 0.24 0.24 0.0 0 0 293.46 38.73 L 293.45 42.96 A 0.24 0.24 0.0 0 0 293.70 43.20 L 297.72 43.10 A 0.24 0.24 0.0 0 1 297.96 43.34 L 297.95 44.00 A 0.24 0.24 0.0 0 1 297.71 44.23 L 292.56 44.24 A 0.24 0.24 0.0 0 1 292.32 44.00 L 292.31 33.18 A 0.24 0.24 0.0 0 1 292.55 32.94 L 297.75 32.89 A 0.24 0.24 0.0 0 1 297.99 33.17 L 297.91 33.66 A 0.24 0.24 0.0 0 1 297.68 33.86 L 293.61 33.89 A 0.24 0.24 0.0 0 0 293.37 34.14 Z"/><path fill="#f5d885" d="M 11.47 39.72 Q 11.57 40.08 11.75 40.25 Q 11.74 41.20 12.24 42.09 Q 12.48 42.52 12.05 42.78 Q 10.38 43.79 8.96 42.69 Q 8.49 42.33 9.01 42.05 Q 9.13 41.99 9.27 41.96 Q 9.44 41.93 9.47 41.76 Q 9.68 40.54 10.22 39.67 Q 10.55 39.13 11.04 39.53 Q 11.27 39.71 11.47 39.72 Z"/><path fill="#efbb66" d="M 79.85 47.67 Q 82.38 51.06 85.12 54.13 C 87.01 56.25 89.06 56.78 91.57 57.15 Q 94.36 57.56 91.56 57.83 C 89.41 58.04 87.31 57.74 85.13 57.81 Q 83.16 57.88 81.83 56.67 Q 76.83 52.11 71.99 45.52 Q 73.03 45.32 73.67 46.33 Q 74.25 47.24 73.88 46.28 Q 73.81 46.10 73.83 45.91 A 0.49 0.49 0.0 0 1 74.24 45.48 L 75.99 45.20 Q 76.61 45.10 76.95 45.63 Q 78.41 47.87 80.27 50.07 Q 80.30 50.11 80.34 50.08 L 80.53 49.89 Q 80.68 49.74 80.50 49.62 Q 79.43 48.91 79.85 47.67 Z"/><path fill="#c01d0e" d="M 64.63 64.34 Q 64.58 64.81 64.35 65.27 Q 62.15 68.55 61.34 72.75 A 0.46 0.46 0.0 0 0 61.96 73.26 C 64.28 72.33 66.95 68.34 68.38 66.27 Q 70.03 63.87 72.46 64.37 A 1.86 1.86 0.0 0 1 73.35 67.56 Q 71.48 69.29 68.76 70.11 Q 68.26 70.26 68.03 70.74 Q 67.29 72.33 68.63 73.34 A 1.49 1.49 0.0 0 0 70.49 73.29 Q 73.80 70.50 76.52 66.86 Q 76.82 66.46 76.88 65.97 Q 77.10 64.12 78.08 62.38 A 0.75 0.73 -72.2 0 1 78.80 62.00 Q 79.47 62.06 79.68 62.61 Q 79.96 63.34 79.31 63.77 Q 78.68 64.18 78.92 64.84 Q 79.13 65.39 79.71 65.29 Q 80.80 65.09 81.58 65.84 Q 81.97 66.22 81.63 66.65 Q 79.40 69.42 78.91 72.80 Q 78.66 74.56 80.10 73.52 Q 81.55 72.47 82.59 71.13 Q 83.56 69.88 83.17 71.42 Q 82.84 72.76 81.34 74.17 Q 79.63 75.79 77.74 73.90 A 2.36 2.36 0.0 0 1 77.26 71.24 L 79.53 66.30 A 0.30 0.29 26.1 0 0 79.39 65.91 L 79.15 65.80 Q 78.52 65.52 78.15 66.10 Q 75.94 69.57 72.70 72.88 C 70.77 74.85 66.54 75.31 66.25 71.88 Q 66.12 70.47 65.34 71.65 C 64.49 72.95 63.20 74.56 61.43 74.28 Q 59.56 73.98 59.94 71.78 Q 60.16 70.56 59.36 71.50 C 58.03 73.06 56.09 75.51 53.91 73.55 A 1.67 1.67 0.0 0 1 53.52 71.60 L 55.96 66.50 Q 56.03 66.33 55.89 66.22 Q 55.79 66.13 55.66 66.10 Q 55.44 66.04 55.27 66.20 Q 51.92 69.34 49.16 73.44 Q 48.86 73.88 48.36 74.02 Q 47.70 74.21 47.22 73.66 Q 46.88 73.27 47.16 72.83 Q 47.25 72.70 47.20 72.54 Q 47.04 72.02 46.68 72.44 C 45.01 74.39 42.23 75.46 40.29 73.17 Q 39.82 72.62 39.90 71.90 Q 39.92 71.74 39.87 71.60 Q 39.61 70.86 39.09 71.45 C 36.94 73.92 33.57 78.11 29.73 76.16 C 23.92 73.21 29.57 64.47 32.40 61.38 C 34.58 59.00 37.58 56.00 40.92 58.66 Q 41.92 59.45 41.25 60.55 Q 39.76 62.99 39.23 63.31 Q 36.69 64.85 38.36 62.40 Q 39.19 61.17 39.94 59.83 Q 40.37 59.04 38.60 58.78 A 1.82 1.81 30.9 0 0 37.26 59.11 C 33.18 62.04 28.22 68.37 29.27 73.85 A 2.38 2.38 0.0 0 0 32.65 75.54 C 36.60 73.63 40.17 69.01 42.70 65.31 A 2.51 2.50 -69.5 0 1 45.03 64.24 Q 46.04 64.34 46.79 64.89 Q 48.45 66.12 46.93 67.52 Q 44.92 69.37 42.36 70.10 Q 41.14 70.46 41.30 71.72 L 41.37 72.33 Q 41.56 73.78 42.99 73.47 C 45.95 72.83 49.72 68.01 50.47 65.32 A 0.52 0.52 0.0 0 1 51.18 64.98 L 51.54 65.14 Q 52.31 65.48 51.89 66.21 L 49.87 69.76 Q 49.72 70.03 49.97 70.19 L 50.22 70.35 Q 50.27 70.38 50.31 70.33 Q 52.33 67.41 54.82 65.38 Q 55.75 64.62 57.00 64.92 A 1.17 1.17 0.0 0 1 57.73 66.65 Q 56.35 69.00 55.53 71.22 Q 54.14 74.97 57.17 72.36 Q 59.80 70.09 62.09 66.08 A 0.50 0.50 0.0 0 0 61.48 65.37 L 60.92 65.58 Q 60.36 65.80 60.31 65.20 Q 60.30 64.98 60.44 64.80 Q 60.71 64.46 61.14 64.55 L 62.06 64.73 Q 62.63 64.84 62.91 64.32 L 65.03 60.27 A 0.48 0.47 -58.8 0 1 65.71 60.10 L 66.08 60.33 A 0.64 0.64 0.0 0 1 66.29 61.16 L 64.63 64.34 Z M 46.36 65.95 L 45.74 65.27 A 0.22 0.22 0.0 0 0 45.43 65.26 L 44.59 66.03 A 3.68 0.52 -42.4 0 0 42.22 68.89 L 42.44 69.13 A 3.68 0.52 -42.4 0 0 45.51 67.03 L 46.35 66.26 A 0.22 0.22 0.0 0 0 46.36 65.95 Z M 72.92 65.89 L 72.30 65.19 A 0.21 0.21 0.0 0 0 72.00 65.18 L 71.88 65.28 A 4.75 0.51 -41.8 0 0 68.68 68.83 L 68.90 69.08 A 4.75 0.51 -41.8 0 0 72.79 66.30 L 72.91 66.19 A 0.21 0.21 0.0 0 0 72.92 65.89 Z"/><path fill="#c01d0e" d="M 215.36 72.36 C 214.50 72.83 214.03 73.81 213.13 74.14 Q 211.66 74.68 210.56 73.62 A 1.05 1.02 15.9 0 1 210.29 73.15 L 210.08 72.28 Q 209.80 71.17 209.18 72.13 Q 207.27 75.07 205.29 74.03 A 1.73 1.73 0.0 0 1 204.44 71.99 C 205.35 68.99 210.75 61.00 214.63 65.23 Q 215.10 65.73 214.65 66.25 Q 212.44 68.82 211.72 72.45 A 0.74 0.74 0.0 0 0 212.91 73.18 Q 216.80 70.14 218.89 65.53 Q 219.00 65.27 219.21 65.10 Q 219.70 64.72 220.17 65.37 A 0.88 0.87 -48.7 0 1 220.23 66.31 L 218.31 69.73 Q 218.22 69.90 218.39 69.99 L 218.64 70.14 Q 218.70 70.17 218.73 70.13 Q 220.96 67.41 223.35 65.33 Q 224.03 64.74 224.96 64.82 Q 225.87 64.90 226.09 65.76 A 1.54 1.53 52.2 0 1 225.95 66.90 Q 224.95 68.73 224.15 70.66 Q 222.19 75.37 225.97 71.94 Q 228.15 69.96 230.12 66.77 Q 232.04 63.65 235.02 65.06 Q 235.59 65.33 235.88 64.77 L 238.72 59.22 Q 239.09 58.50 239.82 58.18 Q 240.22 58.00 240.64 58.15 A 0.50 0.49 -64.7 0 1 240.90 58.88 Q 236.20 66.40 234.77 72.34 Q 234.21 74.67 236.18 73.31 Q 237.59 72.34 238.27 70.65 Q 238.35 70.44 238.57 70.44 Q 238.74 70.44 238.82 70.55 Q 238.97 70.73 238.90 70.95 Q 238.33 72.80 236.82 74.20 Q 236.03 74.93 235.01 74.59 Q 232.75 73.83 233.19 71.60 Q 233.29 71.12 232.80 71.15 Q 232.50 71.18 232.39 71.45 Q 231.65 73.20 229.98 74.03 Q 228.64 74.70 227.95 73.42 Q 227.71 72.98 227.86 72.50 Q 227.93 72.28 227.80 72.10 A 0.40 0.40 0.0 0 0 227.17 72.08 C 226.08 73.43 224.71 74.77 222.80 74.00 A 1.47 1.46 -74.2 0 1 221.90 72.38 Q 222.45 69.26 224.62 66.60 Q 224.73 66.46 224.60 66.34 L 224.41 66.17 A 0.53 0.51 44.1 0 0 223.71 66.17 Q 220.16 69.54 217.36 73.67 Q 216.99 74.21 216.35 74.08 L 215.94 74.00 A 0.58 0.58 0.0 0 1 215.49 73.33 Q 215.54 73.00 215.70 72.69 Q 216.06 71.97 215.36 72.36 Z M 206.85 73.61 L 213.70 65.70 A 0.15 0.15 0.0 0 0 213.68 65.49 L 213.63 65.45 A 5.13 2.12 -49.1 0 0 208.67 67.93 L 208.34 68.31 A 5.13 2.12 -49.1 0 0 206.59 73.58 L 206.64 73.62 A 0.15 0.15 0.0 0 0 206.85 73.61 Z M 229.36 72.13 Q 228.76 73.91 230.19 72.69 Q 233.19 70.13 235.02 66.51 Q 235.30 65.97 234.72 65.77 Q 233.30 65.28 232.39 66.50 Q 230.32 69.27 229.36 72.13 Z"/><path fill="#bc180a" d="M 246.15 69.49 Q 245.42 69.76 244.69 70.14 Q 244.12 70.43 244.01 69.80 Q 243.98 69.66 244.02 69.52 Q 244.07 69.36 244.20 69.27 Q 245.72 68.30 247.51 68.29 A 1.16 1.16 0.0 0 0 248.38 67.87 Q 252.00 63.40 256.43 58.98 Q 257.09 58.32 258.00 58.17 A 1.26 1.26 0.0 0 1 259.43 59.70 Q 258.64 63.16 257.78 66.65 Q 257.69 66.99 257.77 67.33 Q 257.80 67.48 257.82 67.64 Q 257.86 67.98 257.72 68.29 Q 256.56 70.83 256.33 74.20 Q 256.29 74.67 256.68 74.95 L 257.15 75.29 Q 257.38 75.46 257.28 75.73 Q 257.00 76.47 255.26 74.99 A 1.53 1.52 24.2 0 1 254.74 73.63 L 255.39 68.70 A 0.39 0.39 0.0 0 0 254.96 68.26 L 249.48 68.88 Q 249.05 68.93 248.77 69.27 Q 245.88 72.72 243.69 76.73 A 0.30 0.30 0.0 0 1 243.20 76.78 L 242.86 76.35 A 0.49 0.49 0.0 0 1 242.82 75.76 L 246.57 70.01 Q 247.15 69.11 246.15 69.49 Z M 250.19 67.29 A 0.33 0.33 0.0 0 0 250.46 67.84 L 255.54 67.40 A 0.33 0.33 0.0 0 0 255.83 67.15 L 257.70 59.77 A 0.33 0.33 0.0 0 0 257.13 59.47 L 250.19 67.29 Z"/><path fill="#bc180a" d="M 7.52 69.35 Q 6.45 69.76 5.45 70.26 Q 5.14 70.41 5.09 70.08 L 5.03 69.72 Q 4.99 69.46 5.22 69.34 Q 6.94 68.38 8.79 68.23 Q 9.33 68.19 9.66 67.76 C 11.97 64.72 14.65 61.98 17.52 59.00 Q 18.30 58.18 19.27 58.25 A 1.27 1.27 0.0 0 1 20.43 59.79 Q 19.61 63.47 18.93 67.00 C 18.44 69.53 17.50 71.66 17.57 74.33 Q 17.58 74.74 17.88 75.03 L 18.19 75.32 Q 18.56 75.67 18.11 75.90 Q 17.74 76.09 17.37 75.94 C 14.89 74.91 16.08 70.58 16.55 68.66 A 0.42 0.42 0.0 0 0 16.04 68.15 Q 13.44 68.78 10.71 68.72 Q 10.06 68.71 9.70 69.25 L 4.62 76.66 A 0.31 0.29 -69.2 0 1 4.36 76.79 Q 4.17 76.79 4.12 76.57 A 2.23 2.21 -34.1 0 1 4.46 74.85 Q 6.12 72.39 7.90 69.85 Q 8.52 68.96 7.52 69.35 Z M 18.68 60.07 A 0.38 0.38 0.0 0 0 18.03 59.73 L 11.27 67.30 A 0.38 0.38 0.0 0 0 11.60 67.93 L 16.68 67.41 A 0.38 0.38 0.0 0 0 17.01 67.12 L 18.68 60.07 Z"/><path fill="#bc180a" d="M 159.85 69.28 Q 158.68 69.68 157.65 70.29 Q 157.30 70.51 157.20 70.10 L 157.11 69.70 Q 157.09 69.60 157.17 69.54 Q 158.87 68.34 160.94 68.28 A 1.07 1.05 17.7 0 0 161.73 67.88 Q 165.32 63.20 169.83 58.86 Q 170.72 58.00 171.94 58.26 A 1.08 1.08 0.0 0 1 172.76 59.56 L 171.07 66.71 Q 170.96 67.19 171.22 67.61 Q 171.43 67.95 171.23 68.27 Q 168.78 72.18 170.25 75.54 Q 170.76 76.70 169.68 76.02 L 168.71 75.41 Q 168.04 74.99 168.02 74.19 Q 167.95 71.51 168.66 68.94 A 0.44 0.44 0.0 0 0 168.20 68.38 L 162.72 68.75 Q 162.19 68.79 161.89 69.22 L 156.70 76.70 A 0.28 0.28 0.0 0 1 156.25 76.71 L 156.05 76.45 Q 155.83 76.16 156.04 75.85 L 160.17 69.71 Q 160.64 69.02 159.85 69.28 Z M 170.93 59.86 A 0.33 0.33 0.0 0 0 170.36 59.56 L 163.34 67.36 A 0.33 0.33 0.0 0 0 163.62 67.91 L 168.77 67.38 A 0.33 0.33 0.0 0 0 169.06 67.14 L 170.93 59.86 Z"/><path fill="#bc180a" d="M 134.08 69.59 Q 133.91 69.86 134.18 70.04 L 134.39 70.18 Q 134.44 70.21 134.47 70.17 Q 136.64 67.44 139.04 64.96 A 1.60 1.59 -63.0 0 1 140.43 64.50 C 141.89 64.73 142.25 65.90 141.71 67.08 Q 140.49 69.73 139.52 72.58 A 0.50 0.49 14.4 0 0 139.91 73.23 Q 140.57 73.33 141.07 72.85 Q 144.02 69.99 146.16 66.66 Q 147.08 65.24 148.62 64.45 A 2.31 2.31 0.0 0 1 151.03 64.63 L 151.57 65.02 Q 152.83 65.93 151.65 66.95 Q 148.79 69.43 146.99 69.99 Q 145.36 70.50 145.92 72.11 Q 145.97 72.25 146.04 72.45 Q 146.59 74.02 148.06 73.25 Q 149.71 72.40 151.10 70.88 Q 151.91 69.99 151.77 71.18 Q 151.76 71.26 151.72 71.33 C 150.71 72.90 149.10 74.78 146.95 74.37 Q 144.42 73.90 144.40 71.53 Q 144.39 70.55 143.78 71.31 C 142.53 72.85 140.97 75.22 138.68 73.83 Q 138.23 73.56 138.13 73.04 C 137.77 71.16 138.76 69.39 139.56 67.77 Q 141.42 64.01 138.45 66.97 Q 135.42 70.00 133.16 73.76 Q 132.65 74.61 131.79 74.11 L 131.49 73.94 Q 131.09 73.71 131.28 73.29 Q 131.61 72.56 131.78 71.94 Q 131.99 71.19 131.39 71.68 Q 130.60 72.33 130.02 73.17 A 2.60 2.60 0.0 0 1 126.67 74.01 C 124.36 72.81 127.08 67.58 127.99 66.24 Q 128.48 65.52 127.61 65.46 Q 127.30 65.43 127.01 65.55 Q 126.35 65.80 126.34 65.09 Q 126.33 64.89 126.47 64.75 Q 126.64 64.58 126.89 64.59 Q 127.39 64.61 127.85 64.82 Q 128.39 65.07 128.68 64.55 L 130.86 60.57 Q 131.47 59.46 131.92 60.64 Q 132.41 61.91 130.92 63.44 Q 130.44 63.93 130.73 64.57 Q 130.93 64.99 131.34 64.77 Q 131.76 64.54 132.23 64.63 Q 132.85 64.74 132.54 65.30 Q 132.36 65.62 132.02 65.65 C 131.44 65.71 131.17 65.42 130.65 65.33 Q 130.12 65.24 129.87 65.71 Q 127.98 69.24 127.24 72.71 A 0.48 0.48 0.0 0 0 127.69 73.29 Q 128.53 73.32 129.09 72.70 C 131.10 70.48 133.41 68.37 134.64 65.72 Q 136.26 62.25 138.03 58.76 Q 138.29 58.24 138.77 58.57 L 138.98 58.73 A 0.80 0.79 -60.9 0 1 139.25 59.70 Q 136.99 64.87 134.08 69.59 Z M 151.05 65.84 L 150.44 65.14 A 0.22 0.22 0.0 0 0 150.13 65.12 L 150.06 65.18 A 5.12 0.52 -40.9 0 0 146.53 68.93 L 146.74 69.17 A 5.12 0.52 -40.9 0 0 150.95 66.21 L 151.02 66.15 A 0.22 0.22 0.0 0 0 151.05 65.84 Z"/><path fill="#bc2515" d="M 287.72 74.41 Q 288.28 74.11 287.98 73.74 Q 288.71 74.08 289.29 73.75 Q 294.09 71.10 297.20 65.46 Q 297.61 64.72 298.44 64.84 L 298.73 64.88 A 0.58 0.57 20.9 0 1 299.13 65.77 Q 296.95 68.99 295.94 71.37 Q 294.37 75.10 297.22 72.22 Q 299.92 69.50 302.85 65.43 A 0.51 0.51 0.0 0 1 303.43 65.24 L 303.69 65.33 A 0.84 0.84 0.0 0 1 304.12 66.58 Q 302.49 69.04 301.66 71.71 Q 300.82 74.40 303.03 72.65 C 307.35 69.23 309.42 63.63 312.10 59.03 A 0.36 0.35 37.7 0 1 312.65 58.96 L 312.89 59.18 Q 313.46 59.71 313.08 60.40 Q 310.15 65.66 308.06 70.54 Q 307.57 71.70 307.55 72.94 Q 307.53 74.34 308.57 73.40 Q 312.00 70.33 314.26 66.46 A 0.60 0.58 -48.3 0 0 314.23 65.81 Q 313.94 65.42 313.55 65.46 Q 313.25 65.49 313.22 65.19 L 313.19 64.94 Q 313.17 64.78 313.32 64.76 Q 313.77 64.69 314.07 65.02 Q 314.58 65.59 314.94 64.91 L 317.32 60.40 A 0.71 0.71 0.0 0 1 318.21 60.06 L 318.53 60.18 A 0.69 0.69 0.0 0 1 318.87 61.19 Q 315.73 66.27 314.27 70.92 Q 312.94 75.14 316.11 72.06 Q 319.15 69.10 321.54 65.30 Q 321.98 64.59 322.79 64.78 L 323.10 64.85 A 0.42 0.42 0.0 0 1 323.35 65.48 Q 321.08 69.10 320.15 71.16 Q 318.33 75.20 321.45 72.06 Q 324.24 69.26 326.91 65.40 A 0.56 0.56 0.0 0 1 327.70 65.25 L 327.93 65.41 A 1.00 0.99 -55.0 0 1 328.17 66.80 Q 326.62 69.00 325.89 71.37 Q 324.86 74.74 327.40 72.30 Q 329.57 70.23 331.88 67.38 C 333.32 65.60 332.49 63.39 334.24 62.04 A 0.76 0.76 0.0 0 1 335.40 62.35 Q 335.60 62.82 335.36 63.22 Q 334.87 64.03 334.76 64.96 A 1.51 1.44 71.0 0 1 334.39 65.77 C 332.32 68.11 330.56 70.66 328.39 73.09 C 327.26 74.36 325.37 74.88 324.27 73.32 C 323.90 72.80 324.04 72.28 324.02 71.72 Q 323.97 70.22 323.15 71.47 Q 322.04 73.13 320.21 74.16 A 1.48 1.48 0.0 0 1 318.01 72.79 L 318.04 72.25 Q 318.08 71.47 317.54 72.04 L 316.16 73.50 Q 315.28 74.43 314.02 74.26 Q 311.85 73.99 312.35 71.75 Q 312.61 70.59 311.80 71.47 C 310.36 73.02 308.90 75.89 306.38 74.06 Q 305.95 73.75 305.99 73.22 L 306.13 71.75 Q 306.23 70.63 305.58 71.54 Q 304.47 73.08 303.05 74.09 A 1.79 1.77 43.2 0 1 301.08 74.14 Q 299.47 73.12 300.10 71.41 Q 300.24 71.03 299.85 70.95 Q 299.71 70.92 299.57 70.97 Q 299.47 71.01 299.40 71.09 C 298.44 72.28 296.84 74.43 295.21 74.32 C 294.27 74.26 293.74 73.54 293.96 72.63 Q 293.99 72.49 293.99 72.36 Q 293.99 71.49 293.35 72.08 C 291.82 73.48 289.97 75.50 287.72 74.41 Z"/><path fill="#c01d0e" d="M 187.93 64.81 Q 187.76 65.47 187.68 65.12 Q 185.30 68.72 184.89 71.36 Q 184.31 75.10 186.83 72.27 C 188.49 70.42 191.12 67.95 192.22 65.59 Q 193.02 63.84 195.16 63.28 Q 195.40 63.22 195.50 63.44 L 195.62 63.71 Q 195.84 64.19 195.36 64.41 Q 192.09 65.86 194.28 69.68 Q 194.53 70.13 194.99 69.91 Q 196.73 69.07 198.41 69.20 Q 199.22 69.26 198.52 69.67 C 197.19 70.44 195.18 69.91 194.53 71.55 C 193.52 74.09 190.28 74.74 187.95 73.90 Q 187.53 73.75 187.10 73.86 L 185.37 74.31 A 1.74 1.74 0.0 0 1 183.21 72.34 L 183.31 71.75 Q 183.61 69.97 182.58 71.45 Q 181.09 73.58 179.37 74.90 A 1.65 1.64 -40.5 0 1 177.17 74.73 C 175.25 72.72 177.90 68.69 178.97 66.91 A 0.61 0.61 0.0 0 0 178.96 66.26 Q 178.58 65.68 178.05 65.94 Q 178.82 65.67 178.75 65.25 Q 179.58 66.05 180.50 65.99 A 0.73 0.72 17.0 0 1 181.12 67.15 Q 178.36 70.73 178.19 72.97 Q 178.03 75.07 179.48 73.54 C 181.01 71.91 184.86 68.18 185.10 66.06 Q 185.18 65.32 184.45 65.46 Q 184.18 65.51 183.98 65.28 Q 183.64 64.91 184.11 64.72 Q 184.71 64.48 185.26 64.79 Q 185.82 65.11 186.11 64.54 L 188.18 60.46 A 0.73 0.73 0.0 0 1 189.22 60.17 L 189.45 60.31 A 0.69 0.69 0.0 0 1 189.64 61.31 Q 188.10 63.41 187.93 64.81 Z M 192.07 70.07 Q 192.26 70.00 192.47 70.02 Q 193.23 70.10 192.93 69.39 Q 192.69 68.81 192.28 68.29 Q 191.86 67.74 191.47 68.31 L 190.07 70.36 Q 189.58 71.06 190.40 70.81 C 190.99 70.62 191.48 70.26 192.07 70.07 Z M 192.91 70.75 L 188.46 72.48 A 0.15 0.15 0.0 0 0 188.37 72.68 L 188.39 72.72 A 1.79 1.10 -21.3 0 0 190.46 73.10 L 191.85 72.55 A 1.79 1.10 -21.3 0 0 193.12 70.88 L 193.10 70.83 A 0.15 0.15 0.0 0 0 192.91 70.75 Z"/><path fill="#bc180a" d="M 95.57 72.32 Q 98.01 70.72 99.38 67.91 Q 100.56 65.49 103.02 64.33 Q 103.62 64.05 104.19 64.39 L 106.42 65.70 A 1.69 1.68 21.0 0 1 107.22 67.49 Q 106.80 69.54 105.53 71.17 Q 105.11 71.72 105.80 71.66 C 107.67 71.51 110.09 67.80 111.08 66.32 A 2.28 2.27 64.5 0 0 111.46 65.24 Q 111.57 63.73 112.29 62.41 A 0.85 0.85 0.0 0 1 113.35 62.03 Q 113.98 62.29 114.01 62.95 A 1.15 1.13 -20.6 0 1 113.58 63.88 Q 113.19 64.20 113.14 64.66 Q 113.06 65.32 113.72 65.21 Q 115.20 64.95 115.88 65.96 Q 116.17 66.40 115.84 66.81 Q 113.46 69.77 113.09 73.28 A 0.55 0.54 77.8 0 0 113.91 73.81 Q 115.85 72.65 117.30 70.59 Q 117.40 70.45 117.53 70.55 L 117.77 70.72 Q 117.89 70.81 117.83 70.94 Q 116.68 73.42 114.78 74.67 A 1.65 1.64 45.2 0 1 112.96 74.66 C 110.07 72.73 112.52 68.40 113.93 66.46 A 0.36 0.36 0.0 0 0 113.79 65.92 L 113.43 65.75 Q 112.65 65.39 112.25 66.16 Q 109.19 71.96 104.75 72.92 A 1.52 1.49 -74.1 0 0 103.98 73.36 C 102.14 75.37 99.12 75.09 98.44 72.29 A 0.56 0.54 -33.7 0 1 98.54 71.83 Q 98.77 71.55 98.57 71.36 Q 98.24 71.02 97.94 71.38 Q 96.78 72.77 95.29 73.58 Q 94.83 73.83 94.67 74.31 C 93.95 76.42 92.33 79.99 89.96 80.67 A 0.95 0.95 0.0 0 1 89.14 80.51 Q 87.66 79.39 88.35 77.67 Q 89.43 75.00 90.56 72.31 C 92.28 68.24 94.75 64.64 96.41 60.49 A 0.53 0.53 0.0 0 1 97.19 60.24 L 97.49 60.43 A 0.87 0.87 0.0 0 1 97.80 61.55 L 94.59 68.01 Q 94.37 68.45 94.63 68.88 Q 95.49 70.33 95.08 71.97 Q 94.88 72.78 95.57 72.32 Z M 102.85 71.43 Q 101.21 68.94 104.11 65.87 Q 104.28 65.69 104.09 65.53 L 103.88 65.34 A 0.43 0.43 0.0 0 0 103.29 65.35 Q 99.70 68.80 99.98 73.17 Q 100.06 74.38 101.09 73.74 L 102.55 72.82 Q 103.42 72.28 102.85 71.43 Z M 104.46 66.81 Q 102.98 68.40 103.18 70.17 Q 103.36 71.85 104.39 70.51 Q 105.56 69.01 105.90 67.00 Q 106.10 65.79 104.61 65.88 Q 104.57 65.88 104.58 65.92 Q 104.64 66.10 104.65 66.30 A 0.66 0.65 65.9 0 1 104.46 66.81 Z M 92.54 72.06 L 92.32 72.31 Q 91.92 72.81 92.49 73.08 Q 93.00 73.32 93.50 73.20 A 0.59 0.58 -87.3 0 0 93.94 72.79 Q 94.40 71.21 94.01 69.82 Q 93.75 68.92 93.36 69.76 Q 92.91 70.71 92.71 71.69 Q 92.67 71.89 92.54 72.06 Z M 92.16 73.88 Q 91.57 73.92 91.31 74.45 Q 90.09 76.85 89.64 78.87 Q 89.22 80.76 90.54 79.35 Q 92.36 77.40 93.28 74.55 Q 93.53 73.79 92.73 73.84 L 92.16 73.88 Z"/><path fill="#bc2515" d="M 283.68 63.10 A 0.58 0.58 0.0 0 1 283.39 62.20 Q 283.87 61.55 284.66 61.27 A 0.84 0.84 0.0 0 1 285.73 62.34 Q 285.27 63.61 283.68 63.10 Z"/><path fill="#bc180a" d="M 178.75 65.25 Q 178.82 65.67 178.05 65.94 L 173.12 72.24 A 0.46 0.46 0.0 0 1 172.39 72.22 L 172.24 71.99 Q 172.12 71.83 172.24 71.67 L 176.23 66.45 Q 176.57 66.01 176.68 65.46 Q 177.11 63.48 178.91 62.14 A 0.91 0.91 0.0 0 1 180.08 62.20 L 180.27 62.38 A 0.44 0.43 -45.4 0 1 180.27 63.01 Q 178.85 64.38 178.75 65.25 Z"/><path fill="#bc180a" d="M 287.98 73.74 Q 288.28 74.11 287.72 74.41 Q 285.72 73.96 285.78 71.72 Q 285.80 70.94 285.19 71.43 C 283.57 72.70 283.40 74.36 280.99 74.24 A 1.66 1.60 18.1 0 1 279.65 71.72 Q 279.83 71.46 279.87 71.14 Q 279.95 70.53 279.47 70.92 C 278.12 72.05 275.80 76.05 273.59 73.48 Q 273.28 73.13 273.27 72.67 C 273.22 70.43 274.31 68.45 275.55 66.60 A 0.52 0.51 31.2 0 0 275.37 65.87 L 275.08 65.69 A 0.69 0.69 0.0 0 0 274.13 65.95 Q 270.53 72.21 265.33 74.69 Q 264.79 74.95 264.49 75.48 C 263.04 78.08 259.89 81.71 256.62 79.91 A 1.31 1.31 0.0 0 1 256.52 77.68 Q 259.12 75.92 262.32 75.08 C 263.43 74.79 264.10 73.80 264.39 72.76 Q 264.90 70.91 263.66 72.37 Q 262.72 73.48 261.65 73.91 A 1.71 1.71 0.0 0 1 259.33 71.99 C 260.08 68.36 264.71 61.16 269.10 65.26 Q 269.56 65.69 269.21 66.21 Q 267.27 69.09 265.87 72.68 Q 265.31 74.10 266.52 73.18 Q 269.56 70.86 272.34 67.10 C 273.46 65.60 273.08 64.00 274.10 62.32 A 0.71 0.71 0.0 0 1 275.10 62.10 Q 276.46 63.01 274.91 64.19 A 0.58 0.57 -60.8 0 0 275.20 65.22 L 277.03 65.39 A 0.81 0.81 0.0 0 1 277.58 66.70 Q 275.60 69.21 275.01 72.07 Q 274.54 74.33 276.27 72.80 Q 279.93 69.57 282.36 65.42 Q 282.68 64.87 283.15 65.30 L 283.55 65.66 Q 283.94 66.01 283.64 66.43 Q 281.64 69.29 280.74 72.63 A 0.56 0.56 0.0 0 0 281.43 73.32 Q 282.61 73.00 283.48 71.95 Q 285.98 68.94 288.39 66.07 Q 290.55 63.50 293.57 65.16 Q 294.58 65.72 294.11 66.78 Q 293.36 68.43 291.88 69.24 Q 291.17 69.62 291.38 68.85 Q 291.58 68.10 292.18 67.50 Q 292.98 66.69 292.51 65.82 A 0.95 0.95 0.0 0 0 291.03 65.59 C 289.44 67.06 285.99 71.69 287.98 73.74 Z M 260.75 72.43 Q 260.47 73.30 261.32 72.97 C 263.50 72.13 266.48 68.14 267.91 66.32 A 0.83 0.83 0.0 0 0 267.28 64.97 C 264.27 64.89 261.55 69.95 260.75 72.43 Z M 261.68 75.99 Q 259.42 77.02 257.31 78.17 Q 256.87 78.41 256.94 78.90 Q 256.97 79.15 257.23 79.32 Q 257.70 79.62 258.23 79.46 Q 260.65 78.75 262.20 76.62 Q 263.14 75.31 261.68 75.99 Z"/><path fill="#c25749" d="M 64.63 64.34 Q 65.17 64.94 66.12 64.60 Q 66.49 64.47 66.66 64.81 L 66.80 65.08 Q 66.91 65.30 66.68 65.41 Q 65.47 65.98 64.35 65.27 Q 64.58 64.81 64.63 64.34 Z"/><path fill="#c25749" d="M 187.68 65.12 Q 187.76 65.47 187.93 64.81 Q 188.60 64.86 189.21 64.39 A 0.33 0.32 67.0 0 1 189.72 64.60 L 189.84 65.28 A 0.34 0.33 -11.0 0 1 189.58 65.66 Q 188.65 65.90 187.68 65.12 Z"/><path fill="#bc2515" d="M 339.55 71.54 Q 339.44 70.29 338.74 71.33 C 337.72 72.86 335.79 75.23 333.75 73.84 Q 332.64 73.08 332.99 71.75 Q 333.69 69.02 335.44 65.67 Q 335.90 64.80 336.71 65.35 L 337.16 65.65 A 0.81 0.80 -53.5 0 1 337.33 66.83 Q 335.31 69.32 334.84 71.53 Q 334.19 74.62 336.45 72.42 Q 339.31 69.64 341.98 65.74 A 3.39 3.37 -66.7 0 1 345.45 64.35 Q 346.09 64.48 346.64 64.93 Q 347.91 65.96 346.69 67.06 Q 344.53 69.03 341.78 70.15 A 1.45 1.44 -6.8 0 0 340.89 71.28 Q 340.76 72.11 341.09 72.67 Q 341.93 74.05 343.32 73.23 Q 345.10 72.18 346.43 70.70 Q 346.59 70.52 346.81 70.63 Q 346.96 70.71 346.98 70.84 Q 347.01 71.05 346.90 71.23 C 345.83 72.88 344.12 74.93 341.82 74.32 Q 339.75 73.77 339.55 71.54 Z M 346.18 65.86 L 345.56 65.14 A 0.18 0.18 0.0 0 0 345.30 65.12 L 345.01 65.37 A 4.79 0.52 -40.8 0 0 341.72 68.90 L 341.90 69.11 A 4.79 0.52 -40.8 0 0 345.87 66.37 L 346.16 66.12 A 0.18 0.18 0.0 0 0 346.18 65.86 Z"/><path fill="#c54640" d="M 317.65 64.96 Q 318.08 64.52 318.64 64.67 A 0.48 0.47 -57.6 0 1 318.82 65.48 Q 318.28 65.96 317.70 65.54 A 0.39 0.38 -50.0 0 1 317.65 64.96 Z"/></g></svg>