<svg xmlns="http://www.w3.org/2000/svg" version="1.1" viewBox="111.195 114.273 384.535 384.13"><ellipse style="stroke:#000;fill:#fff" cx="303.222" cy="305.986" rx="189.017" ry="189.017"/><g fill="none" stroke-linecap="butt" stroke-width="2"><path stroke="#80c9a2" d="M 364.96 183.63 C 355.71 178.34 346.13 174.61 335.32 173.99 Q 331.97 173.80 335.02 175.19 Q 337.51 176.32 340.48 178.51 C 347.97 184.01 353.71 190.08 360.13 196.22 C 374.20 209.66 395.58 215.91 415.17 216.48 C 438.88 217.18 461.79 211.51 481.27 198.75 Q 483.03 197.60 480.97 198.03 C 454.15 203.69 425.46 189.09 406.08 172.19 C 398.54 165.63 391.98 160.94 382.69 158.15 C 359.04 151.08 330.75 156.26 307.68 165.59 Q 305.75 166.37 307.83 166.28 C 328.27 165.47 350.00 169.80 365.34 183.10 Q 367.84 185.27 364.96 183.63" vector-effect="non-scaling-stroke"/><path stroke="#d7878c" d="M 264.42 190.70 C 255.83 194.47 247.77 200.77 242.97 208.50 Q 242.57 209.14 242.36 209.88 A 0.30 0.29 -2.7 0 0 242.75 210.23 Q 269.97 200.11 298.10 204.15 C 304.45 205.06 310.42 206.95 316.82 207.53 Q 332.71 208.96 350.34 205.81 Q 351.14 205.67 350.59 205.07 C 342.56 196.34 332.28 189.88 320.72 187.80 C 309.82 185.84 298.95 178.72 290.41 170.97 Q 289.96 170.55 289.59 171.05 C 282.90 180.11 274.57 186.25 264.42 190.70" vector-effect="non-scaling-stroke"/><path stroke="#d7878c" d="M 245.14 243.76 C 246.78 240.60 250.59 236.86 254.25 236.44 C 258.49 235.95 263.20 239.45 267.50 240.30 Q 274.37 241.66 282.49 238.26 C 285.70 236.92 288.73 235.13 291.93 233.87 Q 311.97 225.96 333.80 232.64 Q 335.00 233.00 334.23 232.01 Q 323.16 217.57 306.71 213.65 C 295.17 210.90 282.86 211.40 270.72 212.12 C 260.13 212.75 250.67 214.90 243.06 222.40 C 230.77 234.52 228.13 252.53 216.08 264.90 C 205.90 275.36 201.70 287.03 206.34 301.78 Q 208.57 308.87 216.30 312.83 Q 217.74 313.56 219.35 313.26 Q 219.89 313.16 220.22 312.72 C 221.65 310.75 221.34 307.07 221.27 304.71 C 220.92 291.34 232.51 278.93 241.12 269.75 C 249.25 261.08 240.55 252.58 245.14 243.76" vector-effect="non-scaling-stroke"/><path stroke="#d7878c" d="M 357.00 251.79 C 344.03 247.19 328.21 250.04 315.60 254.76 Q 312.93 255.76 315.77 255.54 C 327.44 254.63 338.88 254.91 349.48 259.24 C 358.52 262.93 367.17 270.15 370.27 279.58 C 376.37 298.09 378.94 317.74 377.24 337.00 Q 377.05 339.09 378.22 337.35 C 393.51 314.54 390.71 284.99 382.93 258.33 Q 379.63 247.02 375.27 240.40 C 364.33 223.80 345.88 213.68 325.97 214.23 Q 324.48 214.27 325.81 214.93 C 341.16 222.55 352.50 235.27 357.53 251.28 Q 357.78 252.07 357.00 251.79" vector-effect="non-scaling-stroke"/><path stroke="#d7878c" d="M 217.05 250.27 C 225.29 240.18 230.83 228.44 234.20 215.88 Q 234.63 214.27 233.48 215.48 C 228.23 221.01 220.64 224.62 213.46 227.16 Q 194.27 233.94 171.45 237.14 A 0.74 0.73 68.7 0 0 170.95 238.29 C 176.40 246.15 180.32 254.86 180.91 264.09 Q 181.16 268.03 181.62 272.13 C 182.85 283.30 188.66 294.35 195.78 303.31 Q 197.06 304.92 196.74 302.89 C 194.47 288.52 197.30 274.63 205.42 263.04 C 208.75 258.30 213.40 254.74 217.05 250.27" vector-effect="non-scaling-stroke"/><path stroke="#d7878c" d="M 416.43 246.85 C 418.52 240.43 421.53 234.37 425.31 228.81 Q 425.78 228.12 424.94 228.20 C 414.97 229.21 404.04 225.63 395.56 220.81 C 389.61 217.44 384.59 214.44 377.80 218.54 Q 376.73 219.18 377.44 220.20 C 396.57 247.72 404.44 281.99 401.27 315.38 Q 401.24 315.71 401.58 315.70 Q 401.97 315.69 402.28 315.46 C 412.44 307.81 419.27 299.12 422.46 287.18 C 424.58 279.22 420.35 271.93 417.28 264.91 Q 413.42 256.07 416.43 246.85" vector-effect="non-scaling-stroke"/><path stroke="#d7878c" d="M 271.81 254.15 C 255.33 262.66 247.76 277.96 249.32 296.25 Q 250.81 313.61 259.49 329.48 Q 259.52 329.53 259.47 329.57 Q 259.39 329.62 259.67 329.56 Q 259.77 329.54 259.75 329.44 C 257.18 317.49 256.24 305.33 258.52 293.70 C 259.95 286.38 263.62 277.31 270.07 273.34 Q 272.87 271.62 276.87 270.88 C 285.81 269.23 298.37 267.20 303.43 258.54 C 311.91 244.04 328.11 243.73 343.14 245.97 Q 343.25 245.99 343.31 245.91 Q 343.35 245.86 343.37 245.81 Q 343.43 245.66 343.27 245.60 C 326.66 239.40 311.45 234.45 294.26 242.88 Q 281.92 248.93 271.81 254.15" vector-effect="non-scaling-stroke"/><path stroke="#d7878c" d="M 301.08 323.83 C 288.76 319.79 285.12 310.08 288.29 298.46 C 291.17 287.94 297.71 279.20 307.90 275.21 Q 320.91 270.11 332.30 276.74 C 343.90 283.48 347.07 299.16 344.93 311.31 C 342.49 325.18 333.07 338.76 322.15 348.16 Q 320.62 349.48 322.49 348.70 C 339.48 341.59 353.52 321.42 355.15 303.31 C 357.17 280.86 342.60 262.77 319.35 263.40 Q 298.26 263.98 284.94 280.09 C 272.30 295.37 271.12 316.06 286.54 330.04 Q 293.10 335.98 302.26 337.41 C 321.18 340.35 336.31 320.64 333.96 303.03 C 332.80 294.34 327.16 285.33 318.21 283.34 C 310.56 281.65 304.37 286.44 299.98 292.48 Q 289.64 306.72 299.23 320.50 C 299.93 321.50 300.70 322.39 301.43 323.34 Q 302.03 324.15 301.08 323.83" vector-effect="non-scaling-stroke"/><path stroke="#d7878c" d="M 284.45 349.75 C 263.17 350.96 249.14 331.41 244.18 313.23 Q 238.33 291.79 246.65 271.34 Q 247.42 269.43 246.32 271.16 C 233.70 290.83 223.03 319.85 234.09 342.60 C 244.52 364.03 270.33 380.80 293.28 384.95 Q 307.23 387.47 319.34 378.85 C 331.81 369.96 344.46 365.01 358.91 360.91 C 360.33 360.51 360.92 359.38 361.40 358.09 C 369.04 337.17 373.26 313.89 365.90 293.01 Q 365.44 291.69 365.36 293.09 Q 365.20 296.09 365.02 299.26 Q 363.65 322.72 346.68 339.90 C 341.19 345.46 336.02 349.09 333.11 356.94 C 331.86 360.29 330.86 365.77 327.21 367.19 C 306.39 375.30 302.53 348.73 284.45 349.75" vector-effect="non-scaling-stroke"/><path stroke="#d7878c" d="M 300.33 422.00 C 297.21 411.63 302.88 400.20 308.21 391.45 A 0.37 0.36 -75.1 0 0 307.89 390.89 C 283.82 391.27 262.04 383.60 244.29 366.90 Q 234.32 357.51 227.39 349.82 Q 225.63 347.86 224.34 345.02 C 219.42 334.16 216.34 321.73 205.45 315.23 Q 203.13 313.86 200.80 312.49 C 190.28 306.35 182.53 296.65 178.26 285.03 Q 177.86 283.92 177.78 285.10 C 176.95 298.40 178.88 315.16 187.70 325.55 C 189.29 327.43 191.23 328.97 193.11 330.55 C 207.09 342.25 199.67 362.15 202.05 377.79 C 203.23 385.50 209.26 388.94 216.18 390.40 Q 224.65 392.18 233.10 394.27 C 240.96 396.22 247.55 399.79 253.43 405.27 C 265.13 416.18 283.36 421.38 299.89 422.55 A 0.43 0.43 0.0 0 0 300.33 422.00" vector-effect="non-scaling-stroke"/><path stroke="#d7878c" d="M 271.90 288.31 Q 272.09 287.60 272.24 286.89 Q 272.50 285.59 271.82 286.73 C 262.83 301.72 259.89 321.74 273.69 334.81 Q 275.82 336.82 274.39 334.26 C 266.82 320.71 267.94 303.30 271.90 288.31" vector-effect="non-scaling-stroke"/><path stroke="#d7878c" d="M 363.96 392.84 C 386.96 377.82 419.74 358.86 399.46 325.25 Q 398.79 324.14 398.59 325.42 Q 394.98 348.34 375.16 359.97 C 366.66 364.95 358.33 366.71 349.07 369.30 C 334.33 373.43 319.61 382.72 312.50 397.09 Q 307.09 408.04 309.25 421.91 A 0.75 0.75 0.0 0 0 310.08 422.54 Q 324.25 420.67 336.90 415.98 C 344.08 413.32 350.78 409.76 354.06 402.43 C 355.82 398.49 360.45 395.13 363.96 392.84" vector-effect="non-scaling-stroke"/><path stroke="#d7878c" d="M 278.07 340.56 C 286.59 345.08 295.09 348.58 304.63 348.86 C 316.01 349.19 324.79 344.11 331.45 334.44 Q 332.75 332.56 333.42 330.61 Q 333.79 329.54 333.04 330.39 C 322.11 342.73 304.72 345.63 288.52 342.52 Q 283.18 341.50 278.18 340.08 Q 278.12 340.07 278.10 340.12 L 278.00 340.37 Q 277.95 340.49 278.07 340.56" vector-effect="non-scaling-stroke"/><path stroke="#80c9a2" d="M 246.54 428.08 Q 246.61 427.97 246.73 428.02 Q 262.19 435.18 278.55 434.53 Q 279.11 434.50 279.55 434.15 A 0.34 0.33 36.1 0 0 279.46 433.58 C 270.46 430.00 262.33 424.40 254.67 418.13 C 228.70 396.91 189.43 398.82 160.07 410.54 Q 143.20 417.27 129.88 428.93 Q 128.91 429.78 130.13 429.34 C 158.35 419.23 188.28 431.72 212.36 447.65 Q 218.17 451.49 223.74 453.53 C 234.66 457.53 247.84 457.94 259.25 456.07 Q 285.12 451.83 307.79 438.57 A 0.15 0.15 0.0 0 0 307.68 438.29 C 286.55 442.10 264.43 440.54 246.46 428.49 Q 246.35 428.42 246.42 428.30 L 246.54 428.08" vector-effect="non-scaling-stroke"/></g><path fill="#009345" d="M 364.96 183.63 Q 367.84 185.27 365.34 183.10 C 350.00 169.80 328.27 165.47 307.83 166.28 Q 305.75 166.37 307.68 165.59 C 330.75 156.26 359.04 151.08 382.69 158.15 C 391.98 160.94 398.54 165.63 406.08 172.19 C 425.46 189.09 454.15 203.69 480.97 198.03 Q 483.03 197.60 481.27 198.75 C 461.79 211.51 438.88 217.18 415.17 216.48 C 395.58 215.91 374.20 209.66 360.13 196.22 C 353.71 190.08 347.97 184.01 340.48 178.51 Q 337.51 176.32 335.02 175.19 Q 331.97 173.80 335.32 173.99 C 346.13 174.61 355.71 178.34 364.96 183.63 Z"/><path fill="#af0f19" d="M 264.42 190.70 C 274.57 186.25 282.90 180.11 289.59 171.05 Q 289.96 170.55 290.41 170.97 C 298.95 178.72 309.82 185.84 320.72 187.80 C 332.28 189.88 342.56 196.34 350.59 205.07 Q 351.14 205.67 350.34 205.81 Q 332.71 208.96 316.82 207.53 C 310.42 206.95 304.45 205.06 298.10 204.15 Q 269.97 200.11 242.75 210.23 A 0.30 0.29 -2.7 0 1 242.36 209.88 Q 242.57 209.14 242.97 208.50 C 247.77 200.77 255.83 194.47 264.42 190.70 Z"/><path fill="#af0f19" d="M 245.14 243.76 C 240.55 252.58 249.25 261.08 241.12 269.75 C 232.51 278.93 220.92 291.34 221.27 304.71 C 221.34 307.07 221.65 310.75 220.22 312.72 Q 219.89 313.16 219.35 313.26 Q 217.74 313.56 216.30 312.83 Q 208.57 308.87 206.34 301.78 C 201.70 287.03 205.90 275.36 216.08 264.90 C 228.13 252.53 230.77 234.52 243.06 222.40 C 250.67 214.90 260.13 212.75 270.72 212.12 C 282.86 211.40 295.17 210.90 306.71 213.65 Q 323.16 217.57 334.23 232.01 Q 335.00 233.00 333.80 232.64 Q 311.97 225.96 291.93 233.87 C 288.73 235.13 285.70 236.92 282.49 238.26 Q 274.37 241.66 267.50 240.30 C 263.20 239.45 258.49 235.95 254.25 236.44 C 250.59 236.86 246.78 240.60 245.14 243.76 Z"/><path fill="#af0f19" d="M 357.00 251.79 Q 357.78 252.07 357.53 251.28 C 352.50 235.27 341.16 222.55 325.81 214.93 Q 324.48 214.27 325.97 214.23 C 345.88 213.68 364.33 223.80 375.27 240.40 Q 379.63 247.02 382.93 258.33 C 390.71 284.99 393.51 314.54 378.22 337.35 Q 377.05 339.09 377.24 337.00 C 378.94 317.74 376.37 298.09 370.27 279.58 C 367.17 270.15 358.52 262.93 349.48 259.24 C 338.88 254.91 327.44 254.63 315.77 255.54 Q 312.93 255.76 315.60 254.76 C 328.21 250.04 344.03 247.19 357.00 251.79 Z"/><path fill="#af0f19" d="M 234.20 215.88 C 230.83 228.44 225.29 240.18 217.05 250.27 C 213.40 254.74 208.75 258.30 205.42 263.04 C 197.30 274.63 194.47 288.52 196.74 302.89 Q 197.06 304.92 195.78 303.31 C 188.66 294.35 182.85 283.30 181.62 272.13 Q 181.16 268.03 180.91 264.09 C 180.32 254.86 176.40 246.15 170.95 238.29 A 0.74 0.73 68.7 0 1 171.45 237.14 Q 194.27 233.94 213.46 227.16 C 220.64 224.62 228.23 221.01 233.48 215.48 Q 234.63 214.27 234.20 215.88 Z"/><path fill="#af0f19" d="M 425.31 228.81 C 421.53 234.37 418.52 240.43 416.43 246.85 Q 413.42 256.07 417.28 264.91 C 420.35 271.93 424.58 279.22 422.46 287.18 C 419.27 299.12 412.44 307.81 402.28 315.46 Q 401.97 315.69 401.58 315.70 Q 401.24 315.71 401.27 315.38 C 404.44 281.99 396.57 247.72 377.44 220.20 Q 376.73 219.18 377.80 218.54 C 384.59 214.44 389.61 217.44 395.56 220.81 C 404.04 225.63 414.97 229.21 424.94 228.20 Q 425.78 228.12 425.31 228.81 Z"/><path fill="#af0f19" d="M 249.32 296.25 C 247.76 277.96 255.33 262.66 271.81 254.15 Q 281.92 248.93 294.26 242.88 C 311.45 234.45 326.66 239.40 343.27 245.60 Q 343.43 245.66 343.37 245.81 Q 343.35 245.86 343.31 245.91 Q 343.25 245.99 343.14 245.97 C 328.11 243.73 311.91 244.04 303.43 258.54 C 298.37 267.20 285.81 269.23 276.87 270.88 Q 272.87 271.62 270.07 273.34 C 263.62 277.31 259.95 286.38 258.52 293.70 C 256.24 305.33 257.18 317.49 259.75 329.44 Q 259.77 329.54 259.67 329.56 Q 259.39 329.62 259.47 329.57 Q 259.52 329.53 259.49 329.48 Q 250.81 313.61 249.32 296.25 Z"/><path fill="#af0f19" d="M 301.43 323.34 C 300.70 322.39 299.93 321.50 299.23 320.50 Q 289.64 306.72 299.98 292.48 C 304.37 286.44 310.56 281.65 318.21 283.34 C 327.16 285.33 332.80 294.34 333.96 303.03 C 336.31 320.64 321.18 340.35 302.26 337.41 Q 293.10 335.98 286.54 330.04 C 271.12 316.06 272.30 295.37 284.94 280.09 Q 298.26 263.98 319.35 263.40 C 342.60 262.77 357.17 280.86 355.15 303.31 C 353.52 321.42 339.48 341.59 322.49 348.70 Q 320.62 349.48 322.15 348.16 C 333.07 338.76 342.49 325.18 344.93 311.31 C 347.07 299.16 343.90 283.48 332.30 276.74 Q 320.91 270.11 307.90 275.21 C 297.71 279.20 291.17 287.94 288.29 298.46 C 285.12 310.08 288.76 319.79 301.08 323.83 Q 302.03 324.15 301.43 323.34 Z"/><path fill="#af0f19" d="M 244.18 313.23 C 249.14 331.41 263.17 350.96 284.45 349.75 C 302.53 348.73 306.39 375.30 327.21 367.19 C 330.86 365.77 331.86 360.29 333.11 356.94 C 336.02 349.09 341.19 345.46 346.68 339.90 Q 363.65 322.72 365.02 299.26 Q 365.20 296.09 365.36 293.09 Q 365.44 291.69 365.90 293.01 C 373.26 313.89 369.04 337.17 361.40 358.09 C 360.92 359.38 360.33 360.51 358.91 360.91 C 344.46 365.01 331.81 369.96 319.34 378.85 Q 307.23 387.47 293.28 384.95 C 270.33 380.80 244.52 364.03 234.09 342.60 C 223.03 319.85 233.70 290.83 246.32 271.16 Q 247.42 269.43 246.65 271.34 Q 238.33 291.79 244.18 313.23 Z"/><path fill="#af0f19" d="M 308.21 391.45 C 302.88 400.20 297.21 411.63 300.33 422.00 A 0.43 0.43 0.0 0 1 299.89 422.55 C 283.36 421.38 265.13 416.18 253.43 405.27 C 247.55 399.79 240.96 396.22 233.10 394.27 Q 224.65 392.18 216.18 390.40 C 209.26 388.94 203.23 385.50 202.05 377.79 C 199.67 362.15 207.09 342.25 193.11 330.55 C 191.23 328.97 189.29 327.43 187.70 325.55 C 178.88 315.16 176.95 298.40 177.78 285.10 Q 177.86 283.92 178.26 285.03 C 182.53 296.65 190.28 306.35 200.80 312.49 Q 203.13 313.86 205.45 315.23 C 216.34 321.73 219.42 334.16 224.34 345.02 Q 225.63 347.86 227.39 349.82 Q 234.32 357.51 244.29 366.90 C 262.04 383.60 283.82 391.27 307.89 390.89 A 0.37 0.36 -75.1 0 1 308.21 391.45 Z"/><path fill="#af0f19" d="M 271.90 288.31 C 267.94 303.30 266.82 320.71 274.39 334.26 Q 275.82 336.82 273.69 334.81 C 259.89 321.74 262.83 301.72 271.82 286.73 Q 272.50 285.59 272.24 286.89 Q 272.09 287.60 271.90 288.31 Z"/><path fill="#af0f19" d="M 399.46 325.25 C 419.74 358.86 386.96 377.82 363.96 392.84 C 360.45 395.13 355.82 398.49 354.06 402.43 C 350.78 409.76 344.08 413.32 336.90 415.98 Q 324.25 420.67 310.08 422.54 A 0.75 0.75 0.0 0 1 309.25 421.91 Q 307.09 408.04 312.50 397.09 C 319.61 382.72 334.33 373.43 349.07 369.30 C 358.33 366.71 366.66 364.95 375.16 359.97 Q 394.98 348.34 398.59 325.42 Q 398.79 324.14 399.46 325.25 Z"/><path fill="#af0f19" d="M 278.07 340.56 Q 277.95 340.49 278.00 340.37 L 278.10 340.12 Q 278.12 340.07 278.18 340.08 Q 283.18 341.50 288.52 342.52 C 304.72 345.63 322.11 342.73 333.04 330.39 Q 333.79 329.54 333.42 330.61 Q 332.75 332.56 331.45 334.44 C 324.79 344.11 316.01 349.19 304.63 348.86 C 295.09 348.58 286.59 345.08 278.07 340.56 Z"/><path fill="#009345" d="M 246.46 428.49 C 264.43 440.54 286.55 442.10 307.68 438.29 A 0.15 0.15 0.0 0 1 307.79 438.57 Q 285.12 451.83 259.25 456.07 C 247.84 457.94 234.66 457.53 223.74 453.53 Q 218.17 451.49 212.36 447.65 C 188.28 431.72 158.35 419.23 130.13 429.34 Q 128.91 429.78 129.88 428.93 Q 143.20 417.27 160.07 410.54 C 189.43 398.82 228.70 396.91 254.67 418.13 C 262.33 424.40 270.46 430.00 279.46 433.58 A 0.34 0.33 36.1 0 1 279.55 434.15 Q 279.11 434.50 278.55 434.53 Q 262.19 435.18 246.73 428.02 Q 246.61 427.97 246.54 428.08 L 246.42 428.30 Q 246.35 428.42 246.46 428.49 Z"/></svg>