<?xml version="1.0" encoding="utf-8"?>
<svg version="1.0" width="820.000000pt" height="380.000000pt" viewBox="195.978 139.705 413.258 62.069" preserveAspectRatio="xMidYMid meet" xmlns="http://www.w3.org/2000/svg">
 <defs/>
 <g transform="translate(0.000000,380.000000) scale(0.100000,-0.100000)" fill="#000000" stroke="none">
  <path d="M5195 2380 c-145 -12 -414 -69 -770 -162 -104 -28 -199 -53 -210 -55&#10;-11 -3 -105 -29 -210 -59 -727 -204 -1054 -262 -1405 -251 -189 6 -283 22&#10;-377 63 -126 56 -193 156 -148 221 18 26 2 42 -21 22 -27 -22 -35 -58 -23&#10;-102 60 -223 502 -302 1129 -202 264 42 434 78 840 177 175 42 269 63 576 128&#10;422 88 677 117 944 106 231 -8 369 -38 443 -93 45 -35 72 -98 64 -150 -22&#10;-134 -243 -217 -443 -167 -72 18 -116 45 -148 87 -18 24 -19 31 -7 49 18 29&#10;-4 52 -25 24 -60 -83 69 -188 248 -202 332 -26 530 193 344 379 -24 23 -78 61&#10;-120 85 -169 94 -385 126 -681 102z"/>
 </g>
</svg>